<?xml version="1.0" standalone="no"?>
<!DOCTYPE svg PUBLIC "-//W3C//DTD SVG 1.1//EN" "http://www.w3.org/Graphics/SVG/1.1/DTD/svg11.dtd" >
<svg>
<metadata>
Created by FontForge 20120731 at Wed Jun 14 18:47:46 2017
 By www
Typeface (c) The Monotype Corporation plc. Data (c) The Monotype Corporation plc/Type Solutions Inc. 1990-1994. All Rights Reserved
</metadata>
<defs>
<font id="CourierNewPSMT" horiz-adv-x="1229" >
  <font-face 
    font-family="Courier New"
    font-weight="400"
    font-stretch="normal"
    units-per-em="2048"
    panose-1="2 7 3 9 2 2 5 2 4 4"
    ascent="1638"
    descent="-410"
    x-height="866"
    cap-height="1170"
    bbox="-44 -1392 1275 2091"
    underline-thickness="84"
    underline-position="-435"
    unicode-range="U+0020-FFFC"
  />
<missing-glyph 
d="M103 0v1280h1024v-1280h-1024zM135 32h960v1216h-960v-1216z" />
    <glyph glyph-name="afii64240" unicode="&#xfedf;&#xfee4;&#xfea0;" 
d="M1171 586q0 -23 -16.5 -73t-28.5 -50q-8 0 -33 30q-70 87 -163 87q-171 0 -348 -107q44 -7 254 -93q206 -84 309 -95l-39 -107q-116 0 -236.5 -25.5t-388.5 -127.5q-66 -25 -284 -25h-197v123h354q73 0 247 53q184 57 253 62q-106 50 -266.5 101.5t-214.5 51.5
q31 45 55 101q222 129 396 180q-20 56 -30 165l-13 127q-4 38 -29 105q37 62 90 121q28 -58 86 -129q-35 -56 -53 -95q3 -219 29 -278q24 4 61 4q146 0 206 -106zM851 -299l-109 -110l-111 110l111 109z" />
    <glyph glyph-name="afii64241" unicode="&#xfb58;&#xfeec;" 
d="M600 -23q78 -74 78 -131q0 -98 -61.5 -184t-131.5 -86q-76 0 -122.5 83.5t-47.5 193.5q0 33 13 77q-43 -23 -111 -39q7 57 41 138q-80 -29 -215 -29h-43v123h102q178 0 236 31q108 212 215.5 352.5t163.5 140.5q78 0 78 -119q0 -166 -43.5 -252t-235.5 -194
q131 45 370 45q72 0 146.5 30t74.5 63q0 178 -104 292l68 170q116 -174 116 -366q0 -75 -36 -154q-28 -62 -60 -98t-67 -51q-27 -12 -118 -13q-180 -3 -306 -23zM416 166q130 29 227.5 131.5t97.5 151.5q0 75 -43 75q-52 0 -99.5 -49t-182.5 -309zM395 -18q-19 -76 -19 -132
q0 -149 126 -149q100 0 100 78q0 57 -71.5 127.5t-135.5 75.5zM981 -249l-108 -110l-110 111l110 109l100 -99l109 107l110 -109l-110 -111zM1087 -451l-110 -110l-110 110l110 109z" />
    <glyph glyph-name="afii63954" unicode="&#xfee7;&#xfeec;" 
d="M600 -23q78 -74 78 -131q0 -98 -61.5 -184t-131.5 -86q-76 0 -122.5 83.5t-47.5 193.5q0 33 13 77q-43 -23 -111 -39q7 57 41 138q-80 -29 -215 -29h-43v123h102q178 0 236 31q108 212 215.5 352.5t163.5 140.5q78 0 78 -119q0 -166 -43.5 -252t-235.5 -194
q131 45 370 45q72 0 146.5 30t74.5 63q0 178 -104 292l68 170q116 -174 116 -366q0 -75 -36 -154q-28 -62 -60 -98t-67 -51q-27 -12 -118 -13q-180 -3 -306 -23zM416 166q130 29 227.5 131.5t97.5 151.5q0 75 -43 75q-52 0 -99.5 -49t-182.5 -309zM395 -18q-19 -76 -19 -132
q0 -149 126 -149q100 0 100 78q0 57 -71.5 127.5t-135.5 75.5zM1109 982l-109 -110l-111 110l111 109z" />
    <glyph glyph-name="afii64242" unicode="&#xfb7c;&#xfee4;" 
d="M423 -6q-73 65 -166 121q-90 -83 -133.5 -99t-87.5 -16h-36v123h29q79 0 127 17t65.5 50t71.5 181q67 185 174 244.5t474 105.5q-61 41 -158.5 76.5t-157.5 35.5q-76 0 -121 -67q-9 -13 -21 -13q-8 0 -8 18q0 54 56.5 114.5t141.5 60.5q30 0 64.5 -9t54.5 -18.5
t145 -78.5q165 -91 291 -91l-51 -126q-511 0 -621 -117q30 -13 55 -64.5t25 -108.5q0 -85 -20 -162t-96.5 -127t-96.5 -50zM305 219q107 -56 192 -130q53 73 53 175q0 149 -90 149q-69 0 -155 -194zM1013 224l-108 -110l-110 111l110 109l100 -99l109 107l110 -109
l-110 -111zM1119 22l-110 -110l-110 110l110 109z" />
    <glyph glyph-name="afii62881" unicode="&#x651;&#x64b;" 
d="M616 1372q-39 -86 -90 -86q-68 0 -68 92q0 84 29 84q13 0 13 -16q0 -5 -1 -17q-2 -13 -2 -19q0 -28 27 -28q43 0 61 67q14 66 19 66q15 0 19 -36q4 -37 37 -37q34 0 41 65q8 64 18 64q30 0 30 -109q0 -51 -26 -88t-60 -37q-27 0 -47 35zM473 1680q-12 0 -12 24
q0 25 14 31l248 105q9 0 11.5 -3.5t2.5 -18.5q0 -28 -14 -34zM473 1520q-11 0 -11 24q0 25 13 31l248 105q9 0 11.5 -3t2.5 -18q0 -26 -14 -32z" />
    <glyph glyph-name="afii57369" unicode="&#xe832;&#x650;" 
d="M527 -561l8 43q47 33 76 70q-98 6 -98 90q0 58 39 114t90 56q80 0 80 -73q0 -24 -12 -48q-73 53 -105 53q-51 0 -51 -43q1 -36 53 -68t92 -32q37 0 88 22v-73zM549 -704q-11 -5 -11 24q0 25 13 31l248 105q9 0 11.5 -4t2.5 -18q0 -29 -14 -34z" />
    <glyph glyph-name="afii57370" unicode="&#xe832;&#x64d;" 
d="M529 -561l8 43q47 33 76 70q-98 6 -98 90q0 57 39 113.5t90 56.5q80 0 80 -73q0 -24 -12 -48q-73 53 -105 53q-51 0 -51 -43q0 -36 52.5 -68t92.5 -32q37 0 88 22v-73zM543 -708q-11 0 -11 25t13 30l248 105q9 0 11.5 -3.5t2.5 -18.5q0 -28 -14 -34zM543 -868
q-11 0 -11 25t13 30l248 105q9 0 11.5 -3t2.5 -17q0 -27 -14 -33z" />
    <glyph glyph-name="afii57371" unicode="&#x674;&#x64e;" 
d="M429 1646q-11 0 -11 25t13 30l248 105q9 0 11.5 -3t2.5 -17q0 -27 -14 -33zM477 1230l8 43q46 33 76 70q-98 6 -98 90q0 58 39 114t90 56q80 0 80 -73q0 -24 -12 -48q-73 53 -105 53q-51 0 -51 -43q0 -35 52.5 -67.5t92.5 -32.5q35 0 88 22v-73z" />
    <glyph glyph-name="afii57372" unicode="&#x674;&#x64b;" 
d="M432 1806q-12 0 -12 25t14 30l248 105q9 0 11.5 -3t2.5 -19q0 -28 -14 -34zM432 1646q-11 0 -11 25t13 30l248 105q9 0 11.5 -3t2.5 -17q0 -27 -14 -33zM480 1230l8 43q46 33 76 70q-98 6 -98 90q0 58 39 114t90 56q80 0 80 -73q0 -24 -12 -48q-73 53 -105 53
q-51 0 -51 -43q0 -35 52.5 -67.5t92.5 -32.5q35 0 88 22v-73z" />
    <glyph glyph-name="afii57373" unicode="&#x674;&#x652;" 
d="M677 1812q0 -66 -52 -108t-104 -42q-46 0 -70 36.5t-24 82.5q0 68 35.5 120t97.5 52q56 0 86.5 -42t30.5 -99zM464 1812q0 -50 86 -50q73 0 73 27q0 20 -36 54t-72 34q-51 0 -51 -65zM478 1230l8 43q46 33 76 70q-98 6 -98 90q0 59 39 114.5t90 55.5q80 0 80 -73
q0 -23 -12 -48q-73 53 -105 53q-51 0 -51 -43q0 -35 52.5 -67.5t92.5 -32.5q35 0 88 22v-73z" />
    <glyph glyph-name="afii57374" unicode="&#x674;&#x64f;" 
d="M475 1230l8 43q47 33 76 70q-98 6 -98 90q0 58 39 114t90 56q80 0 80 -73q0 -24 -12 -48q-73 53 -105 53q-51 0 -51 -43q0 -36 52.5 -68t92.5 -32q36 0 88 22v-73zM365 1677v13q142 64 197 143q-62 39 -62 88q0 45 44 107.5t83 62.5q23 0 39 -29.5t16 -64.5
q0 -51 -32 -115q49 -24 49 -51v-51q-18 0 -54 15q-44 20 -51 22q-119 -148 -198 -148q-17 0 -31 8zM619 1898q17 29 17 61q0 62 -42 62q-39 0 -39 -50q0 -61 64 -73z" />
    <glyph glyph-name="afii57375" unicode="&#x674;&#x64c;" 
d="M368 1658v12q7 4 31 21q24 38 24 96q0 37 -22 37q-9 0 -29 -18q-21 -19 -26 -19q-8 0 -8 8q1 20 35.5 53t62.5 33q43 0 43 -52q0 -45 -37 -120q75 34 127 109q-58 31 -58 92q1 51 46.5 108.5t80.5 57.5q25 0 40.5 -28t15.5 -64q0 -61 -37 -117q47 -23 47 -49l-4 -47
q-33 0 -101 31q-36 -55 -96 -102.5t-105 -47.5q-20 0 -30 6zM624 1883q19 32 19 64q0 59 -44 59q-36 0 -36 -47q0 -55 61 -76zM478 1230l8 43q47 33 76 70q-98 6 -98 90q0 59 39 114.5t90 55.5q80 0 80 -73q0 -23 -12 -48q-73 53 -105 53q-51 0 -51 -43q0 -35 52.5 -67.5
t92.5 -32.5q35 0 88 22v-73z" />
    <glyph glyph-name="afii57460" unicode="&#x627;&#xe83b;" 
d="M552 59q0 240 -20 513q-20 287 -20 423l104 166l-3 -155q0 -167 5 -306q8 -218 8 -306q0 -293 -74 -335zM493 1389q102 134 139.5 153.5t65.5 19.5q24 0 40 -28.5t16 -65.5q0 -62 -24.5 -101t-73.5 -49.5t-215 -10.5q-32 0 -46 -32q-22 -52 -26 -52q-15 0 -15 47
q0 45 21 74.5t40 37.5t78 7zM532 1388h111q76 0 76 38q0 56 -54 56q-21 0 -67.5 -33t-65.5 -61z" />
    <glyph glyph-name="afii52258" unicode="&#xfe8e;&#xe83b;" arabic-form="final" 
d="M1229 0h-402q-86 0 -137.5 6t-75.5 17t-49 71.5t-25 159.5q0 70 5 200t5 207q0 263 -46 383l82 107q42 -120 42 -380v-2l-1 -58l-2 -115q-1 -30 -6 -138q-5 -98 -5 -151q0 -86 23 -135t92 -49h500v-123zM491 1389q102 134 139.5 153.5t65.5 19.5q24 0 40 -28.5t16 -65.5
q0 -62 -24.5 -101t-73.5 -49.5t-215 -10.5q-32 0 -46 -32q-22 -52 -26 -52q-15 0 -15 47q0 45 21 74.5t40 37.5t78 7zM530 1388h111q76 0 76 38q0 56 -54 56q-21 0 -67.5 -33t-65.5 -61z" />
    <glyph glyph-name="afii63753" unicode="&#xfe91;&#xfee2;" arabic-form="isolated" 
d="M1049 416q-62 134 -198 134q-158 0 -384 -194q64 -9 176.5 -77.5t167.5 -120.5l-45 -121q-92 61 -184 61q-98 0 -163.5 -42t-65.5 -117q0 -30 27 -124q57 -188 57 -259q0 -17 -27 -67t-39 -50q-13 83 -69 256q-62 169 -62 237q0 217 270 234q-33 27 -89 50q-54 23 -75 42
q19 126 240 274t381 148q57 0 95 -44.5t38 -104.5q0 -80 -51 -115zM1033 -299l-109 -110l-111 110l111 109z" />
    <glyph glyph-name="afii63754" unicode="&#xfe91;&#xfef0;" arabic-form="isolated" 
d="M652 17q12 47 30 106q117 39 140 68.5t23 55.5q0 113 -103 210l66 173q114 -116 114 -307q0 -125 -50 -210q194 -29 194 -109q0 -168 -161.5 -241t-374.5 -73q-199 0 -289 84.5t-90 208.5q0 56 45.5 189.5t85.5 133.5q20 0 20 -13q0 -9 -32 -100q-31 -91 -31 -150
q0 -208 328 -208q132 0 267 22.5t135 58.5t-92 65t-225 36zM1078 -451l-109 -110l-111 110l111 109z" />
    <glyph glyph-name="afii63759" unicode="&#xfe97;&#xfee2;" arabic-form="isolated" 
d="M1049 416q-62 134 -198 134q-158 0 -384 -194q64 -9 176.5 -77.5t167.5 -120.5l-45 -121q-92 61 -184 61q-98 0 -163.5 -42t-65.5 -117q0 -30 27 -124q57 -188 57 -259q0 -17 -27 -67t-39 -50q-13 83 -69 256q-62 169 -62 237q0 217 270 234q-33 27 -89 50q-54 23 -75 42
q19 126 240 274t381 148q57 0 95 -44.5t38 -104.5q0 -80 -51 -115zM992 1042l-108 -109l-110 111l110 109l100 -100l109 108l110 -109l-110 -111z" />
    <glyph glyph-name="afii63763" unicode="&#xfe9b;&#xfee2;" arabic-form="isolated" 
d="M1049 416q-62 134 -198 134q-158 0 -384 -194q64 -9 176.5 -77.5t167.5 -120.5l-45 -121q-92 61 -184 61q-98 0 -163.5 -42t-65.5 -117q0 -30 27 -124q57 -188 57 -259q0 -17 -27 -67t-39 -50q-13 83 -69 256q-62 169 -62 237q0 217 270 234q-33 27 -89 50q-54 23 -75 42
q19 126 240 274t381 148q57 0 95 -44.5t38 -104.5q0 -80 -51 -115zM1090 1167l-110 -110l-110 110l110 109zM984 954l-108 -109l-110 111l110 109l100 -100l109 108l110 -109l-110 -111z" />
    <glyph glyph-name="afii63795" unicode="&#xfed3;&#xfef0;" arabic-form="isolated" 
d="M659 72q15 43 36 98q81 0 133.5 20.5t73 57t20.5 58.5q-92 -48 -157 -48q-61 0 -115 22.5t-54 59.5q0 112 61 241.5t148 129.5q90 0 140 -113t50 -275q0 -79 -61 -162q137 -43 137 -109q0 -161 -164 -261.5t-370 -100.5q-200 0 -289.5 84t-89.5 212q0 75 45.5 199.5
t85.5 124.5q18 0 18 -17q0 -9 -34 -92q-34 -84 -34 -143q0 -223 335 -223q139 0 270.5 41t131.5 85q0 46 -92 75t-225 36zM884 410q-42 188 -109 188q-48 0 -80 -60t-32 -117q0 -50 96 -50q38 0 125 39zM860 965l-109 -110l-111 110l111 109z" />
    <glyph glyph-name="afii62891" unicode="&#xfed3;&#xfef2;" arabic-form="isolated" 
d="M659 72q15 43 36 98q81 0 133.5 20.5t73 57t20.5 58.5q-92 -48 -157 -48q-61 0 -115 22.5t-54 59.5q0 112 61 241.5t148 129.5q90 0 140 -113t50 -275q0 -79 -61 -162q137 -43 137 -109q0 -161 -164 -261.5t-370 -100.5q-200 0 -289.5 84t-89.5 212q0 75 45.5 199.5
t85.5 124.5q18 0 18 -17q0 -9 -34 -92q-34 -84 -34 -143q0 -223 335 -223q139 0 270.5 41t131.5 85q0 46 -92 75t-225 36zM884 410q-42 188 -109 188q-48 0 -80 -60t-32 -117q0 -50 96 -50q38 0 125 39zM860 965l-109 -110l-111 110l111 109zM568 -452l-108 -109l-110 111
l110 109l100 -100l109 108l110 -109l-110 -111z" />
    <glyph glyph-name="afii63808" unicode="&#xfedf;&#xfe9e;" arabic-form="isolated" 
d="M1136 -341q0 -77 -166 -153q-146 -67 -237 -67q-280 0 -410 122q-72 74 -99 139q-33 77 -33 149q0 392 617 480q-169 94 -476 94q-19 0 -61 -2q21 41 60 110q52 7 189 15q69 4 89 17q28 19 28 81q0 55 -37 212q-38 162 -63 199q31 44 91 121q35 -55 86 -129
q-17 -41 -56 -94q5 -63 29 -179q22 -108 22 -152q0 -82 -53 -115q308 -140 443 -150l-45 -119q-101 6 -130 6q-199 0 -381 -76q-241 -104 -241 -282q0 -138 105 -224q107 -92 359 -92q83 0 217 44.5t153 44.5zM830 -90l-109 -110l-111 110l111 109z" />
    <glyph glyph-name="afii62938" unicode="&#xfedf;&#xfea2;" arabic-form="isolated" 
d="M1136 -341q0 -77 -166 -153q-146 -67 -237 -67q-280 0 -410 122q-72 74 -99 139q-33 77 -33 149q0 392 617 480q-169 94 -476 94q-19 0 -61 -2q21 41 60 110q52 7 189 15q69 4 89 17q28 19 28 81q0 55 -37 212q-38 162 -63 199q31 44 91 121q35 -55 86 -129
q-17 -41 -56 -94q5 -63 29 -179q22 -108 22 -152q0 -82 -53 -115q308 -140 443 -150l-45 -119q-101 6 -130 6q-199 0 -381 -76q-241 -104 -241 -282q0 -138 105 -224q107 -92 359 -92q83 0 217 44.5t153 44.5z" />
    <glyph glyph-name="afii63810" unicode="&#xfedf;&#xfea6;" arabic-form="isolated" 
d="M1136 -341q0 -77 -166 -153q-146 -67 -237 -67q-280 0 -410 122q-72 74 -99 139q-33 77 -33 149q0 392 617 480q-169 94 -476 94q-19 0 -61 -2q21 41 60 110q52 7 189 15q69 4 89 17q28 19 28 81q0 55 -37 212q-38 162 -63 199q31 44 91 121q35 -55 86 -129
q-17 -41 -56 -94q5 -63 29 -179q22 -108 22 -152q0 -82 -53 -115q308 -140 443 -150l-45 -119q-101 6 -130 6q-199 0 -381 -76q-241 -104 -241 -282q0 -138 105 -224q107 -92 359 -92q83 0 217 44.5t153 44.5zM497 820l-109 -110l-111 110l111 109z" />
    <glyph glyph-name="afii62942" unicode="&#xfedf;&#xfee2;" arabic-form="isolated" 
d="M867 -28q-117 55 -198 55q-104 0 -169 -44.5t-65 -124.5q0 -51 42 -156q30 -86 30 -148q0 -17 -25.5 -66t-42.5 -49q-7 0 -32 101q-18 64 -36 119q-52 134 -52 202q0 105 70.5 166.5t201.5 61.5q-13 12 -85 41q-62 24 -62 46q0 17 9.5 37.5t28 42.5t24 25.5t62.5 27.5
q38 16 54.5 42.5t16.5 81.5q0 36 -44 311t-74 319q28 46 84 129q28 -49 88 -131q-22 -40 -57 -100q61 -456 80 -536q4 -20 4 -44q0 -101 -42 -138q80 -28 165.5 -82t85.5 -70q0 -24 -21 -62.5t-41 -56.5z" />
    <glyph glyph-name="afii62947" unicode="&#xfedf;&#xfef0;" arabic-form="isolated" 
d="M646 35q13 42 32 96q105 9 105 137q0 18 -2 36l-42 354q-29 198 -81 295q27 44 84 129q41 -87 88 -131l-42 -97q71 -498 71 -571q0 -97 -51 -142q163 -29 207 -54.5t44 -64.5q0 -152 -161.5 -242t-374.5 -90q-199 0 -289 84.5t-90 226.5q0 56 45.5 189.5t85.5 133.5
q17 0 17 -19q0 -9 -34 -88t-34 -138q0 -244 336 -244q78 0 240.5 22.5t162.5 66.5q0 46 -92 75t-225 36z" />
    <glyph glyph-name="afii63813" unicode="&#xfedf;&#xfef2;" arabic-form="isolated" 
d="M646 35q13 42 32 96q105 9 105 137q0 18 -2 36l-42 354q-29 198 -81 295q27 44 84 129q41 -87 88 -131l-42 -97q71 -498 71 -571q0 -97 -51 -142q163 -29 207 -54.5t44 -64.5q0 -152 -161.5 -242t-374.5 -90q-199 0 -289 84.5t-90 226.5q0 56 45.5 189.5t85.5 133.5
q17 0 17 -19q0 -9 -34 -88t-34 -138q0 -244 336 -244q78 0 240.5 22.5t162.5 66.5q0 46 -92 75t-225 36zM541 -452l-108 -109l-110 111l110 109l100 -100l109 108l110 -109l-110 -111z" />
    <glyph glyph-name="afii63823" unicode="&#xfee7;&#xfee2;" arabic-form="isolated" 
d="M1049 416q-62 134 -198 134q-158 0 -384 -194q64 -9 176.5 -77.5t167.5 -120.5l-45 -121q-92 61 -184 61q-98 0 -163.5 -42t-65.5 -117q0 -30 27 -124q57 -188 57 -259q0 -17 -27 -67t-39 -50q-13 83 -69 256q-62 169 -62 237q0 217 270 234q-33 27 -89 50q-54 23 -75 42
q19 126 240 274t381 148q57 0 95 -44.5t38 -104.5q0 -80 -51 -115zM1084 1042l-109 -110l-111 110l111 109z" />
    <glyph glyph-name="afii63824" unicode="&#xfee7;&#xfef0;" arabic-form="isolated" 
d="M652 17q12 47 30 106q117 39 140 68.5t23 55.5q0 113 -103 210l66 173q114 -116 114 -307q0 -125 -50 -210q194 -29 194 -109q0 -168 -161.5 -241t-374.5 -73q-199 0 -289 84.5t-90 208.5q0 56 45.5 189.5t85.5 133.5q20 0 20 -13q0 -9 -32 -100q-31 -91 -31 -150
q0 -208 328 -208q132 0 267 22.5t135 58.5t-92 65t-225 36zM776 892l-109 -110l-111 110l111 109z" />
    <glyph glyph-name="afii63833" unicode="&#xfbfe;&#xfee2;" arabic-form="isolated" 
d="M1049 416q-62 134 -198 134q-158 0 -384 -194q64 -9 176.5 -77.5t167.5 -120.5l-45 -121q-92 61 -184 61q-98 0 -163.5 -42t-65.5 -117q0 -30 27 -124q57 -188 57 -259q0 -17 -27 -67t-39 -50q-13 83 -69 256q-62 169 -62 237q0 217 270 234q-33 27 -89 50q-54 23 -75 42
q19 126 240 274t381 148q57 0 95 -44.5t38 -104.5q0 -80 -51 -115zM941 -289l-108 -109l-110 111l110 109l100 -100l109 108l110 -109l-110 -111z" />
    <glyph glyph-name="afii63844" unicode="&#xfbfe;&#xfef0;" arabic-form="isolated" 
d="M652 17q12 47 30 106q117 39 140 68.5t23 55.5q0 113 -103 210l66 173q114 -116 114 -307q0 -125 -50 -210q194 -29 194 -109q0 -168 -161.5 -241t-374.5 -73q-199 0 -289 84.5t-90 208.5q0 56 45.5 189.5t85.5 133.5q20 0 20 -13q0 -9 -32 -100q-31 -91 -31 -150
q0 -208 328 -208q132 0 267 22.5t135 58.5t-92 65t-225 36zM902 -452l-108 -109l-110 111l110 109l100 -100l109 108l110 -109l-110 -111z" />
    <glyph glyph-name="afii62882" unicode="&#x651;&#x64c;" arabic-form="isolated" 
d="M418 1530v12q7 4 31 21q24 37 24 96q0 37 -22 37q-9 0 -30 -19q-21 -18 -25 -18q-9 0 -9 7q0 20 35.5 53.5t63.5 33.5q42 0 42 -52q0 -46 -36 -120q74 34 127 109q-58 30 -58 92q0 50 46 108t81 58q24 0 40 -28t16 -64q0 -62 -37 -117q47 -24 47 -49l-4 -47
q-34 0 -101 31q-36 -55 -96.5 -102.5t-105.5 -47.5q-19 0 -29 6zM674 1755q18 32 18 64q0 59 -43 59q-36 0 -36 -47q0 -55 61 -76zM616 1370q-43 -86 -92 -86q-66 0 -66 94q0 82 29 82q13 0 13 -14q0 -5 -2 -17q-2 -13 -2 -20q0 -27 28 -27q43 0 60 66q17 65 22 65
q11 0 16 -35q4 -37 39 -37q32 0 39 63q7 65 18 65q31 0 31 -109q1 -51 -25.5 -87t-62.5 -36q-30 0 -45 33z" />
    <glyph glyph-name="afii62883" unicode="&#x651;&#x64d;" arabic-form="isolated" 
d="M627 1673q-42 -84 -92 -84q-66 0 -66 84q0 26 8.5 54t18.5 28q11 0 11 -15q0 -5 -2 -18q-2 -14 -2 -20q0 -27 28 -27q43 0 61 66q17 67 24 67q9 0 15 -36t41 -36q32 0 39 63q7 64 18 64q27 0 27 -106q0 -46 -29 -80.5t-57 -34.5q-30 0 -43 31zM496 1419q-13 -5 -13 25
q0 24 15 30l248 105q9 0 11.5 -3.5t2.5 -17.5q0 -27 -14 -33zM496 1259q-12 -5 -12 24q0 25 14 31l248 107q9 0 11.5 -4t2.5 -18q0 -27 -14 -33z" />
    <glyph glyph-name="afii62884" unicode="&#x651;&#x64e;" arabic-form="isolated" 
d="M472 1520q-13 -5 -13 25q0 25 13 30l248 106q9 0 11.5 -4t2.5 -18q0 -27 -14 -33zM613 1368q-39 -86 -90 -86q-68 0 -68 92q0 84 29 84q13 0 13 -16q0 -5 -1 -17q-2 -13 -2 -20q0 -27 27 -27q43 0 61 67q18 66 19 66q15 0 19 -36q4 -37 37 -37q34 0 41 65q8 64 18 64
q30 0 30 -109q0 -51 -26 -87.5t-60 -37.5q-27 0 -47 35z" />
    <glyph glyph-name="afii62885" unicode="&#x651;&#x64f;" arabic-form="isolated" 
d="M424 1533v13q143 65 197 143q-59 37 -59 90q1 45 44 106.5t81 61.5q23 0 40 -29t17 -65q0 -49 -35 -115q49 -23 49 -51v-49q-26 0 -104 37q-117 -150 -199 -150q-16 0 -31 8zM678 1753q17 31 17 63q0 61 -41 61q-39 0 -39 -51q0 -60 63 -73zM616 1368q-43 -86 -92 -86
q-66 0 -66 94q0 84 29 84q13 0 13 -16q0 -5 -2 -17q-2 -13 -2 -20q0 -27 28 -27q43 0 60 66q18 67 20 67q14 0 18 -37t39 -37q32 0 39 63q7 64 18 64q31 0 31 -108q1 -51 -25.5 -87t-62.5 -36q-30 0 -45 33z" />
    <glyph glyph-name="afii62886" unicode="&#x651;&#x650;" arabic-form="isolated" 
d="M616 1512q-42 -84 -92 -84q-66 0 -66 84q0 26 8.5 54t18.5 28q11 0 11 -15q0 -5 -2 -18q-2 -14 -2 -20q0 -27 28 -27q43 0 61 66q17 67 24 67q10 0 15 -36q6 -36 41 -36q32 0 39 63q7 64 18 64q27 0 27 -106q0 -46 -29 -80.5t-57 -34.5q-29 0 -43 31zM485 1258
q-13 -5 -13 25q0 24 15 30l248 105q9 0 11.5 -3.5t2.5 -17.5q0 -27 -14 -33z" />
    <glyph glyph-name="afii63846" unicode="&#xfe92;&#xfeae;" arabic-form="final" 
d="M972 331q-55 -116 -155 -116v-25q0 -160 -54 -297.5t-158.5 -228.5t-197.5 -91q-111 0 -170 18l-184 56q-53 16 -53 41q0 26 34 26q18 0 88 -16q70 -15 136 -15q121 0 249 83.5t191 182t63 144.5q1 98 -29 182.5t-125 180.5l63 170q103 -96 136 -295q15 -3 30 -3
q139 0 169 252q4 37 26 37q15 0 15 -37q0 -269 28 -363t126 -94h29v-123h-23q-101 0 -156.5 50t-77.5 281zM1108 -314l-109 -110l-111 110l111 109z" />
    <glyph glyph-name="afii63849" unicode="&#xfe92;&#xfee6;" arabic-form="final" 
d="M1229 0h-49q-116 0 -174.5 70.5t-79.5 287.5q-25 -54 -78.5 -96.5t-104.5 -42.5q5 -46 5 -94q0 -239 -107.5 -373.5t-308.5 -134.5q-125 0 -214 88.5t-89 241.5q0 185 61.5 346t100.5 161q20 0 20 -22q0 -19 -40 -121q-56 -147 -56 -284q0 -106 65.5 -187.5t161.5 -81.5
q124 0 226 69.5t102 188.5q0 125 -64 303l74 164q39 -74 53 -149q13 -2 26 -2q175 0 204 248q4 37 26 37q15 0 15 -37q0 -249 32 -353t138 -104h55v-123zM546 802l-109 -110l-111 110l111 109zM1083 -292l-109 -110l-111 110l111 109z" />
    <glyph glyph-name="afii63850" unicode="&#xfe92;&#xfef0;" arabic-form="final" 
d="M1229 123v-123h-131q-62 0 -94 25.5t-80 110.5q-45 80 -94 80q-61 0 -156.5 -62.5t-95.5 -119.5q0 -34 94 -51q143 -26 183.5 -44t63.5 -50.5t23 -76.5q0 -51 -57.5 -168t-194.5 -161t-262 -44q-385 0 -385 276q0 100 48 224t85 123q10 0 10 -15q0 -11 -35 -100
q-35 -90 -35 -149q0 -110 71.5 -168t264.5 -58q124 -1 272 45.5t148 122.5q0 64 -89 90l-144 29q-58 12 -83.5 33.5t-25.5 53.5q0 134 108 263.5t234 129.5q44 0 98 -100q44 -82 74.5 -99t76.5 -17h108zM1228 -302l-109 -110l-111 110l111 109z" />
    <glyph glyph-name="afii63851" unicode="&#xfe92;&#xfef2;" arabic-form="final" 
d="M1229 123v-123h-131q-68 0 -108 38q-24 22 -66 98q-47 82 -110 82q-60 0 -139 -31q-95 -39 -95 -89q0 -27 91 -47q149 -33 184 -44q87 -28 87 -147q0 -88 -195 -171q-152 -64 -320 -64q-384 0 -384 234q0 56 32 127q37 79 81 79q15 0 15 -21q0 4 -33 -60t-33 -108
q0 -80 102 -111q123 -27 244 -27q101 0 264 29q157 37 157 72q0 30 -16.5 43t-63.5 24l-143 32q-120 28 -120 106q0 114 117 207q110 88 225 88q45 0 99 -100q35 -65 57 -85q34 -31 94 -31h108zM1228 -301l-109 -111l-111 111l111 109zM434 -479l-81 -82l-82 83l82 82
l75 -75l82 81l83 -82l-83 -83z" />
    <glyph glyph-name="afii63852" unicode="&#xfe98;&#xfeae;" arabic-form="final" 
d="M972 331q-55 -116 -155 -116v-25q0 -160 -54 -297.5t-158.5 -228.5t-197.5 -91q-111 0 -170 18l-184 56q-53 16 -53 41q0 26 34 26q18 0 88 -16q70 -15 136 -15q121 0 249 83.5t191 182t63 144.5q1 98 -29 182.5t-125 180.5l63 170q103 -96 136 -295q15 -3 30 -3
q139 0 169 252q4 37 26 37q15 0 15 -37q0 -269 28 -363t126 -94h29v-123h-23q-101 0 -156.5 50t-77.5 281zM1012 967l-108 -109l-110 111l110 109l100 -100l109 108l110 -109l-110 -111z" />
    <glyph glyph-name="afii63855" unicode="&#xfe98;&#xfee6;" arabic-form="final" 
d="M1229 0h-49q-116 0 -174.5 70.5t-79.5 287.5q-25 -54 -78.5 -96.5t-104.5 -42.5q5 -46 5 -94q0 -239 -107.5 -373.5t-308.5 -134.5q-125 0 -214 88.5t-89 241.5q0 185 61.5 346t100.5 161q20 0 20 -22q0 -19 -40 -121q-56 -147 -56 -284q0 -106 65.5 -187.5t161.5 -81.5
q124 0 226 69.5t102 188.5q0 125 -64 303l74 164q39 -74 53 -149q13 -2 26 -2q175 0 204 248q4 37 26 37q15 0 15 -37q0 -249 32 -353t138 -104h55v-123zM546 882l-109 -110l-111 110l111 109zM994 945l-108 -109l-110 111l110 109l100 -100l109 108l110 -109l-110 -111z
" />
    <glyph glyph-name="afii63856" unicode="&#xfe98;&#xfef0;" arabic-form="final" 
d="M1229 123v-123h-131q-62 0 -94 25.5t-80 110.5q-45 80 -94 80q-61 0 -156.5 -62.5t-95.5 -119.5q0 -34 94 -51q143 -26 183.5 -44t63.5 -50.5t23 -76.5q0 -51 -57.5 -168t-194.5 -161t-262 -44q-385 0 -385 276q0 100 48 224t85 123q10 0 10 -15q0 -11 -35 -100
q-35 -90 -35 -149q0 -110 71.5 -168t264.5 -58q124 -1 272 45.5t148 122.5q0 64 -89 90l-144 29q-58 12 -83.5 33.5t-25.5 53.5q0 134 108 263.5t234 129.5q44 0 98 -100q44 -82 74.5 -99t76.5 -17h108zM894 611l-108 -109l-110 111l110 109l100 -100l109 108l110 -109
l-110 -111z" />
    <glyph glyph-name="afii63761" unicode="&#xfe98;&#xfef2;" arabic-form="final" 
d="M894 611l-108 -109l-110 111l110 110l100 -101l109 109l110 -110l-110 -111zM1229 123v-123h-131q-68 0 -108 38q-24 22 -66 98q-47 82 -110 82q-60 0 -139 -31q-95 -39 -95 -89q0 -27 91 -47q149 -33 184 -44q87 -28 87 -147q0 -88 -195 -171q-152 -64 -320 -64
q-384 0 -384 234q0 56 32 127q37 79 81 79q15 0 15 -21q0 4 -33 -60t-33 -108q0 -80 102 -111q123 -27 244 -27q101 0 264 29q157 37 157 72q0 30 -16.5 43t-63.5 24l-143 32q-120 28 -120 106q0 114 117 207q110 88 225 88q45 0 99 -100q35 -65 57 -85q34 -31 94 -31h108z
M434 -479l-81 -82l-82 83l82 82l75 -75l82 81l83 -82l-83 -83z" />
    <glyph glyph-name="afii63882" unicode="&#xfee8;&#xfef0;" arabic-form="final" 
d="M1229 123v-123h-131q-62 0 -94 25.5t-80 110.5q-45 80 -94 80q-61 0 -156.5 -62.5t-95.5 -119.5q0 -34 94 -51q143 -26 183.5 -44t63.5 -50.5t23 -76.5q0 -51 -57.5 -168t-194.5 -161t-262 -44q-385 0 -385 276q0 100 48 224t85 123q10 0 10 -15q0 -11 -35 -100
q-35 -90 -35 -149q0 -110 71.5 -168t264.5 -58q124 -1 272 45.5t148 122.5q0 64 -89 90l-144 29q-58 12 -83.5 33.5t-25.5 53.5q0 134 108 263.5t234 129.5q44 0 98 -100q44 -82 74.5 -99t76.5 -17h108zM971 621l-109 -110l-111 110l111 109z" />
    <glyph glyph-name="afii63825" unicode="&#xfee8;&#xfef2;" arabic-form="final" 
d="M971 622l-109 -111l-111 111l111 109zM1229 123v-123h-131q-68 0 -108 38q-24 22 -66 98q-47 82 -110 82q-60 0 -139 -31q-95 -39 -95 -89q0 -27 91 -47q149 -33 184 -44q87 -28 87 -147q0 -88 -195 -171q-152 -64 -320 -64q-384 0 -384 234q0 56 32 127q37 79 81 79
q15 0 15 -21q0 4 -33 -60t-33 -108q0 -80 102 -111q123 -27 244 -27q101 0 264 29q157 37 157 72q0 30 -16.5 43t-63.5 24l-143 32q-120 28 -120 106q0 114 117 207q110 88 225 88q45 0 99 -100q35 -65 57 -85q34 -31 94 -31h108zM434 -479l-81 -82l-82 83l82 82l75 -75
l82 81l83 -82l-83 -83z" />
    <glyph glyph-name="afii63885" unicode="&#xfbff;&#xfeae;" arabic-form="final" 
d="M972 331q-55 -116 -155 -116v-25q0 -160 -54 -297.5t-158.5 -228.5t-197.5 -91q-111 0 -170 18l-184 56q-53 16 -53 41q0 26 34 26q18 0 88 -16q70 -15 136 -15q121 0 249 83.5t191 182t63 144.5q1 98 -29 182.5t-125 180.5l63 170q103 -96 136 -295q15 -3 30 -3
q139 0 169 252q4 37 26 37q15 0 15 -37q0 -269 28 -363t126 -94h29v-123h-23q-101 0 -156.5 50t-77.5 281zM934 -323l-108 -109l-110 111l110 109l100 -100l109 108l110 -109l-110 -111z" />
    <glyph glyph-name="afii63888" unicode="&#xfbff;&#xfee6;" arabic-form="final" 
d="M1229 0h-49q-116 0 -174.5 70.5t-79.5 287.5q-25 -54 -78.5 -96.5t-104.5 -42.5q5 -46 5 -94q0 -239 -107.5 -373.5t-308.5 -134.5q-125 0 -214 88.5t-89 241.5q0 185 61.5 346t100.5 161q20 0 20 -22q0 -19 -40 -121q-56 -147 -56 -284q0 -106 65.5 -187.5t161.5 -81.5
q124 0 226 69.5t102 188.5q0 125 -64 303l74 164q39 -74 53 -149q13 -2 26 -2q175 0 204 248q4 37 26 37q15 0 15 -37q0 -249 32 -353t138 -104h55v-123zM546 882l-109 -110l-111 110l111 109zM1000 -414l-108 -109l-110 111l110 109l100 -100l109 108l110 -109l-110 -111z
" />
    <glyph glyph-name="afii63896" unicode="&#xfe91;&#xfea0;" arabic-form="initial" 
d="M1196 397l-45 -121h-96q-51 0 -123.5 -7.5t-114.5 -27t-151 -93.5q-107 -71 -179 -109.5t-310 -38.5h-177v123h355q76 0 248 103q193 116 247 130q-67 45 -220 84t-247 39q30 48 53 113q64 1 128.5 32.5t119 82t159.5 164.5q89 96 130 96q56 0 96 -73.5t40 -181.5
q0 -47 -4 -69t-24 -22q-17 0 -20 22q-12 87 -17.5 117t-23.5 52t-47 22q-64 0 -155 -108q-109 -128 -189 -163q115 -60 281 -112t286 -54zM1100 -147l-109 -110l-111 110l111 109zM499 -337l-109 -110l-111 110l111 109z" />
    <glyph glyph-name="afii63897" unicode="&#xfe91;&#xfea4;" arabic-form="initial" 
d="M1196 397l-45 -121h-96q-51 0 -123.5 -7.5t-114.5 -27t-151 -93.5q-107 -71 -179 -109.5t-310 -38.5h-177v123h355q76 0 248 103q193 116 247 130q-67 45 -220 84t-247 39q30 48 53 113q64 1 128.5 32.5t119 82t159.5 164.5q89 96 130 96q56 0 96 -73.5t40 -181.5
q0 -47 -4 -69t-24 -22q-17 0 -20 22q-12 87 -17.5 117t-23.5 52t-47 22q-64 0 -155 -108q-109 -128 -189 -163q115 -60 281 -112t286 -54zM1144 -147l-109 -110l-111 110l111 109z" />
    <glyph glyph-name="afii63898" unicode="&#xfe91;&#xfea8;" arabic-form="initial" 
d="M1196 397l-45 -121h-96q-51 0 -123.5 -7.5t-114.5 -27t-151 -93.5q-107 -71 -179 -109.5t-310 -38.5h-177v123h355q76 0 248 103q193 116 247 130q-67 45 -220 84t-247 39q30 48 53 113q64 1 128.5 32.5t119 82t159.5 164.5q89 96 130 96q56 0 96 -73.5t40 -181.5
q0 -47 -4 -69t-24 -22q-17 0 -20 22q-12 87 -17.5 117t-23.5 52t-47 22q-64 0 -155 -108q-109 -128 -189 -163q115 -60 281 -112t286 -54zM465 887l-109 -110l-111 110l111 109zM1078 -136l-109 -110l-111 110l111 109z" />
    <glyph glyph-name="afii63899" unicode="&#xfe91;&#xfee4;" arabic-form="initial" 
d="M1108 748q-5 -40 -47 -111q-46 60 -143 60q-84 0 -165 -80t-81 -184q0 -158 293 -263l-58 -115q-100 60 -178 60t-193 -60q-67 -35 -133 -45t-222 -10h-181v123h353q106 0 181 32q90 40 125 50q-61 92 -61 243q0 119 125 251.5t245 132.5q103 0 140 -84zM1097 -312
l-109 -110l-111 110l111 109z" />
    <glyph glyph-name="afii63900" unicode="&#xfe91;&#xfeec;" arabic-form="initial" 
d="M600 -23q78 -74 78 -131q0 -98 -61.5 -184t-131.5 -86q-76 0 -122.5 83.5t-47.5 193.5q0 33 13 77q-43 -23 -111 -39q7 57 41 138q-80 -29 -215 -29h-43v123h102q178 0 236 31q108 212 215.5 352.5t163.5 140.5q78 0 78 -119q0 -166 -43.5 -252t-235.5 -194
q131 45 370 45q72 0 146.5 30t74.5 63q0 178 -104 292l68 170q116 -174 116 -366q0 -75 -36 -154q-28 -62 -60 -98t-67 -51q-27 -12 -118 -13q-180 -3 -306 -23zM416 166q130 29 227.5 131.5t97.5 151.5q0 75 -43 75q-52 0 -99.5 -49t-182.5 -309zM395 -18q-19 -76 -19 -132
q0 -149 126 -149q100 0 100 78q0 57 -71.5 127.5t-135.5 75.5zM1090 -370l-109 -110l-111 110l111 109z" />
    <glyph glyph-name="afii63901" unicode="&#xfe97;&#xfea0;" arabic-form="initial" 
d="M1196 397l-45 -121h-96q-51 0 -123.5 -7.5t-114.5 -27t-151 -93.5q-107 -71 -179 -109.5t-310 -38.5h-177v123h355q76 0 248 103q193 116 247 130q-67 45 -220 84t-247 39q30 48 53 113q64 1 128.5 32.5t119 82t159.5 164.5q89 96 130 96q56 0 96 -73.5t40 -181.5
q0 -47 -4 -69t-24 -22q-17 0 -20 22q-12 87 -17.5 117t-23.5 52t-47 22q-64 0 -155 -108q-109 -128 -189 -163q115 -60 281 -112t286 -54zM984 1249l-108 -109l-110 111l110 109l100 -100l109 108l110 -109l-110 -111zM918 -316l-109 -110l-111 110l111 109z" />
    <glyph glyph-name="afii63902" unicode="&#xfe97;&#xfea4;" arabic-form="initial" 
d="M1196 397l-45 -121h-96q-51 0 -123.5 -7.5t-114.5 -27t-151 -93.5q-107 -71 -179 -109.5t-310 -38.5h-177v123h355q76 0 248 103q193 116 247 130q-67 45 -220 84t-247 39q30 48 53 113q64 1 128.5 32.5t119 82t159.5 164.5q89 96 130 96q56 0 96 -73.5t40 -181.5
q0 -47 -4 -69t-24 -22q-17 0 -20 22q-12 87 -17.5 117t-23.5 52t-47 22q-64 0 -155 -108q-109 -128 -189 -163q115 -60 281 -112t286 -54zM984 1249l-108 -109l-110 111l110 109l100 -100l109 108l110 -109l-110 -111z" />
    <glyph glyph-name="afii63903" unicode="&#xfe97;&#xfea8;" arabic-form="initial" 
d="M1196 397l-45 -121h-96q-51 0 -123.5 -7.5t-114.5 -27t-151 -93.5q-107 -71 -179 -109.5t-310 -38.5h-177v123h355q76 0 248 103q193 116 247 130q-67 45 -220 84t-247 39q30 48 53 113q64 1 128.5 32.5t119 82t159.5 164.5q89 96 130 96q56 0 96 -73.5t40 -181.5
q0 -47 -4 -69t-24 -22q-17 0 -20 22q-12 87 -17.5 117t-23.5 52t-47 22q-64 0 -155 -108q-109 -128 -189 -163q115 -60 281 -112t286 -54zM465 865l-109 -110l-111 110l111 109zM984 1249l-108 -109l-110 111l110 109l100 -100l109 108l110 -109l-110 -111z" />
    <glyph glyph-name="afii63904" unicode="&#xfe97;&#xfee4;" arabic-form="initial" 
d="M1108 748q-5 -40 -47 -111q-46 60 -143 60q-84 0 -165 -80t-81 -184q0 -158 293 -263l-58 -115q-100 60 -178 60t-193 -60q-67 -35 -133 -45t-222 -10h-181v123h353q106 0 181 32q90 40 125 50q-61 92 -61 243q0 119 125 251.5t245 132.5q103 0 140 -84zM917 1079
l-108 -109l-110 111l110 109l100 -100l109 108l110 -109l-110 -111z" />
    <glyph glyph-name="afii63905" unicode="&#xfe97;&#xfeec;" arabic-form="initial" 
d="M600 -23q78 -74 78 -131q0 -98 -61.5 -184t-131.5 -86q-76 0 -122.5 83.5t-47.5 193.5q0 33 13 77q-43 -23 -111 -39q7 57 41 138q-80 -29 -215 -29h-43v123h102q178 0 236 31q108 212 215.5 352.5t163.5 140.5q78 0 78 -119q0 -166 -43.5 -252t-235.5 -194
q131 45 370 45q72 0 146.5 30t74.5 63q0 178 -104 292l68 170q116 -174 116 -366q0 -75 -36 -154q-28 -62 -60 -98t-67 -51q-27 -12 -118 -13q-180 -3 -306 -23zM416 166q130 29 227.5 131.5t97.5 151.5q0 75 -43 75q-52 0 -99.5 -49t-182.5 -309zM395 -18q-19 -76 -19 -132
q0 -149 126 -149q100 0 100 78q0 57 -71.5 127.5t-135.5 75.5zM1007 984l-108 -109l-110 111l110 109l100 -100l109 108l110 -109l-110 -111z" />
    <glyph glyph-name="afii63906" unicode="&#xfe9b;&#xfee4;" arabic-form="initial" 
d="M1108 748q-5 -40 -47 -111q-46 60 -143 60q-84 0 -165 -80t-81 -184q0 -158 293 -263l-58 -115q-100 60 -178 60t-193 -60q-67 -35 -133 -45t-222 -10h-181v123h353q106 0 181 32q90 40 125 50q-61 92 -61 243q0 119 125 251.5t245 132.5q103 0 140 -84zM1022 1291
l-110 -110l-110 110l110 109zM916 1078l-108 -109l-110 111l110 109l100 -100l109 108l110 -109l-110 -111z" />
    <glyph glyph-name="afii63908" unicode="&#xfe9f;&#xfee4;" arabic-form="initial" 
d="M423 -6q-73 65 -166 121q-90 -83 -133.5 -99t-87.5 -16h-36v123h29q79 0 127 17t65.5 50t71.5 181q67 185 174 244.5t474 105.5q-61 41 -158.5 76.5t-157.5 35.5q-76 0 -121 -67q-9 -13 -21 -13q-8 0 -8 18q0 54 56.5 114.5t141.5 60.5q30 0 64.5 -9t54.5 -18.5
t145 -78.5q165 -91 291 -91l-51 -126q-511 0 -621 -117q30 -13 55 -64.5t25 -108.5q0 -85 -20 -162t-96.5 -127t-96.5 -50zM305 219q107 -56 192 -130q53 73 53 175q0 149 -90 149q-69 0 -155 -194zM1007 233l-109 -110l-111 110l111 109z" />
    <glyph glyph-name="afii63910" unicode="&#xfea3;&#xfee4;" arabic-form="initial" 
d="M423 -6q-73 65 -166 121q-90 -83 -133.5 -99t-87.5 -16h-36v123h29q79 0 127 17t65.5 50t71.5 181q67 185 174 244.5t474 105.5q-61 41 -158.5 76.5t-157.5 35.5q-76 0 -121 -67q-9 -13 -21 -13q-8 0 -8 18q0 54 56.5 114.5t141.5 60.5q30 0 64.5 -9t54.5 -18.5
t145 -78.5q165 -91 291 -91l-51 -126q-511 0 -621 -117q30 -13 55 -64.5t25 -108.5q0 -85 -20 -162t-96.5 -127t-96.5 -50zM305 219q107 -56 192 -130q53 73 53 175q0 149 -90 149q-69 0 -155 -194z" />
    <glyph glyph-name="afii63912" unicode="&#xfea7;&#xfee4;" arabic-form="initial" 
d="M423 -6q-73 65 -166 121q-90 -83 -133.5 -99t-87.5 -16h-36v123h29q79 0 127 17t65.5 50t71.5 181q67 185 174 244.5t474 105.5q-61 41 -158.5 76.5t-157.5 35.5q-76 0 -121 -67q-9 -13 -21 -13q-8 0 -8 18q0 54 56.5 114.5t141.5 60.5q30 0 64.5 -9t54.5 -18.5
t145 -78.5q165 -91 291 -91l-51 -126q-511 0 -621 -117q30 -13 55 -64.5t25 -108.5q0 -85 -20 -162t-96.5 -127t-96.5 -50zM305 219q107 -56 192 -130q53 73 53 175q0 149 -90 149q-69 0 -155 -194zM984 1159l-109 -110l-111 110l111 109z" />
    <glyph glyph-name="afii62927" unicode="&#xfeb3;&#xfee4;" arabic-form="initial" 
d="M1090 933l84 116q22 -34 38 -127.5t16 -171.5q0 -306 -221 -306q-68 0 -92 52q-62 -142 -208 -142q-45 0 -82 30.5t-107 132.5q-39 57 -60 57q-61 0 -94 -47t-33 -111q0 -38 19.5 -71.5t42.5 -51.5t199 -123q21 -13 21 -77t-36 -93q-98 84 -196 117q-53 -4 -139 -49
q-129 -68 -242 -68v123h92q126 0 219 82q-63 103 -63 190q0 95 81.5 199.5t167.5 104.5q42 0 116 -108q73 -108 110 -108q41 0 70 31.5t43 80t62 254.5q5 22 29 22q21 0 21 -41q0 -22 -8 -79t-8 -86q0 -112 114 -112q110 0 110 95q0 127 -66 285z" />
    <glyph glyph-name="afii63941" unicode="&#xfedf;&#xfea0;" arabic-form="initial" 
d="M1196 369l-45 -119q-58 4 -100 4q-49 0 -105 -8t-101 -21t-180 -91q-113 -65 -185 -99.5t-321 -34.5h-159v123h354q76 0 266 99q212 111 265 124q-158 88 -455 88q-33 0 -61 -2q27 64 59 111q53 7 190 15q67 4 92 19t25 79q0 72 -67 325q-16 32 -33 86q25 42 90 121
q36 -67 86 -129q-18 -36 -55 -94q5 -59 29 -179q22 -106 22 -152q0 -83 -53 -116q306 -139 442 -149zM955 -299l-109 -110l-111 110l111 109z" />
    <glyph glyph-name="afii62939" unicode="&#xfedf;&#xfea4;" arabic-form="initial" 
d="M1196 369l-45 -119q-58 4 -100 4q-49 0 -105 -8t-101 -21t-180 -91q-113 -65 -185 -99.5t-321 -34.5h-159v123h354q76 0 266 99q212 111 265 124q-158 88 -455 88q-33 0 -61 -2q27 64 59 111q53 7 190 15q67 4 92 19t25 79q0 72 -67 325q-16 32 -33 86q25 42 90 121
q36 -67 86 -129q-18 -36 -55 -94q5 -59 29 -179q22 -106 22 -152q0 -83 -53 -116q306 -139 442 -149z" />
    <glyph glyph-name="afii63943" unicode="&#xfedf;&#xfea8;" arabic-form="initial" 
d="M1196 369l-45 -119q-58 4 -100 4q-49 0 -105 -8t-101 -21t-180 -91q-113 -65 -185 -99.5t-321 -34.5h-159v123h354q76 0 266 99q212 111 265 124q-158 88 -455 88q-33 0 -61 -2q27 64 59 111q53 7 190 15q67 4 92 19t25 79q0 72 -67 325q-16 32 -33 86q25 42 90 121
q36 -67 86 -129q-18 -36 -55 -94q5 -59 29 -179q22 -106 22 -152q0 -83 -53 -116q306 -139 442 -149zM517 912l-109 -110l-111 110l111 109z" />
    <glyph glyph-name="afii62943" unicode="&#xfedf;&#xfee4;" arabic-form="initial" 
d="M1119 -105q-50 80 -131 139t-148 59q-120 -93 -219 -93h-621v123h619q66 0 129.5 30t77.5 52q-23 61 -43 194q-92 608 -124 637q43 77 84 129q43 -82 88 -131q-32 -47 -57 -100q27 -205 64.5 -418t52.5 -251t45 -60q8 -13 79 -44q93 -41 136.5 -77.5t43.5 -86.5
q0 -19 -29 -54.5t-47 -47.5z" />
    <glyph glyph-name="afii62946" unicode="&#xfedf;&#xfeec;" arabic-form="initial" 
d="M798 123h171q104 0 104 62q0 244 -29.5 504t-79.5 354q24 43 84 129q41 -87 88 -131l-58 -101q71 -545 71 -763q0 -85 -46.5 -131t-200.5 -46q-197 0 -281 -23q78 -74 78 -131q0 -98 -61 -184t-131 -86q-77 0 -123.5 83.5t-46.5 193.5q0 29 12 77q-58 -25 -111 -39
q4 52 41 138q-80 -29 -215 -29h-64v123h124q177 0 235 31q112 220 217.5 356.5t161.5 136.5q86 0 86 -119q0 -162 -45 -249.5t-241 -196.5q119 41 260 41zM461 166q129 28 227 130.5t98 152.5q0 75 -43 75q-48 0 -95.5 -43t-186.5 -315zM440 -18q-19 -56 -19 -132
q0 -149 126 -149q100 0 100 78q0 57 -71.5 127.5t-135.5 75.5z" />
    <glyph glyph-name="afii63946" unicode="&#xfee3;&#xfea0;" arabic-form="initial" 
d="M1140 275l-36 -97q-132 0 -251.5 -24t-377.5 -123q-81 -31 -475 -31v123h352q89 0 266 46q209 56 249 62q-104 50 -273 104t-223 54q28 42 56 108q53 54 174.5 106t211.5 65q-127 47 -140.5 60.5t-13.5 26.5q0 32 40 77t67 45q67 0 202.5 -55t135.5 -108
q0 -28 -21.5 -79.5t-34.5 -51.5q-399 0 -546 -104q44 -7 292 -101q243 -92 346 -103zM896 -213l-109 -110l-111 110l111 109z" />
    <glyph glyph-name="afii62951" unicode="&#xfee3;&#xfea4;" arabic-form="initial" 
d="M1140 275l-36 -97q-132 0 -251.5 -24t-377.5 -123q-81 -31 -475 -31v123h352q89 0 266 46q209 56 249 62q-104 50 -273 104t-223 54q28 42 56 108q53 54 174.5 106t211.5 65q-127 47 -140.5 60.5t-13.5 26.5q0 32 40 77t67 45q67 0 202.5 -55t135.5 -108
q0 -28 -21.5 -79.5t-34.5 -51.5q-399 0 -546 -104q44 -7 292 -101q243 -92 346 -103z" />
    <glyph glyph-name="afii63948" unicode="&#xfee3;&#xfea8;" arabic-form="initial" 
d="M1140 275l-36 -97q-132 0 -251.5 -24t-377.5 -123q-81 -31 -475 -31v123h352q89 0 266 46q209 56 249 62q-104 50 -273 104t-223 54q28 42 56 108q53 54 174.5 106t211.5 65q-127 47 -140.5 60.5t-13.5 26.5q0 32 40 77t67 45q67 0 202.5 -55t135.5 -108
q0 -28 -21.5 -79.5t-34.5 -51.5q-399 0 -546 -104q44 -7 292 -101q243 -92 346 -103zM548 800l-109 -110l-111 110l111 109z" />
    <glyph glyph-name="afii62953" unicode="&#xfee3;&#xfee4;" arabic-form="initial" 
d="M784 2q-81 74 -196 117q-55 -4 -168 -59q-78 -37 -131 -48.5t-168 -11.5h-121v123h289q61 0 114.5 14t114.5 70q-34 47 -34 114q0 263 341 364q-149 38 -149 77q0 32 39.5 77.5t66.5 45.5q67 0 202.5 -55.5t135.5 -108.5q0 -27 -22 -79t-33 -52q-272 0 -383 -41.5
t-111 -132.5q0 -47 22.5 -85t56 -62t149.5 -97q21 -13 21 -77t-36 -93z" />
    <glyph glyph-name="afii63950" unicode="&#xfee7;&#xfea0;" arabic-form="initial" 
d="M1196 397l-45 -121h-96q-51 0 -123.5 -7.5t-114.5 -27t-151 -93.5q-107 -71 -179 -109.5t-310 -38.5h-177v123h355q76 0 248 103q193 116 247 130q-67 45 -220 84t-247 39q30 48 53 113q64 1 128.5 32.5t119 82t159.5 164.5q89 96 130 96q56 0 96 -73.5t40 -181.5
q0 -47 -4 -69t-24 -22q-17 0 -20 22q-12 87 -17.5 117t-23.5 52t-47 22q-64 0 -155 -108q-109 -128 -189 -163q115 -60 281 -112t286 -54zM1092 1251l-109 -110l-111 110l111 109zM918 -316l-109 -110l-111 110l111 109z" />
    <glyph glyph-name="afii63951" unicode="&#xfee7;&#xfea4;" arabic-form="initial" 
d="M1196 397l-45 -121h-96q-51 0 -123.5 -7.5t-114.5 -27t-151 -93.5q-107 -71 -179 -109.5t-310 -38.5h-177v123h355q76 0 248 103q193 116 247 130q-67 45 -220 84t-247 39q30 48 53 113q64 1 128.5 32.5t119 82t159.5 164.5q89 96 130 96q56 0 96 -73.5t40 -181.5
q0 -47 -4 -69t-24 -22q-17 0 -20 22q-12 87 -17.5 117t-23.5 52t-47 22q-64 0 -155 -108q-109 -128 -189 -163q115 -60 281 -112t286 -54zM1092 1251l-109 -110l-111 110l111 109z" />
    <glyph glyph-name="afii63952" unicode="&#xfee7;&#xfea8;" arabic-form="initial" 
d="M1196 397l-45 -121h-96q-51 0 -123.5 -7.5t-114.5 -27t-151 -93.5q-107 -71 -179 -109.5t-310 -38.5h-177v123h355q76 0 248 103q193 116 247 130q-67 45 -220 84t-247 39q30 48 53 113q64 1 128.5 32.5t119 82t159.5 164.5q89 96 130 96q56 0 96 -73.5t40 -181.5
q0 -47 -4 -69t-24 -22q-17 0 -20 22q-12 87 -17.5 117t-23.5 52t-47 22q-64 0 -155 -108q-109 -128 -189 -163q115 -60 281 -112t286 -54zM1092 1251l-109 -110l-111 110l111 109zM465 865l-109 -110l-111 110l111 109z" />
    <glyph glyph-name="afii63953" unicode="&#xfee7;&#xfee4;" arabic-form="initial" 
d="M1108 748q-5 -40 -47 -111q-46 60 -143 60q-84 0 -165 -80t-81 -184q0 -158 293 -263l-58 -115q-100 60 -178 60t-193 -60q-67 -35 -133 -45t-222 -10h-181v123h353q106 0 181 32q90 40 125 50q-61 92 -61 243q0 119 125 251.5t245 132.5q103 0 140 -84zM1133 1169
l-109 -110l-111 110l111 109z" />
    <glyph glyph-name="afii63956" unicode="&#xfeeb;&#xfee4;" arabic-form="initial" 
d="M1126 537q-121 69 -219 91q-104 -17 -221 -54.5t-135 -67.5q30 -13 54 -64.5t24 -108.5q0 -85 -20 -162t-96.5 -127t-96.5 -50q-73 65 -166 121q-11 -9 -44 -38q-90 -77 -177 -77h-29v123h22q79 0 127.5 17t68 55t48.5 121q33 92 63 151.5t49 77t100.5 55t152.5 61.5
t127 30q-38 27 -38 82q0 70 57 159.5t118 123.5q-30 17 -115 17q21 86 40 107.5t54 21.5q103 1 229 -120t125 -318q0 -87 -102 -227zM997 965q0 50 -59 50q-32 0 -86 -71.5t-54 -101.5q0 -43 65 -56l37 -8q97 105 97 187zM1051 956q-22 -115 -81 -204q85 -25 172 -64
q7 25 7 62q0 119 -98 206zM298 219q107 -56 192 -130q53 73 53 175q0 149 -90 149q-69 0 -155 -194z" />
    <glyph glyph-name="afii63958" unicode="&#xfbfe;&#xfea0;" arabic-form="initial" 
d="M1196 397l-45 -121h-96q-51 0 -123.5 -7.5t-114.5 -27t-151 -93.5q-107 -71 -179 -109.5t-310 -38.5h-177v123h355q76 0 248 103q193 116 247 130q-67 45 -220 84t-247 39q30 48 53 113q64 1 128.5 32.5t119 82t159.5 164.5q89 96 130 96q56 0 96 -73.5t40 -181.5
q0 -47 -4 -69t-24 -22q-17 0 -20 22q-12 87 -17.5 117t-23.5 52t-47 22q-64 0 -155 -108q-109 -128 -189 -163q115 -60 281 -112t286 -54zM1004 -2l-108 -109l-110 111l110 109l100 -100l109 108l110 -109l-110 -111zM757 -263l-109 -110l-111 110l111 109z" />
    <glyph glyph-name="afii63959" unicode="&#xfbfe;&#xfea4;" arabic-form="initial" 
d="M1196 397l-45 -121h-96q-51 0 -123.5 -7.5t-114.5 -27t-151 -93.5q-107 -71 -179 -109.5t-310 -38.5h-177v123h355q76 0 248 103q193 116 247 130q-67 45 -220 84t-247 39q30 48 53 113q64 1 128.5 32.5t119 82t159.5 164.5q89 96 130 96q56 0 96 -73.5t40 -181.5
q0 -47 -4 -69t-24 -22q-17 0 -20 22q-12 87 -17.5 117t-23.5 52t-47 22q-64 0 -155 -108q-109 -128 -189 -163q115 -60 281 -112t286 -54zM1004 -2l-108 -109l-110 111l110 109l100 -100l109 108l110 -109l-110 -111z" />
    <glyph glyph-name="afii63960" unicode="&#xfbfe;&#xfea8;" arabic-form="initial" 
d="M1196 397l-45 -121h-96q-51 0 -123.5 -7.5t-114.5 -27t-151 -93.5q-107 -71 -179 -109.5t-310 -38.5h-177v123h355q76 0 248 103q193 116 247 130q-67 45 -220 84t-247 39q30 48 53 113q64 1 128.5 32.5t119 82t159.5 164.5q89 96 130 96q56 0 96 -73.5t40 -181.5
q0 -47 -4 -69t-24 -22q-17 0 -20 22q-12 87 -17.5 117t-23.5 52t-47 22q-64 0 -155 -108q-109 -128 -189 -163q115 -60 281 -112t286 -54zM465 865l-109 -110l-111 110l111 109zM1004 -2l-108 -109l-110 111l110 109l100 -100l109 108l110 -109l-110 -111z" />
    <glyph glyph-name="afii63961" unicode="&#xfbfe;&#xfee4;" arabic-form="initial" 
d="M1108 748q-5 -40 -47 -111q-46 60 -143 60q-84 0 -165 -80t-81 -184q0 -158 293 -263l-58 -115q-100 60 -178 60t-193 -60q-67 -35 -133 -45t-222 -10h-181v123h353q106 0 181 32q90 40 125 50q-61 92 -61 243q0 119 125 251.5t245 132.5q103 0 140 -84zM990 -307
l-108 -109l-110 111l110 109l100 -100l109 108l110 -109l-110 -111z" />
    <glyph glyph-name="afii64046" unicode="&#xfeb7;&#xfee4;" arabic-form="initial" 
d="M1090 933l84 116q22 -34 38 -127.5t16 -171.5q0 -306 -221 -306q-68 0 -92 52q-62 -142 -208 -142q-45 0 -82 30.5t-107 132.5q-39 57 -60 57q-61 0 -94 -47t-33 -111q0 -38 19.5 -71.5t42.5 -51.5t199 -123q21 -13 21 -77t-36 -93q-98 84 -196 117q-53 -4 -139 -49
q-129 -68 -242 -68v123h92q126 0 219 82q-63 103 -63 190q0 95 81.5 199.5t167.5 104.5q42 0 116 -108q73 -108 110 -108q41 0 70 31.5t43 80t62 254.5q5 22 29 22q21 0 21 -41q0 -22 -8 -79t-8 -86q0 -112 114 -112q110 0 110 95q0 127 -66 285zM968 1335l-110 -110
l-110 110l110 109zM862 1122l-108 -109l-110 111l110 109l100 -100l109 108l110 -109l-110 -111z" />
    <glyph glyph-name="afii64058" unicode="&#xfe8e;&#x64b;" arabic-form="final" 
d="M1229 0h-402q-86 0 -137.5 6t-75.5 17t-49 71.5t-25 159.5q0 70 5 200t5 207q0 263 -46 383l82 107q42 -120 42 -380v-2l-1 -58l-2 -115q-1 -30 -6 -138q-5 -98 -5 -151q0 -86 23 -135t92 -49h500v-123zM424 1419q-12 0 -12 24q0 25 14 31l248 105q9 0 11.5 -3.5
t2.5 -18.5q0 -28 -14 -34zM424 1259q-11 0 -11 24q0 25 13 31l248 105q9 0 11.5 -3t2.5 -18q0 -26 -14 -32z" />
    <glyph glyph-name="afii64059" unicode="&#x627;&#x64b;" arabic-form="isolated" 
d="M552 59q0 240 -20 513q-20 287 -20 423l104 166l-3 -155q0 -167 5 -306q8 -218 8 -306q0 -293 -74 -335zM424 1419q-12 0 -12 24q0 25 14 31l248 105q9 0 11.5 -3.5t2.5 -18.5q0 -28 -14 -34zM424 1259q-11 0 -11 24q0 25 13 31l248 105q9 0 11.5 -3t2.5 -18
q0 -26 -14 -32z" />
    <glyph glyph-name="afii62945" unicode="&#xfedf;&#xfee4;&#xfea4;" arabic-form="initial" 
d="M1171 586q0 -23 -16.5 -73t-28.5 -50q-8 0 -33 30q-70 87 -163 87q-171 0 -348 -107q44 -7 254 -93q206 -84 309 -95l-39 -107q-116 0 -236.5 -25.5t-388.5 -127.5q-66 -25 -284 -25h-197v123h354q73 0 247 53q184 57 253 62q-106 50 -266.5 101.5t-214.5 51.5
q31 45 55 101q222 129 396 180q-20 56 -30 165l-13 127q-4 38 -29 105q37 62 90 121q28 -58 86 -129q-35 -56 -53 -95q3 -219 29 -278q24 4 61 4q146 0 206 -106z" />
    <glyph glyph-name="afii64184" unicode="&#xfedf;&#xfee0;&#xfeea;" arabic-form="isolated" 
d="M660 1117q-40 -86 -92 -86q-68 0 -68 92q0 86 31 86q12 0 12 -16l-1 -18q-2 -13 -2 -20q0 -28 28 -28q41 0 58 67t19 67q15 0 20 -37t40 -37q32 0 39 64q7 65 18 65q31 0 31 -109q0 -51 -27 -88t-61 -37q-30 0 -45 35zM823 92q-24 -49 -57 -70.5t-126 -21.5
q-26 0 -77.5 11t-71 24t-32.5 70.5t-25 173.5l-90 -76q-258 17 -291 29t-33 32q0 48 31 109t66.5 88.5t299.5 111.5q-7 93 -32 138l86 114q18 -163 30 -445q8 -157 16 -196.5t50 -50t90 -10.5q119 0 119 67q0 217 -119 625q16 16 43 75q27 58 37 68q82 -453 119 -763
q13 -69 141 -69q100 0 100 70q0 62 -12.5 174.5t-116.5 503.5q33 68 80 146l117 -727q12 -77 12 -132q0 -90 -36.5 -125.5t-125.5 -35.5q-60 0 -117.5 27.5t-74.5 64.5zM438 330l-8 149q-291 -71 -291 -144q0 -13 92 -23.5t115 -10.5q36 0 92 29z" />
    <glyph glyph-name="afii52400" unicode="&#x627;&#x6e4;" 
d="M552 59q0 240 -20 513q-20 287 -20 423l104 166l-3 -155q0 -167 5 -306q8 -218 8 -306q0 -293 -74 -335zM888 1425q0 -66 -86 -113t-168 -47q-47 0 -133 30t-123 30q-36 0 -69 -30q-34 -30 -39 -30q-4 0 -4 12q0 58 44.5 98.5t104.5 40.5q24 0 118 -29q93 -28 166 -28
q101 0 170 65q10 10 14 10q5 -1 5 -9z" />
    <glyph glyph-name="afii62753" unicode="&#xfe8e;&#x6e4;" arabic-form="final" 
d="M1229 0h-402q-86 0 -137.5 6t-75.5 17t-49 71.5t-25 159.5q0 70 5 200t5 207q0 263 -46 383l82 107q42 -120 42 -380v-2l-1 -58l-2 -115q-1 -30 -6 -138q-5 -98 -5 -151q0 -86 23 -135t92 -49h500v-123zM825 1416q0 -66 -86 -113t-168 -47q-47 0 -133 30t-123 30
q-36 0 -69 -30q-34 -30 -39 -30q-4 0 -4 12q0 58 44.5 98.5t104.5 40.5q24 0 118 -29q93 -28 166 -28q101 0 170 65q10 10 14 10q5 -1 5 -9z" />
    <glyph glyph-name="afii57411" unicode="&#x627;&#x674;" 
d="M552 59q0 240 -20 513q-20 287 -20 423l104 166l-3 -155q0 -167 5 -306q8 -218 8 -306q0 -293 -74 -335zM421 1230l8 43q47 33 76 70q-98 6 -98 90q0 58 39 114t90 56q80 0 80 -73q0 -24 -12 -48q-73 53 -105 53q-51 0 -51 -43q0 -36 52.5 -68t92.5 -32q36 0 88 22v-73z
" />
    <glyph glyph-name="afii62754" unicode="&#xfe8e;&#x674;" arabic-form="final" 
d="M1229 0h-402q-86 0 -137.5 6t-75.5 17t-49 71.5t-25 159.5q0 70 5 200t5 207q0 263 -46 383l82 107q42 -120 42 -380v-2l-1 -58l-2 -115q-1 -30 -6 -138q-5 -98 -5 -151q0 -86 23 -135t92 -49h500v-123zM421 1230l8 43q47 33 76 70q-98 6 -98 90q0 58 39 114t90 56
q80 0 80 -73q0 -24 -12 -48q-73 53 -105 53q-51 0 -51 -43q0 -36 52.5 -68t92.5 -32q36 0 88 22v-73z" />
    <glyph glyph-name="afii57412" unicode="&#x648;&#x674;" 
d="M869 9q-59 -11 -108 -11q-139 0 -171 37t-32 91q0 106 65 272t139 166q83 0 126.5 -147t43.5 -349q0 -184 -112.5 -331t-260.5 -147q-76 0 -219.5 30t-143.5 65q0 16 16 16q33 0 85 -12t91 -12q103 0 241 60t192.5 125.5t47.5 146.5zM847 135q0 81 -27.5 184.5
t-68.5 103.5q-40 0 -71.5 -85t-31.5 -144q0 -34 18.5 -53.5t98.5 -19.5q54 0 82 14zM544 677l8 43q47 33 76 70q-98 6 -98 90q0 58 39 114t90 56q80 0 80 -73q0 -24 -12 -48q-73 53 -105 53q-51 0 -51 -43q0 -36 52.5 -68t92.5 -32q36 0 88 22v-73z" />
    <glyph glyph-name="afii62755" unicode="&#xfeee;&#x674;" arabic-form="final" 
d="M1229 123v-123h-307q-13 -158 -123.5 -284t-243.5 -126q-76 0 -219.5 30t-143.5 65q0 16 15 16q22 0 87 -12q57 -12 90 -12q88 0 219.5 52t175 92t64.5 71.5t21 110.5q-14 0 -43 -2q-30 -3 -64 -3q-109 0 -156 24.5t-47 103.5q0 106 65 272t139 166q151 0 168 -441h303z
M843 126q0 82 -27.5 189.5t-68.5 107.5q-40 0 -71.5 -85t-31.5 -144q0 -34 18.5 -53.5t98.5 -19.5q15 0 41 2q25 3 41 3zM544 677l8 43q47 33 76 70q-98 6 -98 90q0 58 39 114t90 56q80 0 80 -73q0 -24 -12 -48q-73 53 -105 53q-51 0 -51 -43q0 -36 52.5 -68t92.5 -32
q36 0 88 22v-73z" />
    <glyph glyph-name="afii57413" unicode="&#x627;&#xe832;" 
d="M552 59q0 240 -20 513q-20 287 -20 423l104 166l-3 -155q0 -167 5 -306q8 -218 8 -306q0 -293 -74 -335zM458 -483l8 43q47 33 76 70q-98 6 -98 90q0 58 39 114t90 56q80 0 80 -73q0 -24 -12 -48q-73 53 -105 53q-51 0 -51 -43q0 -36 52.5 -68t92.5 -32q36 0 88 22v-73z
" />
    <glyph glyph-name="afii62756" unicode="&#xfe8e;&#xe832;" arabic-form="final" 
d="M1229 0h-402q-86 0 -137.5 6t-75.5 17t-49 71.5t-25 159.5q0 70 5 200t5 207q0 263 -46 383l82 107q42 -120 42 -380v-2l-1 -58l-2 -115q-1 -30 -6 -138q-5 -98 -5 -151q0 -86 23 -135t92 -49h500v-123zM526 -535l8 43q47 33 76 70q-98 6 -98 90q0 58 39 114t90 56
q80 0 80 -73q0 -24 -12 -48q-73 53 -105 53q-51 0 -51 -43q0 -36 52.5 -68t92.5 -32q36 0 88 22v-73z" />
    <glyph glyph-name="afii57414" unicode="&#x64a;&#x674;" 
d="M1043 516q-35 26 -86 26q-57 0 -154.5 -61.5t-97.5 -120.5q0 -35 94 -52q108 -19 157.5 -33.5t81 -49.5t31.5 -88q0 -51 -58 -172t-195 -165t-261 -44q-385 0 -385 284q0 100 48 224t85 124q10 0 10 -15q0 -12 -35 -101q-35 -90 -35 -149q0 -117 71.5 -175.5t264.5 -58.5
q134 0 277 51.5t143 124.5q0 39 -33.5 64.5t-136 42t-137.5 39.5t-35 60q0 134 108 264t234 130q72 0 72 -57q0 -50 -28 -92zM401 650l8 43q47 33 76 70q-98 6 -98 90q0 58 39 114t90 56q80 0 80 -73q0 -24 -12 -48q-73 53 -105 53q-51 0 -51 -43q0 -36 52.5 -68t92.5 -32
q36 0 88 22v-73z" />
    <glyph glyph-name="afii62759" unicode="&#xfef2;&#x674;" arabic-form="final" 
d="M1229 0q-44 0 -107 4q-64 4 -140 4q-225 0 -225 -69q0 -16 70 -31q138 -29 169 -54.5t31 -54.5q0 -158 -161.5 -259t-374.5 -101q-199 0 -289 84.5t-90 254.5q0 91 47 207t84 116q18 0 18 -20q0 -16 -22 -54q-51 -91 -51 -177q0 -266 340 -266q125 0 264 34t139 83
q0 50 -126 79q-125 29 -125 70q0 132 81.5 202.5t229.5 70.5h238v-123zM487 313l8 43q47 33 76 70q-98 6 -98 90q0 58 39 114t90 56q80 0 80 -73q0 -24 -12 -48q-73 53 -105 53q-51 0 -51 -43q0 -36 52.5 -68t92.5 -32q36 0 88 22v-73z" />
    <glyph glyph-name="afii62834" unicode="&#xfedf;&#xfe82;" arabic-form="isolated" 
d="M946 1071q-27 -38 -40.5 -92.5t-15.5 -116.5l-5 -244q-8 -112 -66 -253q48 -79 57 -100.5t9 -46.5q0 -71 -23 -144.5t-61 -73.5h-315l31 127q132 31 237 224q-206 372 -449 492l-6 -43l-143 105q26 99 32 174q169 -88 338 -273.5t265 -381.5q22 76 22 133q0 230 -24 499
q31 34 64 105q44 -58 93 -90zM780 302q-73 -136 -130 -179h137q17 0 32.5 16t15.5 35q0 28 -55 128zM725 1333q0 -66 -86 -113t-168 -47q-47 0 -133 30t-123 30q-36 0 -69 -30q-34 -30 -39 -30q-4 0 -4 12q0 58 44.5 98.5t104.5 40.5q24 0 118 -29q93 -28 166 -28
q101 0 170 65q10 10 14 10q5 -1 5 -9z" />
    <glyph glyph-name="afii62835" unicode="&#xfee0;&#xfe82;" arabic-form="final" 
d="M1229 0q-174 0 -209 12.5t-59.5 56t-34.5 113t-35 377.5q-71 -394 -168.5 -517.5t-335.5 -123.5q-83 0 -98 12q288 135 373.5 216t117.5 159q-6 129 -126 266.5t-253 180.5q-6 -24 -18 -68q-46 25 -127 84q-41 40 -41 86q0 76 14 109q240 -82 399.5 -263.5t176.5 -310.5
q58 238 58 419q0 111 -19 214l78 139l39 -630q11 -167 30.5 -267t45.5 -120.5t192 -20.5v-123zM775 1286q0 -66 -86 -113t-168 -47q-47 0 -133 30t-123 30q-36 0 -69 -30q-34 -30 -39 -30q-4 0 -4 12q0 58 44.5 98.5t104.5 40.5q24 0 118 -29q93 -28 166 -28q101 0 170 65
q10 10 14 10q5 -1 5 -9z" />
    <glyph glyph-name="afii62836" unicode="&#xfedf;&#xfe84;" arabic-form="isolated" 
d="M946 1071q-27 -38 -40.5 -92.5t-15.5 -116.5l-5 -244q-8 -112 -66 -253q48 -79 57 -100.5t9 -46.5q0 -71 -23 -144.5t-61 -73.5h-315l31 127q132 31 237 224q-206 372 -449 492l-6 -43l-143 105q26 99 32 174q169 -88 338 -273.5t265 -381.5q22 76 22 133q0 230 -24 499
q31 34 64 105q44 -58 93 -90zM780 302q-73 -136 -130 -179h137q17 0 32.5 16t15.5 35q0 28 -55 128zM144 1162l8 43q47 33 76 70q-98 6 -98 90q0 58 39 114t90 56q80 0 80 -73q0 -24 -12 -48q-73 53 -105 53q-51 0 -51 -43q0 -36 52.5 -68t92.5 -32q36 0 88 22v-73z" />
    <glyph glyph-name="afii62837" unicode="&#xfee0;&#xfe84;" arabic-form="final" 
d="M1229 0q-174 0 -209 12.5t-59.5 56t-34.5 113t-35 377.5q-71 -394 -168.5 -517.5t-335.5 -123.5q-83 0 -98 12q288 135 373.5 216t117.5 159q-6 129 -126 266.5t-253 180.5q-6 -24 -18 -68q-46 25 -127 84q-41 40 -41 86q0 76 14 109q240 -82 399.5 -263.5t176.5 -310.5
q58 238 58 419q0 111 -19 214l78 139l39 -630q11 -167 30.5 -267t45.5 -120.5t192 -20.5v-123zM175 1044l8 43q47 33 76 70q-98 6 -98 90q0 58 39 114t90 56q80 0 80 -73q0 -24 -12 -48q-73 53 -105 53q-51 0 -51 -43q0 -36 52.5 -68t92.5 -32q36 0 88 22v-73z" />
    <glyph glyph-name="afii62838" unicode="&#xfedf;&#xfe88;" arabic-form="isolated" 
d="M946 1071q-27 -38 -40.5 -92.5t-15.5 -116.5l-5 -244q-8 -112 -66 -253q48 -79 57 -100.5t9 -46.5q0 -71 -23 -144.5t-61 -73.5h-315l31 127q132 31 237 224q-206 372 -449 492l-6 -43l-143 105q26 99 32 174q169 -88 338 -273.5t265 -381.5q22 76 22 133q0 230 -24 499
q31 34 64 105q44 -58 93 -90zM780 302q-73 -136 -130 -179h137q17 0 32.5 16t15.5 35q0 28 -55 128zM432 -561l8 43q47 33 76 70q-98 6 -98 90q0 58 39 114t90 56q80 0 80 -73q0 -24 -12 -48q-73 53 -105 53q-51 0 -51 -43q0 -36 52.5 -68t92.5 -32q36 0 88 22v-73z" />
    <glyph glyph-name="afii62839" unicode="&#xfee0;&#xfe88;" arabic-form="final" 
d="M1229 0q-174 0 -209 12.5t-59.5 56t-34.5 113t-35 377.5q-71 -394 -168.5 -517.5t-335.5 -123.5q-83 0 -98 12q288 135 373.5 216t117.5 159q-6 129 -126 266.5t-253 180.5q-6 -24 -18 -68q-46 25 -127 84q-41 40 -41 86q0 76 14 109q240 -82 399.5 -263.5t176.5 -310.5
q58 238 58 419q0 111 -19 214l78 139l39 -630q11 -167 30.5 -267t45.5 -120.5t192 -20.5v-123zM334 -561l8 43q47 33 76 70q-98 6 -98 90q0 58 39 114t90 56q80 0 80 -73q0 -24 -12 -48q-73 53 -105 53q-51 0 -51 -43q0 -36 52.5 -68t92.5 -32q36 0 88 22v-73z" />
    <glyph glyph-name="afii62840" unicode="&#xfedf;&#xfe8e;" arabic-form="isolated" 
d="M946 1071q-27 -38 -40.5 -92.5t-15.5 -116.5l-5 -244q-8 -112 -66 -253q48 -79 57 -100.5t9 -46.5q0 -71 -23 -144.5t-61 -73.5h-315l31 127q132 31 237 224q-206 372 -449 492l-6 -43l-143 105q26 99 32 174q169 -88 338 -273.5t265 -381.5q22 76 22 133q0 230 -24 499
q31 34 64 105q44 -58 93 -90zM780 302q-73 -136 -130 -179h137q17 0 32.5 16t15.5 35q0 28 -55 128z" />
    <glyph glyph-name="afii62841" unicode="&#xfee0;&#xfe8e;" arabic-form="final" 
d="M1229 0q-174 0 -209 12.5t-59.5 56t-34.5 113t-35 377.5q-71 -394 -168.5 -517.5t-335.5 -123.5q-83 0 -98 12q288 135 373.5 216t117.5 159q-6 129 -126 266.5t-253 180.5q-6 -24 -18 -68q-46 25 -127 84q-41 40 -41 86q0 76 14 109q240 -82 399.5 -263.5t176.5 -310.5
q58 238 58 419q0 111 -19 214l78 139l39 -630q11 -167 30.5 -267t45.5 -120.5t192 -20.5v-123z" />
    <glyph glyph-name="glyph1025" unicode="&#xfef7;&#x64e;" 
d="M946 1071q-27 -38 -40.5 -92.5t-15.5 -116.5l-5 -244q-8 -112 -66 -253q48 -79 57 -100.5t9 -46.5q0 -71 -23 -144.5t-61 -73.5h-315l31 127q132 31 237 224q-206 372 -449 492l-6 -43l-143 105q26 99 32 174q169 -88 338 -273.5t265 -381.5q22 76 22 133q0 230 -24 499
q31 34 64 105q44 -58 93 -90zM780 302q-73 -136 -130 -179h137q17 0 32.5 16t15.5 35q0 28 -55 128zM108 1578q-11 0 -11 25t13 30l248 105q9 0 11.5 -3t2.5 -17q0 -27 -14 -33zM156 1162l8 43q46 33 76 70q-98 6 -98 90q0 58 39 114t90 56q80 0 80 -73q0 -24 -12 -48
q-73 53 -105 53q-51 0 -51 -43q0 -35 52.5 -67.5t92.5 -32.5q35 0 88 22v-73z" />
    <glyph glyph-name="glyph1026" unicode="&#xfef7;&#x64b;" 
d="M946 1071q-27 -38 -40.5 -92.5t-15.5 -116.5l-5 -244q-8 -112 -66 -253q48 -79 57 -100.5t9 -46.5q0 -71 -23 -144.5t-61 -73.5h-315l31 127q132 31 237 224q-206 372 -449 492l-6 -43l-143 105q26 99 32 174q169 -88 338 -273.5t265 -381.5q22 76 22 133q0 230 -24 499
q31 34 64 105q44 -58 93 -90zM780 302q-73 -136 -130 -179h137q17 0 32.5 16t15.5 35q0 28 -55 128zM88 1738q-12 0 -12 25t14 30l248 105q9 0 11.5 -3t2.5 -19q0 -28 -14 -34zM88 1578q-11 0 -11 25t13 30l248 105q9 0 11.5 -3t2.5 -17q0 -27 -14 -33zM136 1162l8 43
q46 33 76 70q-98 6 -98 90q0 58 39 114t90 56q80 0 80 -73q0 -24 -12 -48q-73 53 -105 53q-51 0 -51 -43q0 -35 52.5 -67.5t92.5 -32.5q35 0 88 22v-73z" />
    <glyph glyph-name="glyph1034" unicode="&#xfef7;&#x652;" 
d="M946 1071q-27 -38 -40.5 -92.5t-15.5 -116.5l-5 -244q-8 -112 -66 -253q48 -79 57 -100.5t9 -46.5q0 -71 -23 -144.5t-61 -73.5h-315l31 127q132 31 237 224q-206 372 -449 492l-6 -43l-143 105q26 99 32 174q169 -88 338 -273.5t265 -381.5q22 76 22 133q0 230 -24 499
q31 34 64 105q44 -58 93 -90zM780 302q-73 -136 -130 -179h137q17 0 32.5 16t15.5 35q0 28 -55 128zM343 1744q0 -66 -52 -108t-104 -42q-46 0 -70 36.5t-24 82.5q0 68 35.5 120t97.5 52q56 0 86.5 -42t30.5 -99zM130 1744q0 -50 86 -50q73 0 73 27q0 20 -36 54t-72 34
q-51 0 -51 -65zM144 1162l8 43q46 33 76 70q-98 6 -98 90q0 59 39 114.5t90 55.5q80 0 80 -73q0 -23 -12 -48q-73 53 -105 53q-51 0 -51 -43q0 -35 52.5 -67.5t92.5 -32.5q35 0 88 22v-73z" />
    <glyph glyph-name="glyph1035" unicode="&#xfef7;&#x64f;" 
d="M946 1071q-27 -38 -40.5 -92.5t-15.5 -116.5l-5 -244q-8 -112 -66 -253q48 -79 57 -100.5t9 -46.5q0 -71 -23 -144.5t-61 -73.5h-315l31 127q132 31 237 224q-206 372 -449 492l-6 -43l-143 105q26 99 32 174q169 -88 338 -273.5t265 -381.5q22 76 22 133q0 230 -24 499
q31 34 64 105q44 -58 93 -90zM780 302q-73 -136 -130 -179h137q17 0 32.5 16t15.5 35q0 28 -55 128zM142 1162l8 43q47 33 76 70q-98 6 -98 90q0 58 39 114t90 56q80 0 80 -73q0 -24 -12 -48q-73 53 -105 53q-51 0 -51 -43q0 -36 52.5 -68t92.5 -32q36 0 88 22v-73zM32 1609
v13q142 64 197 143q-62 39 -62 88q0 45 44 107.5t83 62.5q23 0 39 -29.5t16 -64.5q0 -51 -32 -115q49 -24 49 -51v-51q-18 0 -54 15q-44 20 -51 22q-119 -148 -198 -148q-17 0 -31 8zM286 1830q17 29 17 61q0 62 -42 62q-39 0 -39 -50q0 -61 64 -73z" />
    <glyph glyph-name="glyph1036" unicode="&#xfef7;&#x64c;" 
d="M946 1071q-27 -38 -40.5 -92.5t-15.5 -116.5l-5 -244q-8 -112 -66 -253q48 -79 57 -100.5t9 -46.5q0 -71 -23 -144.5t-61 -73.5h-315l31 127q132 31 237 224q-206 372 -449 492l-6 -43l-143 105q26 99 32 174q169 -88 338 -273.5t265 -381.5q22 76 22 133q0 230 -24 499
q31 34 64 105q44 -58 93 -90zM780 302q-73 -136 -130 -179h137q17 0 32.5 16t15.5 35q0 28 -55 128zM35 1590v12q7 4 31 21q24 38 24 96q0 37 -22 37q-9 0 -29 -18q-21 -19 -26 -19q-8 0 -8 8q1 20 35.5 53t62.5 33q43 0 43 -52q0 -45 -37 -120q75 34 127 109q-58 31 -58 92
q1 51 46.5 108.5t80.5 57.5q25 0 40.5 -28t15.5 -64q0 -61 -37 -117q47 -23 47 -49l-4 -47q-33 0 -101 31q-36 -55 -96 -102.5t-105 -47.5q-20 0 -30 6zM291 1815q19 32 19 64q0 59 -44 59q-36 0 -36 -47q0 -55 61 -76zM145 1162l8 43q47 33 76 70q-98 6 -98 90
q0 59 39 114.5t90 55.5q80 0 80 -73q0 -23 -12 -48q-73 53 -105 53q-51 0 -51 -43q0 -35 52.5 -67.5t92.5 -32.5q35 0 88 22v-73z" />
    <glyph glyph-name="glyph1046" unicode="&#xfef9;&#x650;" 
d="M946 1071q-27 -38 -40.5 -92.5t-15.5 -116.5l-5 -244q-8 -112 -66 -253q48 -79 57 -100.5t9 -46.5q0 -71 -23 -144.5t-61 -73.5h-315l31 127q132 31 237 224q-206 372 -449 492l-6 -43l-143 105q26 99 32 174q169 -88 338 -273.5t265 -381.5q22 76 22 133q0 230 -24 499
q31 34 64 105q44 -58 93 -90zM780 302q-73 -136 -130 -179h137q17 0 32.5 16t15.5 35q0 28 -55 128zM431 -561l8 43q47 33 76 70q-98 6 -98 90q0 58 39 114t90 56q80 0 80 -73q0 -24 -12 -48q-73 53 -105 53q-51 0 -51 -43q1 -36 53 -68t92 -32q37 0 88 22v-73zM453 -704
q-11 -5 -11 24q0 25 13 31l248 105q9 0 11.5 -4t2.5 -18q0 -29 -14 -34z" />
    <glyph glyph-name="glyph1047" unicode="&#xfef9;&#x64d;" 
d="M946 1071q-27 -38 -40.5 -92.5t-15.5 -116.5l-5 -244q-8 -112 -66 -253q48 -79 57 -100.5t9 -46.5q0 -71 -23 -144.5t-61 -73.5h-315l31 127q132 31 237 224q-206 372 -449 492l-6 -43l-143 105q26 99 32 174q169 -88 338 -273.5t265 -381.5q22 76 22 133q0 230 -24 499
q31 34 64 105q44 -58 93 -90zM780 302q-73 -136 -130 -179h137q17 0 32.5 16t15.5 35q0 28 -55 128zM431 -561l8 43q47 33 76 70q-98 6 -98 90q0 57 39 113.5t90 56.5q80 0 80 -73q0 -24 -12 -48q-73 53 -105 53q-51 0 -51 -43q0 -36 52.5 -68t92.5 -32q37 0 88 22v-73z
M445 -708q-11 0 -11 25t13 30l248 105q9 0 11.5 -3.5t2.5 -18.5q0 -28 -14 -34zM445 -868q-11 0 -11 25t13 30l248 105q9 0 11.5 -3t2.5 -17q0 -27 -14 -33z" />
    <glyph glyph-name="glyph1051" unicode="&#xfef8;&#x64e;" 
d="M1229 0q-174 0 -209 12.5t-59.5 56t-34.5 113t-35 377.5q-71 -394 -168.5 -517.5t-335.5 -123.5q-83 0 -98 12q288 135 373.5 216t117.5 159q-6 129 -126 266.5t-253 180.5q-6 -24 -18 -68q-46 25 -127 84q-41 40 -41 86q0 76 14 109q240 -82 399.5 -263.5t176.5 -310.5
q58 238 58 419q0 111 -19 214l78 139l39 -630q11 -167 30.5 -267t45.5 -120.5t192 -20.5v-123zM128 1460q-11 0 -11 25t13 30l248 105q9 0 11.5 -3t2.5 -17q0 -27 -14 -33zM176 1044l8 43q46 33 76 70q-98 6 -98 90q0 58 39 114t90 56q80 0 80 -73q0 -24 -12 -48
q-73 53 -105 53q-51 0 -51 -43q0 -35 52.5 -67.5t92.5 -32.5q35 0 88 22v-73z" />
    <glyph glyph-name="glyph1052" unicode="&#xfef8;&#x64b;" 
d="M1229 0q-174 0 -209 12.5t-59.5 56t-34.5 113t-35 377.5q-71 -394 -168.5 -517.5t-335.5 -123.5q-83 0 -98 12q288 135 373.5 216t117.5 159q-6 129 -126 266.5t-253 180.5q-6 -24 -18 -68q-46 25 -127 84q-41 40 -41 86q0 76 14 109q240 -82 399.5 -263.5t176.5 -310.5
q58 238 58 419q0 111 -19 214l78 139l39 -630q11 -167 30.5 -267t45.5 -120.5t192 -20.5v-123zM119 1620q-12 0 -12 25t14 30l248 105q9 0 11.5 -3t2.5 -19q0 -28 -14 -34zM119 1460q-11 0 -11 25t13 30l248 105q9 0 11.5 -3t2.5 -17q0 -27 -14 -33zM167 1044l8 43
q46 33 76 70q-98 6 -98 90q0 58 39 114t90 56q80 0 80 -73q0 -24 -12 -48q-73 53 -105 53q-51 0 -51 -43q0 -35 52.5 -67.5t92.5 -32.5q35 0 88 22v-73z" />
    <glyph glyph-name="glyph1060" unicode="&#xfef8;&#x652;" 
d="M1229 0q-174 0 -209 12.5t-59.5 56t-34.5 113t-35 377.5q-71 -394 -168.5 -517.5t-335.5 -123.5q-83 0 -98 12q288 135 373.5 216t117.5 159q-6 129 -126 266.5t-253 180.5q-6 -24 -18 -68q-46 25 -127 84q-41 40 -41 86q0 76 14 109q240 -82 399.5 -263.5t176.5 -310.5
q58 238 58 419q0 111 -19 214l78 139l39 -630q11 -167 30.5 -267t45.5 -120.5t192 -20.5v-123zM377 1626q0 -66 -52 -108t-104 -42q-46 0 -70 36.5t-24 82.5q0 68 35.5 120t97.5 52q56 0 86.5 -42t30.5 -99zM164 1626q0 -50 86 -50q73 0 73 27q0 20 -36 54t-72 34
q-51 0 -51 -65zM178 1044l8 43q46 33 76 70q-98 6 -98 90q0 59 39 114.5t90 55.5q80 0 80 -73q0 -23 -12 -48q-73 53 -105 53q-51 0 -51 -43q0 -35 52.5 -67.5t92.5 -32.5q35 0 88 22v-73z" />
    <glyph glyph-name="glyph1061" unicode="&#xfef8;&#x64f;" 
d="M1229 0q-174 0 -209 12.5t-59.5 56t-34.5 113t-35 377.5q-71 -394 -168.5 -517.5t-335.5 -123.5q-83 0 -98 12q288 135 373.5 216t117.5 159q-6 129 -126 266.5t-253 180.5q-6 -24 -18 -68q-46 25 -127 84q-41 40 -41 86q0 76 14 109q240 -82 399.5 -263.5t176.5 -310.5
q58 238 58 419q0 111 -19 214l78 139l39 -630q11 -167 30.5 -267t45.5 -120.5t192 -20.5v-123zM175 1044l8 43q47 33 76 70q-98 6 -98 90q0 58 39 114t90 56q80 0 80 -73q0 -24 -12 -48q-73 53 -105 53q-51 0 -51 -43q0 -36 52.5 -68t92.5 -32q36 0 88 22v-73zM65 1491v13
q142 64 197 143q-62 39 -62 88q0 45 44 107.5t83 62.5q23 0 39 -29.5t16 -64.5q0 -51 -32 -115q49 -24 49 -51v-51q-18 0 -54 15q-44 20 -51 22q-119 -148 -198 -148q-17 0 -31 8zM319 1712q17 29 17 61q0 62 -42 62q-39 0 -39 -50q0 -61 64 -73z" />
    <glyph glyph-name="glyph1062" unicode="&#xfef8;&#x64c;" 
d="M1229 0q-174 0 -209 12.5t-59.5 56t-34.5 113t-35 377.5q-71 -394 -168.5 -517.5t-335.5 -123.5q-83 0 -98 12q288 135 373.5 216t117.5 159q-6 129 -126 266.5t-253 180.5q-6 -24 -18 -68q-46 25 -127 84q-41 40 -41 86q0 76 14 109q240 -82 399.5 -263.5t176.5 -310.5
q58 238 58 419q0 111 -19 214l78 139l39 -630q11 -167 30.5 -267t45.5 -120.5t192 -20.5v-123zM68 1472v12q7 4 31 21q24 38 24 96q0 37 -22 37q-9 0 -29 -18q-21 -19 -26 -19q-8 0 -8 8q1 20 35.5 53t62.5 33q43 0 43 -52q0 -45 -37 -120q75 34 127 109q-58 31 -58 92
q1 51 46.5 108.5t80.5 57.5q25 0 40.5 -28t15.5 -64q0 -61 -37 -117q47 -23 47 -49l-4 -47q-33 0 -101 31q-36 -55 -96 -102.5t-105 -47.5q-20 0 -30 6zM324 1697q19 32 19 64q0 59 -44 59q-36 0 -36 -47q0 -55 61 -76zM178 1044l8 43q47 33 76 70q-98 6 -98 90
q0 59 39 114.5t90 55.5q80 0 80 -73q0 -23 -12 -48q-73 53 -105 53q-51 0 -51 -43q0 -35 52.5 -67.5t92.5 -32.5q35 0 88 22v-73z" />
    <glyph glyph-name="glyph1072" unicode="&#xfefa;&#x650;" 
d="M1229 0q-174 0 -209 12.5t-59.5 56t-34.5 113t-35 377.5q-71 -394 -168.5 -517.5t-335.5 -123.5q-83 0 -98 12q288 135 373.5 216t117.5 159q-6 129 -126 266.5t-253 180.5q-6 -24 -18 -68q-46 25 -127 84q-41 40 -41 86q0 76 14 109q240 -82 399.5 -263.5t176.5 -310.5
q58 238 58 419q0 111 -19 214l78 139l39 -630q11 -167 30.5 -267t45.5 -120.5t192 -20.5v-123zM334 -561l8 43q47 33 76 70q-98 6 -98 90q0 58 39 114t90 56q80 0 80 -73q0 -24 -12 -48q-73 53 -105 53q-51 0 -51 -43q1 -36 53 -68t92 -32q37 0 88 22v-73zM356 -704
q-11 -5 -11 24q0 25 13 31l248 105q9 0 11.5 -4t2.5 -18q0 -29 -14 -34z" />
    <glyph glyph-name="glyph1073" unicode="&#xfefa;&#x64d;" 
d="M1229 0q-174 0 -209 12.5t-59.5 56t-34.5 113t-35 377.5q-71 -394 -168.5 -517.5t-335.5 -123.5q-83 0 -98 12q288 135 373.5 216t117.5 159q-6 129 -126 266.5t-253 180.5q-6 -24 -18 -68q-46 25 -127 84q-41 40 -41 86q0 76 14 109q240 -82 399.5 -263.5t176.5 -310.5
q58 238 58 419q0 111 -19 214l78 139l39 -630q11 -167 30.5 -267t45.5 -120.5t192 -20.5v-123zM334 -561l8 43q47 33 76 70q-98 6 -98 90q0 57 39 113.5t90 56.5q80 0 80 -73q0 -24 -12 -48q-73 53 -105 53q-51 0 -51 -43q0 -36 52.5 -68t92.5 -32q37 0 88 22v-73zM348 -708
q-11 0 -11 25t13 30l248 105q9 0 11.5 -3.5t2.5 -18.5q0 -28 -14 -34zM348 -868q-11 0 -11 25t13 30l248 105q9 0 11.5 -3t2.5 -17q0 -27 -14 -33z" />
    <glyph glyph-name="glyph1077" unicode="&#x623;&#x64e;" 
d="M373 1545q-11 0 -11 24q0 25 13 31l248 105q14 0 14 -21q0 -26 -14 -32zM421 1149l8 43q46 34 76 70q-98 6 -98 90q0 58 39 114t90 56q80 0 80 -73q0 -24 -12 -48q-73 53 -105 53q-51 0 -51 -43q0 -35 52.5 -67.5t92.5 -32.5q9 0 88 22v-73zM552 59q0 234 -19 480
q-19 259 -19 396l102 166l-3 -155q0 -157 5 -276q8 -186 8 -276q0 -293 -74 -335z" />
    <glyph glyph-name="glyph1078" unicode="&#x623;&#x64b;" 
d="M383 1706q-11 0 -11 24q0 25 13 31l248 105q14 0 14 -22q0 -28 -14 -34zM383 1546q-11 0 -11 24q0 25 13 31l248 105q14 0 14 -21q0 -26 -14 -32zM421 1149l8 43q46 34 76 70q-98 6 -98 90q0 58 39 114t90 56q80 0 80 -73q0 -24 -12 -48q-73 53 -105 53q-51 0 -51 -43
q0 -35 52.5 -67.5t92.5 -32.5q9 0 88 22v-73zM552 59q0 234 -19 480q-19 259 -19 396l102 166l-3 -155q0 -157 5 -276q8 -186 8 -276q0 -293 -74 -335z" />
    <glyph glyph-name="glyph1086" unicode="&#x623;&#x652;" 
d="M633 1744q0 -66 -52 -108t-104 -42q-43 0 -68.5 34t-25.5 85q0 67 35 119.5t98 52.5q55 0 86 -42t31 -99zM420 1744q0 -50 86 -50q73 0 73 27q0 19 -36 53.5t-72 34.5q-51 0 -51 -65zM421 1149l8 43q46 34 76 70q-98 6 -98 90q0 58 39 114t90 56q80 0 80 -73
q0 -24 -12 -48q-73 53 -105 53q-51 0 -51 -43q0 -35 52.5 -67.5t92.5 -32.5q9 0 88 22v-73zM552 59q0 234 -19 480q-19 259 -19 396l102 166l-3 -155q0 -157 5 -276q8 -186 8 -276q0 -293 -74 -335z" />
    <glyph glyph-name="glyph1087" unicode="&#x623;&#x64f;" 
d="M273 1528v13q142 64 197 143q-62 39 -62 88q0 45 44 107.5t83 62.5q23 0 39 -29.5t16 -64.5q0 -51 -32 -115q49 -24 49 -51v-51q-18 0 -54 15q-44 20 -51 22q-119 -148 -198 -148q-17 0 -31 8zM527 1749q17 29 17 61q0 62 -42 62q-38 0 -38 -50q0 -61 63 -73zM421 1149
l8 43q46 34 76 70q-98 6 -98 90q0 58 39 114t90 56q80 0 80 -73q0 -24 -12 -48q-73 53 -105 53q-51 0 -51 -43q0 -35 52.5 -67.5t92.5 -32.5q9 0 88 22v-73zM552 59q0 234 -19 480q-19 259 -19 396l102 166l-3 -155q0 -157 5 -276q8 -186 8 -276q0 -293 -74 -335z" />
    <glyph glyph-name="glyph1088" unicode="&#x623;&#x64c;" 
d="M268 1521v12q7 4 31 21q24 37 24 96q0 37 -22 37q-9 0 -30 -19q-21 -18 -25 -18q-8 0 -8 8q0 20 34.5 53t63.5 33q43 0 43 -52q0 -45 -37 -120q74 34 127 109q-58 30 -58 92q0 50 46 108t81 58q24 0 40 -28t16 -64q0 -62 -37 -117q47 -24 47 -49l-4 -47q-34 0 -101 31
q-107 -150 -202 -150q-19 0 -29 6zM524 1746q18 32 18 64q0 59 -43 59q-36 0 -36 -47q0 -55 61 -76zM421 1149l8 43q46 34 76 70q-98 6 -98 90q0 58 39 114t90 56q80 0 80 -73q0 -24 -12 -48q-73 53 -105 53q-51 0 -51 -43q0 -35 52.5 -67.5t92.5 -32.5q9 0 88 22v-73z
M552 59q0 234 -19 480q-19 259 -19 396l102 166l-3 -155q0 -157 5 -276q8 -186 8 -276q0 -293 -74 -335z" />
    <glyph glyph-name="glyph1098" unicode="&#x625;&#x650;" 
d="M552 59q0 240 -20 513q-20 287 -20 423l104 166l-3 -155q0 -167 5 -306q8 -218 8 -306q0 -293 -74 -335zM460 -487l8 43q47 33 76 70q-98 6 -98 90q0 58 39 114t90 56q80 0 80 -73q0 -24 -12 -48q-73 53 -105 53q-51 0 -51 -43q1 -36 53 -68t92 -32q37 0 88 22v-73z
M482 -630q-11 -5 -11 24q0 25 13 31l248 105q9 0 11.5 -4t2.5 -18q0 -29 -14 -34z" />
    <glyph glyph-name="glyph1099" unicode="&#x625;&#x64d;" 
d="M552 59q0 240 -20 513q-20 287 -20 423l104 166l-3 -155q0 -167 5 -306q8 -218 8 -306q0 -293 -74 -335zM460 -487l8 43q47 33 76 70q-98 6 -98 90q0 57 39 113.5t90 56.5q80 0 80 -73q0 -24 -12 -48q-73 53 -105 53q-51 0 -51 -43q0 -36 52.5 -68t92.5 -32q37 0 88 22
v-73zM474 -634q-11 0 -11 25t13 30l248 105q9 0 11.5 -3.5t2.5 -18.5q0 -28 -14 -34zM474 -794q-11 0 -11 25t13 30l248 105q9 0 11.5 -3t2.5 -17q0 -27 -14 -33z" />
    <glyph glyph-name="glyph1120" unicode="&#xfe84;&#x64e;" 
d="M338 1549q-11 0 -11 24q0 25 13 31l248 105q14 0 14 -21q0 -26 -14 -32zM401 1149l8 43q46 34 76 70q-98 6 -98 90q0 58 39 114t90 56q80 0 80 -73q0 -24 -12 -48q-73 53 -105 53q-51 0 -51 -43q0 -35 52.5 -67.5t92.5 -32.5q9 0 88 22v-73zM1229 0h-402
q-127 0 -179.5 13t-80 74.5t-27.5 166.5q0 69 5 200q5 130 5 207q0 219 -36 313l82 107q32 -91 32 -309q0 -136 -9 -314q-5 -98 -5 -151q0 -86 23 -135t92 -49h500v-123z" />
    <glyph glyph-name="glyph1121" unicode="&#xfe84;&#x64b;" 
d="M338 1709q-11 0 -11 24q0 25 13 31l248 105q14 0 14 -22q0 -28 -14 -34zM338 1549q-11 0 -11 24q0 25 13 31l248 105q14 0 14 -21q0 -26 -14 -32zM401 1149l8 43q46 34 76 70q-98 6 -98 90q0 58 39 114t90 56q80 0 80 -73q0 -24 -12 -48q-73 53 -105 53q-51 0 -51 -43
q0 -35 52.5 -67.5t92.5 -32.5q9 0 88 22v-73zM1229 0h-402q-127 0 -179.5 13t-80 74.5t-27.5 166.5q0 69 5 200q5 130 5 207q0 219 -36 313l82 107q32 -91 32 -309q0 -136 -9 -314q-5 -98 -5 -151q0 -86 23 -135t92 -49h500v-123z" />
    <glyph glyph-name="glyph1122" unicode="&#xfe84;&#x652;" 
d="M594 1754q0 -66 -52 -108t-104 -42q-43 0 -68.5 34t-25.5 85q0 67 35 119.5t98 52.5q56 0 86.5 -42.5t30.5 -98.5zM381 1754q0 -50 86 -50q73 0 73 27q0 19 -36 53.5t-72 34.5q-51 0 -51 -65zM401 1149l8 43q46 34 76 70q-98 6 -98 90q0 58 39 114t90 56q80 0 80 -73
q0 -24 -12 -48q-73 53 -105 53q-51 0 -51 -43q0 -35 52.5 -67.5t92.5 -32.5q9 0 88 22v-73zM1229 0h-402q-127 0 -179.5 13t-80 74.5t-27.5 166.5q0 69 5 200q5 130 5 207q0 219 -36 313l82 107q32 -91 32 -309q0 -136 -9 -314q-5 -98 -5 -151q0 -86 23 -135t92 -49h500
v-123z" />
    <glyph glyph-name="glyph1123" unicode="&#xfe84;&#x64f;" 
d="M243 1527v13q142 64 197 143q-62 39 -62 88q0 45 44 107.5t83 62.5q23 0 39 -29.5t16 -64.5q0 -51 -32 -115q49 -24 49 -51v-51q-18 0 -54 15q-44 20 -51 22q-119 -148 -198 -148q-17 0 -31 8zM497 1748q17 29 17 61q0 62 -42 62q-38 0 -38 -50q0 -61 63 -73zM401 1149
l8 43q46 34 76 70q-98 6 -98 90q0 58 39 114t90 56q80 0 80 -73q0 -24 -12 -48q-73 53 -105 53q-51 0 -51 -43q0 -35 52.5 -67.5t92.5 -32.5q9 0 88 22v-73zM1229 0h-402q-127 0 -179.5 13t-80 74.5t-27.5 166.5q0 69 5 200q5 130 5 207q0 219 -36 313l82 107
q32 -91 32 -309q0 -136 -9 -314q-5 -98 -5 -151q0 -86 23 -135t92 -49h500v-123z" />
    <glyph glyph-name="glyph1124" unicode="&#xfe84;&#x64c;" 
d="M248 1522v12q7 4 31 21q24 37 24 96q0 37 -22 37q-9 0 -30 -19q-21 -18 -25 -18q-8 0 -8 8q0 20 34.5 53t63.5 33q43 0 43 -52q0 -45 -37 -120q74 34 127 109q-58 30 -58 92q0 50 46 108t81 58q24 0 40 -28t16 -64q0 -62 -37 -117q47 -24 47 -49l-4 -47q-34 0 -101 31
q-107 -150 -202 -150q-19 0 -29 6zM504 1747q18 32 18 64q0 59 -43 59q-36 0 -36 -47q0 -55 61 -76zM401 1149l8 43q46 34 76 70q-98 6 -98 90q0 58 39 114t90 56q80 0 80 -73q0 -24 -12 -48q-73 53 -105 53q-51 0 -51 -43q0 -35 52.5 -67.5t92.5 -32.5q9 0 88 22v-73z
M1229 0h-402q-127 0 -179.5 13t-80 74.5t-27.5 166.5q0 69 5 200q5 130 5 207q0 219 -36 313l82 107q32 -91 32 -309q0 -136 -9 -314q-5 -98 -5 -151q0 -86 23 -135t92 -49h500v-123z" />
    <glyph glyph-name="glyph1125" unicode="&#xfe88;&#x650;" 
d="M1229 0h-402q-86 0 -137.5 6t-75.5 17t-49 71.5t-25 159.5q0 70 5 200t5 207q0 263 -46 383l82 107q42 -120 42 -380v-2l-1 -58l-2 -115q-1 -30 -6 -138q-5 -98 -5 -151q0 -86 23 -135t92 -49h500v-123zM529 -514l8 43q47 33 76 70q-98 6 -98 90q0 58 39 114t90 56
q80 0 80 -73q0 -24 -12 -48q-73 53 -105 53q-51 0 -51 -43q1 -36 53 -68t92 -32q37 0 88 22v-73zM551 -657q-11 -5 -11 24q0 25 13 31l248 105q9 0 11.5 -4t2.5 -18q0 -29 -14 -34z" />
    <glyph glyph-name="glyph1126" unicode="&#xfe88;&#x64d;" 
d="M1229 0h-402q-86 0 -137.5 6t-75.5 17t-49 71.5t-25 159.5q0 70 5 200t5 207q0 263 -46 383l82 107q42 -120 42 -380v-2l-1 -58l-2 -115q-1 -30 -6 -138q-5 -98 -5 -151q0 -86 23 -135t92 -49h500v-123zM533 -514l8 43q47 33 76 70q-98 6 -98 90q0 57 39 113.5t90 56.5
q80 0 80 -73q0 -24 -12 -48q-73 53 -105 53q-51 0 -51 -43q0 -36 52.5 -68t92.5 -32q37 0 88 22v-73zM547 -661q-11 0 -11 25t13 30l248 105q9 0 11.5 -3.5t2.5 -18.5q0 -28 -14 -34zM547 -821q-11 0 -11 25t13 30l248 105q9 0 11.5 -3t2.5 -17q0 -27 -14 -33z" />
    <glyph glyph-name="afii57506" unicode="&#x67e;" arabic-form="isolated" 
d="M1001 8q-70 -8 -253 -8h-265q-267 0 -356.5 51t-89.5 154q0 109 50 210t75 101q9 0 9 -12q0 -9 -13 -34q-47 -91 -47 -151q0 -196 362 -196h401q51 0 111 19.5t89.5 40.5t29.5 44q0 165 -103 283l66 172q117 -195 117 -340q0 -227 -183 -334zM697 -249l-108 -110
l-110 111l110 109l100 -99l109 107l110 -109l-110 -111zM803 -451l-110 -110l-110 110l110 109z" />
    <glyph glyph-name="afii62958" unicode="&#x67e;" arabic-form="final" 
d="M1229 123v-123q-103 0 -148 45t-81 165q-18 -70 -89.5 -140t-148.5 -70h-279q-267 0 -356.5 51t-89.5 154q0 109 50 210t75 101q9 0 9 -12q0 -9 -13 -34q-47 -91 -47 -151q0 -196 362 -196h279q86 0 137 42t51 98q0 132 -66 264l82 144q64 -148 64.5 -252t24.5 -168.5
t70 -96t114 -31.5zM603 -249l-108 -110l-110 111l110 109l100 -99l109 107l110 -109l-110 -111zM709 -451l-110 -110l-110 110l110 109z" />
    <glyph glyph-name="afii62956" unicode="&#x67e;" arabic-form="initial" 
d="M0 0v123h885q71 0 146.5 32t75.5 65q0 178 -104 292l68 170q116 -174 116 -366q0 -102 -65 -209t-158 -107h-964zM981 -249l-108 -110l-110 111l110 109l100 -99l109 107l110 -109l-110 -111zM1087 -451l-110 -110l-110 110l110 109z" />
    <glyph glyph-name="afii52957" unicode="&#x67e;" arabic-form="medial" 
d="M1229 0h-76q-108 0 -180.5 12t-122 65.5t-86.5 135.5q-21 -72 -90 -142.5t-133 -70.5h-541v123h526q64 0 121 39.5t57 107.5q0 107 -64 259l83 144q63 -172 63 -268q0 -127 69 -204.5t192 -77.5h182v-123zM752 -249l-108 -110l-110 111l110 109l100 -99l109 107l110 -109
l-110 -111zM858 -451l-110 -110l-110 110l110 109z" />
    <glyph glyph-name="afii57505" unicode="&#x6a4;" arabic-form="isolated" 
d="M1129 351q-75 -53 -152 -53q-70 0 -119.5 24t-49.5 68q0 125 61 268t148 143t139.5 -134t52.5 -277t-32 -233t-110.5 -127t-326.5 -37h-270q-289 0 -374 56t-85 159q0 85 44.5 191.5t85.5 106.5q12 0 12 -18q0 -16 -31 -81q-31 -64 -31 -101q0 -93 86 -141.5t356 -48.5
h171q315 0 373.5 47.5t58.5 124.5q0 23 -7 63zM1096 467q-42 209 -109 209q-48 0 -80.5 -66.5t-32.5 -130.5q0 -55 91 -55q45 0 131 43zM1074 1290l-110 -110l-110 110l110 109zM968 1077l-108 -109l-110 111l110 109l100 -100l109 108l110 -109l-110 -111z" />
    <glyph glyph-name="afii62889" unicode="&#x6a4;" arabic-form="final" 
d="M1229 0q-133 0 -200 56q-98 -71 -220 -97.5t-354 -26.5q-170 0 -264 17.5t-139.5 66.5t-45.5 130q0 76 45 187.5t77 111.5q11 0 11 -20q0 -7 -28 -71q-27 -64 -27 -109q0 -75 61.5 -129t335.5 -54q234 0 325 9t141 41q-134 129 -134 243q0 70 89.5 181.5t154.5 111.5
q46 0 79 -52t33 -107q0 -234 -73 -332q36 -34 133 -34v-123zM1081 425q0 39 -22.5 70t-55.5 31q-36 0 -72.5 -41.5t-36.5 -77.5q0 -41 38 -106.5t81 -108.5q68 81 68 233zM1123 1137l-110 -110l-110 110l110 109zM1017 924l-108 -109l-110 111l110 109l100 -100l109 108
l110 -109l-110 -111z" />
    <glyph glyph-name="afii62887" unicode="&#x6a4;" arabic-form="initial" 
d="M0 0v123h856q110 0 168.5 11.5t85 50.5t26.5 103q0 23 -7 63q-91 -53 -152 -53q-60 0 -114.5 25.5t-54.5 66.5q0 125 61 268t148 143q90 0 140 -125.5t50 -305.5q0 -133 -31 -213t-76 -111.5t-92 -38.5t-226 -7h-782zM1096 467q-42 209 -109 209q-48 0 -80.5 -66.5
t-32.5 -130.5q0 -55 97 -55q39 0 125 43zM1073 1267l-110 -110l-110 110l110 109zM967 1054l-108 -109l-110 111l110 109l100 -100l109 108l110 -109l-110 -111z" />
    <glyph glyph-name="afii62888" unicode="&#x6a4;" arabic-form="medial" 
d="M629 123q249 0 318 50q-134 129 -134 243q0 69 85 181t159 112q49 0 81.5 -59t32.5 -121q0 -228 -86 -336q52 -70 144 -70v-123q-116 0 -211 113q-115 -113 -427 -113h-591v123h629zM1080 486q0 40 -22 71t-55 31q-34 0 -72 -41.5t-38 -78.5q0 -41 38 -106.5t81 -108.5
q68 81 68 233zM1085 1185l-110 -110l-110 110l110 109zM979 972l-108 -109l-110 111l110 109l100 -100l109 108l110 -109l-110 -111z" />
    <glyph glyph-name="afii57507" unicode="&#x686;" arabic-form="isolated" 
d="M1211 -340q0 -78 -167 -161q-145 -60 -236 -60q-234 0 -380 115q-156 123 -156 304q0 167 164 320q138 114 314 154q-25 6 -89 35q-52 24 -87 24q-161 0 -222 -68q-21 -24 -31 -24q-9 0 -9 24q0 93 103 158q91 57 188 57q28 0 193.5 -66.5t266.5 -66.5l-44 -131
q-220 0 -409 -99q-226 -119 -226 -294q0 -149 147 -244q136 -67 271 -67q123 0 257.5 45t151.5 45zM812 -9l-108 -110l-110 111l110 109l100 -99l109 107l110 -109l-110 -111zM918 -211l-110 -110l-110 110l110 109z" />
    <glyph glyph-name="afii62961" unicode="&#x686;" arabic-form="final" 
d="M1230 0h-338q-84 0 -116 48q-27 39 -27 128q0 70 17 146q-152 -35 -312 -158q-195 -155 -195 -313q0 -139 149 -220q122 -61 297 -61q99 0 233 38q22 6 151 47q0 -72 -179 -153q-145 -63 -232 -63q-224 0 -365 106q-155 117 -155 273q0 201 243 391q155 118 338 176
q-75 52 -187.5 105t-163.5 53q-66 0 -102.5 -40t-41.5 -40q-9 0 -9 20q0 70 64 126q62 53 133 53q73 0 174 -55l155 -84q137 -74 276 -74l-59 -123q-54 9 -100 9q-26 0 -49 -3q-8 -34 -8 -89q0 -120 128 -120h281v-123zM587 -89l-85 -87l-87 87l87 86l79 -78l86 85l86 -86
l-86 -88zM671 -249l-87 -86l-87 86l87 86z" />
    <glyph glyph-name="afii62959" unicode="&#x686;" arabic-form="initial" 
d="M1199 402l-51 -126q-153 0 -217.5 -7.5t-132 -39.5t-150.5 -92q-111 -80 -180 -108.5t-222 -28.5h-246v123h353q81 0 263 110q204 124 269 141q-246 167 -320 167q-76 0 -121 -67q-9 -13 -21 -13q-9 0 -9 18q0 54 56.5 114.5t141.5 60.5q70 0 166 -66l165 -111
q48 -32 116.5 -53.5t139.5 -21.5zM721 -249l-108 -110l-110 111l110 109l100 -99l109 107l110 -109l-110 -111zM827 -451l-110 -110l-110 110l110 109z" />
    <glyph glyph-name="afii62960" unicode="&#x686;" arabic-form="medial" 
d="M1229 0h-338q-83 0 -113 44.5t-30 139.5q0 62 19 138q-63 -22 -257 -182q-170 -140 -262 -140h-248v123h236q75 0 209 87q207 134 294 176q-256 156 -354 156q-60 0 -99 -40q-40 -40 -43 -40q-8 0 -8 16q0 64 56.5 124t141.5 60q76 0 267 -107q190 -107 335 -107
l-58 -121q-38 9 -79 9q-36 0 -69 -5q-7 -54 -7 -86q0 -55 22 -88.5t127 -33.5h258v-123zM616 -249l-108 -110l-110 111l110 109l100 -99l109 107l110 -109l-110 -111zM722 -451l-110 -110l-110 110l110 109z" />
    <glyph glyph-name="afii57508" unicode="&#x698;" arabic-form="isolated" 
d="M727 494l63 170q168 -157 168 -486q0 -149 -58.5 -286t-160 -224.5t-192.5 -87.5q-106 0 -170 19l-185 55q-48 14 -48 41t25 27q7 0 88 -16q81 -15 169 -15q100 0 218.5 80.5t187.5 178t69 150.5q0 214 -174 394zM832 1146l-110 -110l-110 110l110 109zM726 933
l-108 -109l-110 111l110 109l100 -100l109 108l110 -109l-110 -111z" />
    <glyph glyph-name="afii62962" unicode="&#x698;" arabic-form="final" 
d="M1113 0q-80 0 -124.5 26.5t-76.5 95.5q-17 -233 -150 -388.5t-258 -155.5q-106 0 -170 19l-185 55q-48 14 -48 41q0 26 25 26q7 0 88 -15t169 -15q100 0 219 81t187 179t68 151q0 78 -17.5 163t-106.5 239l63 170q78 -121 110 -366q37 -183 207 -183h116v-123h-116z
M842 1116l-110 -110l-110 110l110 109zM736 903l-108 -109l-110 111l110 109l100 -100l109 108l110 -109l-110 -111z" />
    <glyph glyph-name="afii57567" unicode="&#x6a9;" arabic-form="isolated" 
d="M1229 1154l-51 -121l-258 -126q-131 -64 -176 -94t-45 -57q0 -22 165 -174q90 -83 137 -132t59 -76.5t19 -66.5t7 -84q0 -81 -8 -119t-34 -67t-141.5 -39.5t-319.5 -10.5q-425 0 -502.5 58t-77.5 158q0 83 49 191t84 108q7 0 7 -6q0 -7 -33 -79t-33 -116q0 -80 44 -122
t137.5 -55t320.5 -13q153 1 276.5 6t145.5 23t22 61q0 93 -276 337q-134 119 -140 135t-6 61q0 79 97.5 168t530.5 252zM242 429q11 16 114 40q95 23 95 44q0 20 -73 28q-74 8 -74 52q0 54 43.5 130.5t80.5 76.5q36 0 36 -25q0 -41 -22 -68q-16 15 -40 15q-21 0 -37 -19.5
t-16 -37.5q0 -29 80 -40q79 -11 79 -67q1 -41 -23 -80t-43.5 -54t-66.5 -15q-132 0 -133 20z" />
    <glyph glyph-name="afii62964" unicode="&#x6a9;" arabic-form="final" 
d="M583 -13h-12q-375 0 -471.5 48t-96.5 168q0 83 49 191t84 108q7 0 7 -6q0 -7 -33 -79t-33 -116q0 -81 44.5 -122.5t137 -54.5t320.5 -13q164 0 219 6.5t86 34t31 60.5q0 92 -228 294l-48 43q-110 99 -121 115t-11 50q0 44 27.5 97t64.5 84.5t174.5 102.5t366.5 158
l-49 -118l-276 -135q-207 -101 -207 -141q0 -32 87 -115q201 -191 253 -273q14 -21 85 -113t109.5 -115t71.5 -23h15v-123h-14q-151 0 -259 195q-29 -126 -106.5 -167t-266.5 -41zM210 365q11 16 114 41q95 22 95 43q0 20 -73 28q-74 8 -74 52q1 55 44 131t80 76
q35 0 35 -25q0 -41 -21 -68q-16 15 -40 15q-19 0 -35.5 -18.5t-17.5 -38.5q0 -29 80 -40q79 -11 79 -67q0 -41 -24 -81t-44 -54t-65 -14q-132 0 -133 20z" />
    <glyph glyph-name="afii52305" unicode="&#x6a9;" arabic-form="initial" 
d="M1229 1160l-49 -118l-276 -135q-207 -101 -207 -141q0 -36 157 -177q160 -143 193.5 -197.5t33.5 -163.5q0 -152 -47.5 -189.5t-180.5 -38.5h-853v123h415h270q130 0 219 6.5t102 17.5t13 41q0 107 -243 323l-29 26q-132 118 -141.5 133.5t-9.5 47.5q0 45 27.5 97.5
t64.5 84t174 102.5t367 158z" />
    <glyph glyph-name="afii52306" unicode="&#x6a9;" arabic-form="medial" 
d="M650 123q24 0 57.5 26.5t33.5 67.5q0 91 -227 292l-48 43q-109 98 -120.5 114t-11.5 51q0 44 27.5 97t64.5 84.5t174.5 102.5t366.5 158l-49 -118l-276 -135q-207 -101 -207 -141q0 -32 87 -115q200 -191 253 -273q12 -18 84.5 -112.5t119 -118t92.5 -23.5h158v-123h-29
q-118 0 -190.5 17.5t-129 62.5t-97.5 119q-46 -199 -240 -199h-543v123h650z" />
    <glyph glyph-name="afii57509" unicode="&#x6af;" arabic-form="isolated" 
d="M1204 1239l-32 -92q-209 -69 -574 -264l23 90q352 180 583 266zM1229 1036l-53 -129l-265 -108q-211 -86 -211 -123q0 -13 48 -40q70 -39 188 -134.5t131.5 -159.5t13.5 -113q0 -80 -7 -117t-33 -67.5t-144.5 -42.5t-329.5 -12q-366 0 -461.5 48.5t-95.5 168.5
q0 83 49 191t84 108q7 0 7 -6q0 -7 -33 -79t-33 -116q0 -80 44 -122.5t131.5 -55t303.5 -12.5q172 0 291.5 6t141.5 24t22 62q0 46 -68 128t-201 150q-111 57 -132 70t-21 59q0 102 93 177.5t540 244.5z" />
    <glyph glyph-name="afii62967" unicode="&#x6af;" arabic-form="final" 
d="M1026 1255l-32 -92q-202 -67 -576 -267l23 90q362 186 585 269zM1043 1067l-49 -118l-276 -135q-201 -98 -201 -138q0 -12 50 -41q194 -116 302 -258l110 -145q38 -48 69 -69.5t59 -30.5t58 -9h64v-123h-13q-148 0 -223 60t-117 139q-47 -207 -274 -207q-263 0 -372.5 13
t-164.5 61.5t-55 140.5q0 83 49 191t84 108q7 0 7 -6q0 -7 -33 -79t-33 -116q0 -79 43.5 -122t128 -55t304.5 -12q105 0 154 5t82 27t33 60q0 55 -81.5 150.5t-234.5 164.5q-75 33 -88.5 48.5t-14.5 53.5q0 45 27.5 97.5t64.5 84t174.5 102.5t366.5 158z" />
    <glyph glyph-name="afii62965" unicode="&#x6af;" arabic-form="initial" 
d="M1223 1247l-31 -92q-211 -69 -575 -264l24 90q354 181 582 266zM1229 1044l-53 -129l-267 -108q-210 -85 -210 -123q0 -13 48 -39q63 -34 148.5 -102t117.5 -100.5t49 -84t17 -120.5q0 -96 -9.5 -134.5t-39 -59.5t-115.5 -32.5t-231 -11.5h-684v123h643q148 0 239.5 7
t112.5 23t21 54q0 54 -68 137t-200 150q-107 55 -129.5 68t-22.5 61q0 101 92.5 176.5t540.5 244.5z" />
    <glyph glyph-name="afii62966" unicode="&#x6af;" arabic-form="medial" 
d="M937 1252l-31 -92q-211 -70 -575 -264l24 90q355 181 582 266zM0 123h649q24 0 54.5 23t30.5 62q0 55 -82.5 151t-233.5 164q-75 33 -89 48.5t-14 53.5q1 45 28.5 97.5t64.5 84t174 102.5t366 158l-49 -118l-276 -135q-201 -98 -201 -138q0 -12 50 -41q194 -115 302 -258
q126 -169 176 -211.5t120 -42.5h159v-123h-30q-149 0 -217 24t-116 67t-84 108q-46 -199 -240 -199h-542v123z" />
    <glyph glyph-name="afii57555" unicode="&#x6cc;" arabic-form="isolated" 
d="M1043 516q-35 26 -86 26q-57 0 -154.5 -61.5t-97.5 -120.5q0 -35 94 -52q108 -19 157.5 -33.5t81 -49.5t31.5 -88q0 -51 -58 -172t-195 -165t-261 -44q-385 0 -385 284q0 100 48 224t85 124q10 0 10 -15q0 -12 -35 -101q-35 -90 -35 -149q0 -117 71.5 -175.5t264.5 -58.5
q134 0 277 51.5t143 124.5q0 39 -33.5 64.5t-136 42t-137.5 39.5t-35 60q0 134 108 264t234 130q72 0 72 -57q0 -50 -28 -92z" />
    <glyph glyph-name="afii52364" unicode="&#x6cc;" arabic-form="final" 
d="M1229 0q-44 0 -107 4q-64 4 -140 4q-225 0 -225 -69q0 -16 70 -31q138 -29 169 -54.5t31 -54.5q0 -158 -161.5 -259t-374.5 -101q-199 0 -289 84.5t-90 254.5q0 91 47 207t84 116q18 0 18 -20q0 -16 -22 -54q-51 -91 -51 -177q0 -266 340 -266q125 0 264 34t139 83
q0 50 -126 79q-125 29 -125 70q0 132 81.5 202.5t229.5 70.5h238v-123z" />
    <glyph glyph-name="afii52399" unicode="&#x621;" arabic-form="isolated" 
d="M962 312l-383 -177l12 64q70 36 111 86h-15q-174 0 -174 130q0 92 63.5 177.5t145.5 85.5q88 0 88 -91q0 -57 -7 -96q-94 46 -116 54t-51 8q-59 0 -59 -47q0 -51 94.5 -93t163.5 -42q54 0 127 42v-101z" />
    <glyph glyph-name="afii62757" unicode="&#x626;" arabic-form="initial" 
d="M0 0v123h885q71 0 146.5 32t75.5 65q0 178 -104 292l68 170q116 -174 116 -366q0 -102 -65 -209t-158 -107h-964zM843 759l8 43q47 33 76 70q-98 6 -98 90q0 58 39 114t90 56q80 0 80 -73q0 -24 -12 -48q-73 53 -105 53q-51 0 -51 -43q0 -36 52.5 -68t92.5 -32
q36 0 88 22v-73z" />
    <glyph glyph-name="afii62758" unicode="&#x626;" arabic-form="medial" 
d="M1229 0h-76q-108 0 -180.5 12t-122 65.5t-86.5 135.5q-21 -72 -90 -142.5t-133 -70.5h-541v123h526q64 0 121 39.5t57 107.5q0 107 -64 259l83 144q63 -172 63 -268q0 -127 69 -204.5t192 -77.5h182v-123zM545 756l8 43q47 33 76 70q-98 6 -98 90q0 58 39 114t90 56
q80 0 80 -73q0 -24 -12 -48q-73 53 -105 53q-51 0 -51 -43q0 -36 52.5 -68t92.5 -32q36 0 88 22v-73z" />
    <glyph glyph-name="afii57415" unicode="&#x627;" arabic-form="isolated" 
d="M552 59q0 240 -20 513q-20 287 -20 423l104 166l-3 -155q0 -167 5 -306q8 -218 8 -306q0 -293 -74 -335z" />
    <glyph glyph-name="afii62760" unicode="&#x627;" arabic-form="final" 
d="M1229 0h-402q-86 0 -137.5 6t-75.5 17t-49 71.5t-25 159.5q0 70 5 200t5 207q0 263 -46 383l82 107q42 -120 42 -380v-2l-1 -58l-2 -115q-1 -30 -6 -138q-5 -98 -5 -151q0 -86 23 -135t92 -49h500v-123z" />
    <glyph glyph-name="afii57416" unicode="&#x628;" arabic-form="isolated" 
d="M1001 8q-70 -8 -253 -8h-265q-267 0 -356.5 51t-89.5 154q0 109 50 210t75 101q9 0 9 -12q0 -9 -13 -34q-47 -91 -47 -151q0 -196 362 -196h401q51 0 111 19.5t89.5 40.5t29.5 44q0 165 -103 283l66 172q117 -195 117 -340q0 -227 -183 -334zM775 -321l-109 -110
l-111 110l111 109z" />
    <glyph glyph-name="afii62763" unicode="&#x628;" arabic-form="final" 
d="M1229 123v-123q-103 0 -148 45t-81 165q-18 -70 -89.5 -140t-148.5 -70h-279q-267 0 -356.5 51t-89.5 154q0 109 50 210t75 101q9 0 9 -12q0 -9 -13 -34q-47 -91 -47 -151q0 -196 362 -196h279q86 0 137 42t51 98q0 132 -66 264l82 144q64 -148 64.5 -252t24.5 -168.5
t70 -96t114 -31.5zM631 -342l-109 -110l-111 110l111 109z" />
    <glyph glyph-name="afii62761" unicode="&#x628;" arabic-form="initial" 
d="M0 0v123h885q71 0 146.5 32t75.5 65q0 178 -104 292l68 170q116 -174 116 -366q0 -102 -65 -209t-158 -107h-964zM1070 -299l-109 -110l-111 110l111 109z" />
    <glyph glyph-name="afii62762" unicode="&#x628;" arabic-form="medial" 
d="M1229 0h-76q-108 0 -180.5 12t-122 65.5t-86.5 135.5q-21 -72 -90 -142.5t-133 -70.5h-541v123h526q64 0 121 39.5t57 107.5q0 107 -64 259l83 144q63 -172 63 -268q0 -127 69 -204.5t192 -77.5h182v-123zM886 -335l-109 -110l-111 110l111 109z" />
    <glyph glyph-name="afii57417" unicode="&#x629;" arabic-form="isolated" 
d="M612 547q-17 9 -63 9q35 89 50 108t46 19q91 0 188 -100.5t97 -224.5q0 -121 -31.5 -204.5t-78.5 -123t-146 -38.5q-81 0 -127.5 54.5t-47.5 147.5q1 83 20.5 154.5t92.5 198.5zM676 517q-105 -167 -105 -223q0 -176 133 -176q143 0 143 144q0 109 -44 160.5t-127 94.5z
M674 960l-108 -109l-110 111l110 109l100 -100l109 108l110 -109l-110 -111z" />
    <glyph glyph-name="afii62764" unicode="&#x629;" arabic-form="final" 
d="M1229 0h-255q-56 0 -90 16t-50 44.5t-19.5 54t-12.5 163.5l-89 -75q-200 8 -262.5 22t-62.5 29q0 81 50.5 158t346.5 160q-11 122 -31 166l86 115q20 -342 53 -701q20 -29 58 -29h278v-123zM798 348l-9 149q-102 -23 -197 -64.5t-95 -76.5q0 -11 18 -16.5t86 -13.5
t104 -8q26 0 93 30zM750 1079l-108 -109l-110 111l110 109l100 -100l109 108l110 -109l-110 -111z" />
    <glyph glyph-name="afii57418" unicode="&#x62a;" arabic-form="isolated" 
d="M1001 8q-70 -8 -253 -8h-265q-267 0 -356.5 51t-89.5 154q0 109 50 210t75 101q9 0 9 -12q0 -9 -13 -34q-47 -91 -47 -151q0 -196 362 -196h401q51 0 111 19.5t89.5 40.5t29.5 44q0 165 -103 283l66 172q117 -195 117 -340q0 -227 -183 -334zM662 783l-108 -109l-110 111
l110 109l100 -100l109 108l110 -109l-110 -111z" />
    <glyph glyph-name="afii62767" unicode="&#x62a;" arabic-form="final" 
d="M1229 123v-123q-103 0 -148 45t-81 165q-18 -70 -89.5 -140t-148.5 -70h-279q-267 0 -356.5 51t-89.5 154q0 109 50 210t75 101q9 0 9 -12q0 -9 -13 -34q-47 -91 -47 -151q0 -196 362 -196h279q86 0 137 42t51 98q0 132 -66 264l82 144q64 -148 64.5 -252t24.5 -168.5
t70 -96t114 -31.5zM587 783l-108 -109l-110 111l110 109l100 -100l109 108l110 -109l-110 -111z" />
    <glyph glyph-name="afii62765" unicode="&#x62a;" arabic-form="initial" 
d="M0 0v123h885q71 0 146.5 32t75.5 65q0 178 -104 292l68 170q116 -174 116 -366q0 -102 -65 -209t-158 -107h-964zM990 976l-108 -109l-110 111l110 109l100 -100l109 108l110 -109l-110 -111z" />
    <glyph glyph-name="afii62766" unicode="&#x62a;" arabic-form="medial" 
d="M1229 0h-76q-108 0 -180.5 12t-122 65.5t-86.5 135.5q-21 -72 -90 -142.5t-133 -70.5h-541v123h526q64 0 121 39.5t57 107.5q0 107 -64 259l83 144q63 -172 63 -268q0 -127 69 -204.5t192 -77.5h182v-123zM621 957l-108 -109l-110 111l110 109l100 -100l109 108l110 -109
l-110 -111z" />
    <glyph glyph-name="afii57419" unicode="&#x62b;" arabic-form="isolated" 
d="M1001 8q-70 -8 -253 -8h-265q-267 0 -356.5 51t-89.5 154q0 109 50 210t75 101q9 0 9 -12q0 -9 -13 -34q-47 -91 -47 -151q0 -196 362 -196h401q51 0 111 19.5t89.5 40.5t29.5 44q0 165 -103 283l66 172q117 -195 117 -340q0 -227 -183 -334zM734 981l-110 -110l-110 110
l110 109zM628 768l-108 -109l-110 111l110 109l100 -100l109 108l110 -109l-110 -111z" />
    <glyph glyph-name="afii62770" unicode="&#x62b;" arabic-form="final" 
d="M1229 123v-123q-103 0 -148 45t-81 165q-18 -70 -89.5 -140t-148.5 -70h-279q-267 0 -356.5 51t-89.5 154q0 109 50 210t75 101q9 0 9 -12q0 -9 -13 -34q-47 -91 -47 -151q0 -196 362 -196h279q86 0 137 42t51 98q0 132 -66 264l82 144q64 -148 64.5 -252t24.5 -168.5
t70 -96t114 -31.5zM665 975l-110 -110l-110 110l110 109zM559 762l-108 -109l-110 111l110 109l100 -100l109 108l110 -109l-110 -111z" />
    <glyph glyph-name="afii62768" unicode="&#x62b;" arabic-form="initial" 
d="M0 0v123h885q71 0 146.5 32t75.5 65q0 178 -104 292l68 170q116 -174 116 -366q0 -102 -65 -209t-158 -107h-964zM1113 1197l-110 -110l-110 110l110 109zM1007 984l-108 -109l-110 111l110 109l100 -100l109 108l110 -109l-110 -111z" />
    <glyph glyph-name="afii62769" unicode="&#x62b;" arabic-form="medial" 
d="M1229 0h-76q-108 0 -180.5 12t-122 65.5t-86.5 135.5q-21 -72 -90 -142.5t-133 -70.5h-541v123h526q64 0 121 39.5t57 107.5q0 107 -64 259l83 144q63 -172 63 -268q0 -127 69 -204.5t192 -77.5h182v-123zM737 1132l-110 -110l-110 110l110 109zM631 919l-108 -109
l-110 111l110 109l100 -100l109 108l110 -109l-110 -111z" />
    <glyph glyph-name="afii57420" unicode="&#x62c;" arabic-form="isolated" 
d="M1211 -340q0 -78 -167 -161q-145 -60 -236 -60q-234 0 -380 115q-156 123 -156 304q0 167 164 320q138 114 314 154q-25 6 -89 35q-52 24 -87 24q-161 0 -222 -68q-21 -24 -31 -24q-9 0 -9 24q0 93 103 158q91 57 188 57q28 0 193.5 -66.5t266.5 -66.5l-44 -131
q-220 0 -409 -99q-226 -119 -226 -294q0 -149 147 -244q136 -67 271 -67q123 0 257.5 45t151.5 45zM860 -95l-109 -110l-111 110l111 109z" />
    <glyph glyph-name="afii62773" unicode="&#x62c;" arabic-form="final" 
d="M1229 0h-338q-84 0 -116 48q-26 39 -26 128q0 70 17 146q-153 -35 -312 -158q-195 -155 -195 -313q0 -139 149 -220q122 -61 297 -61q99 0 232 38q23 6 151 47q0 -72 -178 -153q-146 -63 -232 -63q-224 0 -365 106q-155 117 -155 273q0 201 242 391q156 118 339 176
q-76 51 -188 104t-163 53q-66 0 -102.5 -39.5t-41.5 -39.5q-9 0 -9 20q0 70 64 126q62 53 133 53q73 0 174 -55l155 -84q137 -74 275 -74l-59 -123q-54 9 -99 9q-26 0 -49 -3q-8 -34 -8 -89q0 -120 127 -120h281v-123zM791 -173l-109 -110l-111 110l111 109z" />
    <glyph glyph-name="afii62771" unicode="&#x62c;" arabic-form="initial" 
d="M1199 402l-51 -126q-153 0 -217.5 -7.5t-132 -39.5t-150.5 -92q-111 -80 -180 -108.5t-222 -28.5h-246v123h353q81 0 263 110q204 124 269 141q-246 167 -320 167q-76 0 -121 -67q-9 -13 -21 -13q-9 0 -9 18q0 54 56.5 114.5t141.5 60.5q70 0 166 -66l165 -111
q48 -32 116.5 -53.5t139.5 -21.5zM759 -299l-109 -110l-111 110l111 109z" />
    <glyph glyph-name="afii62772" unicode="&#x62c;" arabic-form="medial" 
d="M1229 0h-338q-83 0 -113 44.5t-30 139.5q0 62 19 138q-63 -22 -257 -182q-170 -140 -262 -140h-248v123h236q75 0 209 87q207 134 294 176q-256 156 -354 156q-60 0 -99 -40q-40 -40 -43 -40q-8 0 -8 16q0 64 56.5 124t141.5 60q76 0 267 -107q190 -107 335 -107
l-58 -121q-38 9 -79 9q-36 0 -69 -5q-7 -54 -7 -86q0 -55 22 -88.5t127 -33.5h258v-123zM759 -299l-109 -110l-111 110l111 109z" />
    <glyph glyph-name="afii57421" unicode="&#x62d;" arabic-form="isolated" 
d="M1211 -340q0 -78 -167 -161q-145 -60 -236 -60q-234 0 -380 115q-156 123 -156 304q0 167 164 320q138 114 314 154q-25 6 -89 35q-52 24 -87 24q-161 0 -222 -68q-21 -24 -31 -24q-9 0 -9 24q0 93 103 158q91 57 188 57q28 0 193.5 -66.5t266.5 -66.5l-44 -131
q-220 0 -409 -99q-226 -119 -226 -294q0 -149 147 -244q136 -67 271 -67q123 0 257.5 45t151.5 45z" />
    <glyph glyph-name="afii62776" unicode="&#x62d;" arabic-form="final" 
d="M1229 0h-338q-84 0 -116 48q-26 39 -26 128q0 70 17 146q-153 -35 -312 -158q-195 -155 -195 -313q0 -139 149 -220q122 -61 297 -61q99 0 232 38q23 6 151 47q0 -72 -178 -153q-146 -63 -232 -63q-224 0 -365 106q-155 117 -155 273q0 201 242 391q156 118 339 176
q-76 51 -188 104t-163 53q-66 0 -102.5 -39.5t-41.5 -39.5q-9 0 -9 20q0 70 64 126q62 53 133 53q73 0 174 -55l155 -84q137 -74 275 -74l-59 -123q-54 9 -99 9q-26 0 -49 -3q-8 -34 -8 -89q0 -120 127 -120h281v-123z" />
    <glyph glyph-name="afii62774" unicode="&#x62d;" arabic-form="initial" 
d="M1199 402l-51 -126q-153 0 -217.5 -7.5t-132 -39.5t-150.5 -92q-111 -80 -180 -108.5t-222 -28.5h-246v123h353q81 0 263 110q204 124 269 141q-246 167 -320 167q-76 0 -121 -67q-9 -13 -21 -13q-9 0 -9 18q0 54 56.5 114.5t141.5 60.5q70 0 166 -66l165 -111
q48 -32 116.5 -53.5t139.5 -21.5z" />
    <glyph glyph-name="afii62775" unicode="&#x62d;" arabic-form="medial" 
d="M1229 0h-338q-83 0 -113 44.5t-30 139.5q0 62 19 138q-63 -22 -257 -182q-170 -140 -262 -140h-248v123h236q75 0 209 87q207 134 294 176q-256 156 -354 156q-60 0 -99 -40q-40 -40 -43 -40q-8 0 -8 16q0 64 56.5 124t141.5 60q76 0 267 -107q190 -107 335 -107
l-58 -121q-38 9 -79 9q-36 0 -69 -5q-7 -54 -7 -86q0 -55 22 -88.5t127 -33.5h258v-123z" />
    <glyph glyph-name="afii57422" unicode="&#x62e;" arabic-form="isolated" 
d="M1211 -340q0 -78 -167 -161q-145 -60 -236 -60q-234 0 -380 115q-156 123 -156 304q0 167 164 320q138 114 314 154q-25 6 -89 35q-52 24 -87 24q-161 0 -222 -68q-21 -24 -31 -24q-9 0 -9 24q0 93 103 158q91 57 188 57q28 0 193.5 -66.5t266.5 -66.5l-44 -131
q-220 0 -409 -99q-226 -119 -226 -294q0 -149 147 -244q136 -67 271 -67q123 0 257.5 45t151.5 45zM868 910l-109 -110l-111 110l111 109z" />
    <glyph glyph-name="afii62779" unicode="&#x62e;" arabic-form="final" 
d="M1229 0h-338q-84 0 -116 48q-26 39 -26 128q0 70 17 146q-153 -35 -312 -158q-195 -155 -195 -313q0 -139 149 -220q122 -61 297 -61q99 0 232 38q23 6 151 47q0 -72 -178 -153q-146 -63 -232 -63q-224 0 -365 106q-155 117 -155 273q0 201 242 391q156 118 339 176
q-76 51 -188 104t-163 53q-66 0 -102.5 -39.5t-41.5 -39.5q-9 0 -9 20q0 70 64 126q62 53 133 53q73 0 174 -55l155 -84q137 -74 275 -74l-59 -123q-54 9 -99 9q-26 0 -49 -3q-8 -34 -8 -89q0 -120 127 -120h281v-123zM844 899l-109 -110l-111 110l111 109z" />
    <glyph glyph-name="afii62777" unicode="&#x62e;" arabic-form="initial" 
d="M1199 402l-51 -126q-153 0 -217.5 -7.5t-132 -39.5t-150.5 -92q-111 -80 -180 -108.5t-222 -28.5h-246v123h353q81 0 263 110q204 124 269 141q-246 167 -320 167q-76 0 -121 -67q-9 -13 -21 -13q-9 0 -9 18q0 54 56.5 114.5t141.5 60.5q70 0 166 -66l165 -111
q48 -32 116.5 -53.5t139.5 -21.5zM1019 910l-109 -110l-111 110l111 109z" />
    <glyph glyph-name="afii62778" unicode="&#x62e;" arabic-form="medial" 
d="M1229 0h-338q-83 0 -113 44.5t-30 139.5q0 62 19 138q-63 -22 -257 -182q-170 -140 -262 -140h-248v123h236q75 0 209 87q207 134 294 176q-256 156 -354 156q-60 0 -99 -40q-40 -40 -43 -40q-8 0 -8 16q0 64 56.5 124t141.5 60q76 0 267 -107q190 -107 335 -107
l-58 -121q-38 9 -79 9q-36 0 -69 -5q-7 -54 -7 -86q0 -55 22 -88.5t127 -33.5h258v-123zM757 965l-109 -110l-111 110l111 109z" />
    <glyph glyph-name="afii57423" unicode="&#x62f;" arabic-form="isolated" 
d="M661 672l14 141q90 -15 210 -171t120 -349q0 -305 -361 -305q-112 0 -171 30.5t-59 118.5q0 34 11 78.5t26 44.5q12 0 13 -19q1 -36 4 -52t31.5 -32.5t79 -25t123.5 -8.5q97 0 174 27t77 76q0 168 -103.5 300t-188.5 146z" />
    <glyph glyph-name="afii62780" unicode="&#x62f;" arabic-form="final" 
d="M884 315q26 -129 77.5 -160.5t162.5 -31.5h105v-123h-109q-154 0 -212 47.5t-85 150.5q-94 -158 -256 -158q-134 0 -182 37.5t-48 111.5q0 37 11.5 80t25.5 43q13 0 13 -32q0 -60 40.5 -82.5t155.5 -22.5q75 0 147 32.5t72 85.5q0 182 -51 436l83 121q50 -299 50 -535z
" />
    <glyph glyph-name="afii57424" unicode="&#x630;" arabic-form="isolated" 
d="M661 672l14 141q90 -15 210 -171t120 -349q0 -305 -361 -305q-112 0 -171 30.5t-59 118.5q0 34 11 78.5t26 44.5q12 0 13 -19q1 -36 4 -52t31.5 -32.5t79 -25t123.5 -8.5q97 0 174 27t77 76q0 168 -103.5 300t-188.5 146zM730 1094l-109 -110l-111 110l111 109z" />
    <glyph glyph-name="afii62781" unicode="&#x630;" arabic-form="final" 
d="M884 315q26 -129 77.5 -160.5t162.5 -31.5h105v-123h-109q-154 0 -212 47.5t-85 150.5q-94 -158 -256 -158q-134 0 -182 37.5t-48 111.5q0 37 11.5 80t25.5 43q13 0 13 -32q0 -60 40.5 -82.5t155.5 -22.5q75 0 147 32.5t72 85.5q0 182 -51 436l83 121q50 -299 50 -535z
M864 1091l-109 -110l-111 110l111 109z" />
    <glyph glyph-name="afii57425" unicode="&#x631;" arabic-form="isolated" 
d="M727 494l63 170q168 -157 168 -486q0 -149 -58.5 -286t-160 -224.5t-192.5 -87.5q-106 0 -170 19l-185 55q-48 14 -48 41t25 27q7 0 88 -16q81 -15 169 -15q100 0 218.5 80.5t187.5 178t69 150.5q0 214 -174 394z" />
    <glyph glyph-name="afii62782" unicode="&#x631;" arabic-form="final" 
d="M1113 0q-80 0 -124.5 26.5t-76.5 95.5q-17 -233 -150 -388.5t-258 -155.5q-106 0 -170 19l-185 55q-48 14 -48 41q0 26 25 26q7 0 88 -15t169 -15q100 0 219 81t187 179t68 151q0 78 -17.5 163t-106.5 239l63 170q78 -121 110 -366q37 -183 207 -183h116v-123h-116z" />
    <glyph glyph-name="afii57426" unicode="&#x632;" arabic-form="isolated" 
d="M727 494l63 170q168 -157 168 -486q0 -149 -58.5 -286t-160 -224.5t-192.5 -87.5q-106 0 -170 19l-185 55q-48 14 -48 41t25 27q7 0 88 -16q81 -15 169 -15q100 0 218.5 80.5t187.5 178t69 150.5q0 214 -174 394zM803 948l-109 -110l-111 110l111 109z" />
    <glyph glyph-name="afii62783" unicode="&#x632;" arabic-form="final" 
d="M1113 0q-80 0 -124.5 26.5t-76.5 95.5q-17 -233 -150 -388.5t-258 -155.5q-106 0 -170 19l-185 55q-48 14 -48 41q0 26 25 26q7 0 88 -15t169 -15q100 0 219 81t187 179t68 151q0 78 -17.5 163t-106.5 239l63 170q78 -121 110 -366q37 -183 207 -183h116v-123h-116z
M785 958l-109 -110l-111 110l111 109z" />
    <glyph glyph-name="afii57427" unicode="&#x633;" arabic-form="isolated" 
d="M784 73q-47 -72 -107 -72q-45 0 -88 35q-8 -191 -94.5 -299t-238.5 -108q-113 0 -181.5 70.5t-68.5 337.5q0 146 87 311.5t140 165.5q12 0 12 -14q-111 -215 -133.5 -314t-22.5 -169q0 -117 49.5 -187.5t139.5 -70.5q241 0 241 239q0 161 -53 284l40 242
q37 -47 61.5 -161.5t24.5 -209.5q34 -29 73 -29q37 0 63 33.5t36 74.5t36 158q20 93 49 93q27 0 27 -49q0 -28 -10 -86t-10 -87q0 -134 109 -134q61 0 82 23t21 82q0 152 -73 312l92 129q60 -101 60 -340q0 -328 -240 -328q-88 0 -123 68z" />
    <glyph glyph-name="afii62786" unicode="&#x633;" arabic-form="final" 
d="M1229 123v-123q-34 0 -72 40.5t-46 101.5q-36 -84 -82 -110.5t-122 -26.5q-88 0 -123 68q-47 -72 -108 -72q-45 0 -87 34q-8 -189 -94.5 -297.5t-239.5 -108.5q-113 0 -181 71t-68 337q0 147 87 311.5t140 164.5q11 0 11 -13q-111 -217 -133 -315.5t-22 -168.5
q0 -116 49.5 -186.5t138.5 -70.5q242 0 242 239q0 161 -54 284q16 80 41 242q37 -46 61.5 -161.5t24.5 -210.5q34 -28 73 -28q36 0 62.5 33.5t40 89t32.5 143.5q20 93 49 93q27 0 27 -49q0 -29 -10 -86q-11 -58 -11 -87q0 -134 110 -134q58 0 80.5 19t22.5 86q0 108 -59 310
l92 129q44 -170 44.5 -309t26 -189t57.5 -50z" />
    <glyph glyph-name="afii62784" unicode="&#x633;" arabic-form="initial" 
d="M768 72q-69 -72 -139 -72q-125 0 -162 90q-86 -90 -180 -90h-287v123h287q40 0 72.5 32t48.5 71t61 156q35 91 70 91q21 0 21 -29q0 -17 -29 -101q-28 -85 -28 -131q0 -91 117 -91q42 0 71 49t61 218q16 86 49 86q24 0 24 -45q0 -25 -9 -88t-9 -95q0 -125 126 -125
q123 0 123 106q0 139 -74 316l93 129q25 -41 42.5 -147t17.5 -185q0 -340 -245 -340q-85 0 -122 72z" />
    <glyph glyph-name="afii62785" unicode="&#x633;" arabic-form="medial" 
d="M971 660q55 -86 55 -320q29 -217 203 -217v-123q-100 0 -142 35.5t-80 160.5q-41 -196 -227 -196q-85 0 -122 72q-69 -72 -139 -72q-125 0 -162 90q-86 -90 -180 -90h-177v123h177q40 0 73 32t54 83.5t57 143.5q34 91 68 91q21 0 21 -29q0 -17 -29 -101q-28 -85 -28 -131
q0 -91 117 -91q32 0 58 31t41 79t38 176q12 67 44 67q24 0 24 -45q0 -25 -9 -88t-9 -95q0 -125 126 -125q123 0 123 106q0 194 -53 320q41 50 78 113z" />
    <glyph glyph-name="afii57428" unicode="&#x634;" arabic-form="isolated" 
d="M784 73q-47 -72 -107 -72q-45 0 -88 35q-8 -191 -94.5 -299t-238.5 -108q-113 0 -181.5 70.5t-68.5 337.5q0 146 87 311.5t140 165.5q12 0 12 -14q-111 -215 -133.5 -314t-22.5 -169q0 -117 49.5 -187.5t139.5 -70.5q241 0 241 239q0 161 -53 284l40 242
q37 -47 61.5 -161.5t24.5 -209.5q34 -29 73 -29q37 0 63 33.5t36 74.5t36 158q20 93 49 93q27 0 27 -49q0 -28 -10 -86t-10 -87q0 -134 109 -134q61 0 82 23t21 82q0 152 -73 312l92 129q60 -101 60 -340q0 -328 -240 -328q-88 0 -123 68zM789 1067l-110 -110l-110 110
l110 109zM683 854l-108 -109l-110 111l110 109l100 -100l109 108l110 -109l-110 -111z" />
    <glyph glyph-name="afii62789" unicode="&#x634;" arabic-form="final" 
d="M1229 123v-123q-34 0 -72 40.5t-46 101.5q-36 -84 -82 -110.5t-122 -26.5q-88 0 -123 68q-47 -72 -108 -72q-45 0 -87 34q-8 -189 -94.5 -297.5t-239.5 -108.5q-113 0 -181 71t-68 337q0 147 87 311.5t140 164.5q11 0 11 -13q-111 -217 -133 -315.5t-22 -168.5
q0 -116 49.5 -186.5t138.5 -70.5q242 0 242 239q0 161 -54 284q16 80 41 242q37 -46 61.5 -161.5t24.5 -210.5q34 -28 73 -28q36 0 62.5 33.5t40 89t32.5 143.5q20 93 49 93q27 0 27 -49q0 -29 -10 -86q-11 -58 -11 -87q0 -134 110 -134q58 0 80.5 19t22.5 86q0 108 -59 310
l92 129q44 -170 44.5 -309t26 -189t57.5 -50zM789 1067l-110 -110l-110 110l110 109zM683 854l-108 -109l-110 111l110 109l100 -100l109 108l110 -109l-110 -111z" />
    <glyph glyph-name="afii62787" unicode="&#x634;" arabic-form="initial" 
d="M768 72q-69 -72 -139 -72q-125 0 -162 90q-86 -90 -180 -90h-287v123h287q40 0 72.5 32t48.5 71t61 156q35 91 70 91q21 0 21 -29q0 -17 -29 -101q-28 -85 -28 -131q0 -91 117 -91q42 0 71 49t61 218q16 86 49 86q24 0 24 -45q0 -25 -9 -88t-9 -95q0 -125 126 -125
q123 0 123 106q0 139 -74 316l93 129q25 -41 42.5 -147t17.5 -185q0 -340 -245 -340q-85 0 -122 72zM861 1056l-110 -110l-110 110l110 109zM755 843l-108 -109l-110 111l110 109l100 -100l109 108l110 -109l-110 -111z" />
    <glyph glyph-name="afii62788" unicode="&#x634;" arabic-form="medial" 
d="M971 660q55 -86 55 -320q29 -217 203 -217v-123q-100 0 -142 35.5t-80 160.5q-41 -196 -227 -196q-85 0 -122 72q-69 -72 -139 -72q-125 0 -162 90q-86 -90 -180 -90h-177v123h177q40 0 73 32t54 83.5t57 143.5q34 91 68 91q21 0 21 -29q0 -17 -29 -101q-28 -85 -28 -131
q0 -91 117 -91q32 0 58 31t41 79t38 176q12 67 44 67q24 0 24 -45q0 -25 -9 -88t-9 -95q0 -125 126 -125q123 0 123 106q0 194 -53 320q41 50 78 113zM773 1055l-110 -110l-110 110l110 109zM667 842l-108 -109l-110 111l110 109l100 -100l109 108l110 -109l-110 -111z" />
    <glyph glyph-name="afii57429" unicode="&#x635;" arabic-form="isolated" 
d="M573 33q-6 -195 -87.5 -306.5t-228.5 -111.5q-97 0 -156 42.5t-80 125.5t-21 248q0 159 84 319.5t133 160.5q8 0 8 -12q0 1 -3 -6q-32 -71 -87 -214.5t-55 -260.5q0 -125 47.5 -198t136.5 -73q240 0 240 253q0 152 -55 279q26 112 42 243q20 -22 52.5 -145.5t32.5 -245.5
q12 -4 68 -10q185 504 382 504q192 0 192 -353q0 -90 -29.5 -149.5t-97.5 -92t-278 -32.5q-198 0 -240 35zM707 121h327q97 0 97 118q0 87 -49 169t-121 82q-30 0 -60 -21t-59 -62.5t-43 -75.5z" />
    <glyph glyph-name="afii62792" unicode="&#x635;" arabic-form="final" 
d="M1180 129q13 -6 49 -6v-123q-81 0 -99 69q-24 -35 -84 -53.5t-229 -18.5q-212 0 -254 35q-6 -194 -87.5 -306t-228.5 -112q-88 0 -145 37t-79.5 111t-22.5 269q0 159 84 319.5t133 160.5q8 0 8 -12q0 2 -3 -5q-32 -72 -87 -215.5t-55 -260.5q0 -272 174 -272
q240 0 240 253q0 152 -55 279q26 113 42 243q20 -22 52.5 -145t32.5 -246q18 -7 71 -7q184 501 379 501q192 0 192 -353q0 -80 -28 -142zM707 121h327q97 0 97 120q0 87 -49 169t-121 82q-30 0 -60 -21t-58.5 -63t-43.5 -76z" />
    <glyph glyph-name="afii62790" unicode="&#x635;" arabic-form="initial" 
d="M355 90q-51 -55 -105.5 -72.5t-178.5 -17.5h-71v123h140q40 0 71.5 18t53.5 51t60 139q27 73 55 73q19 0 19 -24q0 -23 -10 -68q-9 -46 -9 -69q0 -115 159 -120q178 325 271.5 410t177.5 85q186 0 186 -302q0 -120 -54.5 -193.5t-164.5 -99t-322 -25.5q-241 0 -278 92z
M611 121h323q162 0 162 155q0 83 -41.5 148t-108.5 65q-36 0 -71.5 -19t-71.5 -56.5t-56 -70.5z" />
    <glyph glyph-name="afii62791" unicode="&#x635;" arabic-form="medial" 
d="M1138 149q31 -26 91 -26v-123q-81 0 -128 94q-96 -96 -468 -96q-241 0 -278 92q-51 -55 -105.5 -72.5t-178.5 -17.5h-71v123h140q40 0 71.5 18t53.5 51t60 139q27 73 55 73q19 0 19 -24q0 -23 -10 -68q-9 -46 -9 -69q0 -115 159 -120q178 325 271.5 410t177.5 85
q186 0 186 -302q0 -98 -36 -167zM611 121h323q162 0 162 155q0 83 -41.5 148t-108.5 65q-36 0 -71.5 -19t-71.5 -56.5t-56 -70.5z" />
    <glyph glyph-name="afii57430" unicode="&#x636;" arabic-form="isolated" 
d="M573 33q-6 -195 -87.5 -306.5t-228.5 -111.5q-97 0 -156 42.5t-80 125.5t-21 248q0 159 84 319.5t133 160.5q8 0 8 -12q0 1 -3 -6q-32 -71 -87 -214.5t-55 -260.5q0 -125 47.5 -198t136.5 -73q240 0 240 253q0 152 -55 279q26 112 42 243q20 -22 52.5 -145.5t32.5 -245.5
q12 -4 68 -10q185 504 382 504q192 0 192 -353q0 -90 -29.5 -149.5t-97.5 -92t-278 -32.5q-198 0 -240 35zM707 121h327q97 0 97 118q0 87 -49 169t-121 82q-30 0 -60 -21t-59 -62.5t-43 -75.5zM1011 870l-109 -110l-111 110l111 109z" />
    <glyph glyph-name="afii62795" unicode="&#x636;" arabic-form="final" 
d="M1180 129q13 -6 49 -6v-123q-81 0 -99 69q-24 -35 -84 -53.5t-229 -18.5q-212 0 -254 35q-6 -194 -87.5 -306t-228.5 -112q-88 0 -145 37t-79.5 111t-22.5 269q0 159 84 319.5t133 160.5q8 0 8 -12q0 2 -3 -5q-32 -72 -87 -215.5t-55 -260.5q0 -272 174 -272
q240 0 240 253q0 152 -55 279q26 113 42 243q20 -22 52.5 -145t32.5 -246q18 -7 71 -7q184 501 379 501q192 0 192 -353q0 -80 -28 -142zM707 121h327q97 0 97 120q0 87 -49 169t-121 82q-30 0 -60 -21t-58.5 -63t-43.5 -76zM1011 870l-109 -110l-111 110l111 109z" />
    <glyph glyph-name="afii62793" unicode="&#x636;" arabic-form="initial" 
d="M355 90q-51 -55 -105.5 -72.5t-178.5 -17.5h-71v123h140q40 0 71.5 18t53.5 51t60 139q27 73 55 73q19 0 19 -24q0 -23 -10 -68q-9 -46 -9 -69q0 -115 159 -120q178 325 271.5 410t177.5 85q186 0 186 -302q0 -120 -54.5 -193.5t-164.5 -99t-322 -25.5q-241 0 -278 92z
M611 121h323q162 0 162 155q0 83 -41.5 148t-108.5 65q-36 0 -71.5 -19t-71.5 -56.5t-56 -70.5zM908 877l-109 -110l-111 110l111 109z" />
    <glyph glyph-name="afii62794" unicode="&#x636;" arabic-form="medial" 
d="M1138 149q31 -26 91 -26v-123q-81 0 -128 94q-96 -96 -468 -96q-241 0 -278 92q-51 -55 -105.5 -72.5t-178.5 -17.5h-71v123h140q40 0 71.5 18t53.5 51t60 139q27 73 55 73q19 0 19 -24q0 -23 -10 -68q-9 -46 -9 -69q0 -115 159 -120q178 325 271.5 410t177.5 85
q186 0 186 -302q0 -98 -36 -167zM611 121h323q162 0 162 155q0 83 -41.5 148t-108.5 65q-36 0 -71.5 -19t-71.5 -56.5t-56 -70.5zM908 877l-109 -110l-111 110l111 109z" />
    <glyph glyph-name="afii57431" unicode="&#x637;" arabic-form="isolated" 
d="M12 123h287q128 106 128 289q0 521 -59 619l75 122l94 -96q-45 -48 -45 -285q0 -69 5 -181q4 -113 4 -140q0 -46 -40 -220l180 204q81 93 161 139.5t152 46.5q104 0 162 -88.5t58 -218.5q0 -158 -93 -236t-350 -78h-544q-71 0 -107.5 24t-67.5 99zM436 123h496
q91 0 126 33t35 108q0 90 -51 158t-132 68q-58 0 -125.5 -37.5t-204.5 -189.5q-97 -106 -144 -140z" />
    <glyph glyph-name="afii62798" unicode="&#x637;" arabic-form="final" 
d="M1139 149q25 -26 90 -26v-123q-83 0 -129 95q-95 -95 -369 -95h-564q-117 0 -157 123h290q127 106 127 289q0 521 -59 619l75 122l94 -96q-45 -48 -45 -285q0 -68 5 -181q4 -113 4 -140q0 -46 -40 -220l180 204q81 93 161 139.5t152 46.5q104 0 162 -88.5t58 -218.5
q0 -99 -35 -165zM436 123h496q91 0 126 33t35 108q0 90 -51 158t-132 68q-58 0 -125.5 -37.5t-204.5 -189.5q-97 -106 -144 -140z" />
    <glyph glyph-name="afii62796" unicode="&#x637;" arabic-form="initial" 
d="M0 0v123h299q128 106 128 289q0 521 -59 619l75 122l94 -96q-45 -48 -45 -285q0 -68 5 -181q4 -113 4 -140q0 -46 -40 -220l180 204q81 93 161 139.5t152 46.5q104 0 162 -88.5t58 -218.5q0 -158 -93 -236t-350 -78h-731zM436 123h496q91 0 126 33t35 108q0 90 -51 158
t-132 68q-58 0 -125.5 -37.5t-204.5 -189.5q-97 -106 -144 -140z" />
    <glyph glyph-name="afii62797" unicode="&#x637;" arabic-form="medial" 
d="M1139 149q26 -27 90 -27v-122q-83 0 -129 95q-95 -95 -369 -95h-731v123h299q128 106 128 289q0 521 -59 619l75 122l94 -96q-45 -48 -45 -285q0 -68 5 -181q4 -113 4 -140q0 -46 -40 -220l180 204q81 93 161 139.5t152 46.5q104 0 162 -88.5t58 -218.5q0 -99 -35 -165z
M436 123h496q91 0 126 33t35 108q0 90 -51 158t-132 68q-58 0 -125.5 -37.5t-204.5 -189.5q-97 -106 -144 -140z" />
    <glyph glyph-name="afii57432" unicode="&#x638;" arabic-form="isolated" 
d="M12 123h287q128 106 128 289q0 521 -59 619l75 122l94 -96q-45 -48 -45 -285q0 -69 5 -181q4 -113 4 -140q0 -46 -40 -220l180 204q81 93 161 139.5t152 46.5q104 0 162 -88.5t58 -218.5q0 -158 -93 -236t-350 -78h-544q-71 0 -107.5 24t-67.5 99zM436 123h496
q91 0 126 33t35 108q0 90 -51 158t-132 68q-58 0 -125.5 -37.5t-204.5 -189.5q-97 -106 -144 -140zM857 873l-109 -110l-111 110l111 109z" />
    <glyph glyph-name="afii62801" unicode="&#x638;" arabic-form="final" 
d="M1139 149q25 -26 90 -26v-123q-83 0 -129 95q-95 -95 -369 -95h-564q-117 0 -157 123h290q127 106 127 289q0 521 -59 619l75 122l94 -96q-45 -48 -45 -285q0 -68 5 -181q4 -113 4 -140q0 -46 -40 -220l180 204q81 93 161 139.5t152 46.5q104 0 162 -88.5t58 -218.5
q0 -99 -35 -165zM436 123h496q91 0 126 33t35 108q0 90 -51 158t-132 68q-58 0 -125.5 -37.5t-204.5 -189.5q-97 -106 -144 -140zM857 873l-109 -110l-111 110l111 109z" />
    <glyph glyph-name="afii62799" unicode="&#x638;" arabic-form="initial" 
d="M0 0v123h299q128 106 128 289q0 521 -59 619l75 122l94 -96q-45 -48 -45 -285q0 -68 5 -181q4 -113 4 -140q0 -46 -40 -220l180 204q81 93 161 139.5t152 46.5q104 0 162 -88.5t58 -218.5q0 -158 -93 -236t-350 -78h-731zM436 123h496q91 0 126 33t35 108q0 90 -51 158
t-132 68q-58 0 -125.5 -37.5t-204.5 -189.5q-97 -106 -144 -140zM857 873l-109 -110l-111 110l111 109z" />
    <glyph glyph-name="afii62800" unicode="&#x638;" arabic-form="medial" 
d="M1139 149q26 -27 90 -27v-122q-83 0 -129 95q-95 -95 -369 -95h-731v123h299q128 106 128 289q0 521 -59 619l75 122l94 -96q-45 -48 -45 -285q0 -68 5 -181q4 -113 4 -140q0 -46 -40 -220l180 204q81 93 161 139.5t152 46.5q104 0 162 -88.5t58 -218.5q0 -99 -35 -165z
M436 123h496q91 0 126 33t35 108q0 90 -51 158t-132 68q-58 0 -125.5 -37.5t-204.5 -189.5q-97 -106 -144 -140zM857 873l-109 -110l-111 110l111 109z" />
    <glyph glyph-name="afii57433" unicode="&#x639;" arabic-form="isolated" 
d="M505 155q-183 56 -183 185q0 111 82 220q88 117 196 117q64 0 143 -26q101 -33 101 -83q-5 -13 -18 -13q-6 0 -58 19t-85 19q-72 0 -180 -64q-119 -69 -119 -134q0 -56 109 -96q88 -31 158 -31q72 0 242 66l-36 -150q-190 -21 -308 -94q-171 -116 -171 -268
q0 -258 409 -258q237 0 420 114l14 -19q-65 -92 -196.5 -156t-247.5 -64q-495 0 -495 347q0 94 54 198q63 111 169 171z" />
    <glyph glyph-name="afii62804" unicode="&#x639;" arabic-form="final" 
d="M1229 -332q0 -94 -188 -168q-156 -61 -268 -61q-191 0 -330 96q-159 111 -159 327q0 134 119 275q117 117 283 203q-27 46 -85.5 78t-113.5 36l60 146q125 38 213 38q244 0 244 -149q0 -118 -198 -188q51 -93 108 -133q64 -45 163 -45h152v-123h-177q-123 0 -203 74
q-66 61 -117 189q-144 -80 -247 -168q-113 -117 -113 -236q0 -130 149 -212q125 -68 269 -68q230 0 439 89zM574 514q116 -33 186 -133q131 47 131 98q0 75 -136 75q-71 0 -181 -40z" />
    <glyph glyph-name="afii62802" unicode="&#x639;" arabic-form="initial" 
d="M938 295l-18 -132l-355 -102q-109 -31 -204.5 -46t-179.5 -15h-181v122h122q179 0 245 8t110 39q-42 12 -103 66t-61 90q0 104 78.5 231.5t243.5 127.5q125 0 185.5 -80.5t60.5 -112.5q0 -18 -14 -18q-7 0 -40 24q-114 80 -209 80q-79 0 -151.5 -40.5t-72.5 -103.5
q0 -90 83.5 -144.5t202.5 -54.5q27 0 67.5 6t190.5 55z" />
    <glyph glyph-name="afii62803" unicode="&#x639;" arabic-form="medial" 
d="M1229 0h-177q-217 0 -321 263q-70 -37 -146 -106q-103 -92 -161.5 -124.5t-162.5 -32.5h-261v123h272q88 0 144.5 27.5t182.5 126.5q49 39 89 63q-92 106 -200 114l60 146q118 38 212 38q243 0 243 -147q0 -114 -199 -192q65 -111 122.5 -143.5t153.5 -32.5h149v-123z
M587 520q123 -64 173 -141q131 46 131 100q0 75 -136 75q-55 0 -168 -34z" />
    <glyph glyph-name="afii57434" unicode="&#x63a;" arabic-form="isolated" 
d="M505 155q-183 56 -183 185q0 111 82 220q88 117 196 117q64 0 143 -26q101 -33 101 -83q-5 -13 -18 -13q-6 0 -58 19t-85 19q-72 0 -180 -64q-119 -69 -119 -134q0 -56 109 -96q88 -31 158 -31q72 0 242 66l-36 -150q-190 -21 -308 -94q-171 -116 -171 -268
q0 -258 409 -258q237 0 420 114l14 -19q-65 -92 -196.5 -156t-247.5 -64q-495 0 -495 347q0 94 54 198q63 111 169 171zM715 1014l-109 -110l-111 110l111 109z" />
    <glyph glyph-name="afii62807" unicode="&#x63a;" arabic-form="final" 
d="M1229 -332q0 -94 -188 -168q-156 -61 -268 -61q-191 0 -330 96q-159 111 -159 327q0 134 119 275q117 117 283 203q-27 46 -85.5 78t-113.5 36l60 146q125 38 213 38q244 0 244 -149q0 -118 -198 -188q51 -93 108 -133q64 -45 163 -45h152v-123h-177q-123 0 -203 74
q-66 61 -117 189q-144 -80 -247 -168q-113 -117 -113 -236q0 -130 149 -212q125 -68 269 -68q230 0 439 89zM574 514q116 -33 186 -133q131 47 131 98q0 75 -136 75q-71 0 -181 -40zM884 1014l-109 -110l-111 110l111 109z" />
    <glyph glyph-name="afii62805" unicode="&#x63a;" arabic-form="initial" 
d="M938 295l-18 -132l-355 -102q-109 -31 -204.5 -46t-179.5 -15h-181v122h122q179 0 245 8t110 39q-42 12 -103 66t-61 90q0 104 78.5 231.5t243.5 127.5q125 0 185.5 -80.5t60.5 -112.5q0 -18 -14 -18q-7 0 -40 24q-114 80 -209 80q-79 0 -151.5 -40.5t-72.5 -103.5
q0 -90 83.5 -144.5t202.5 -54.5q27 0 67.5 6t190.5 55zM615 1021l-109 -110l-111 110l111 109z" />
    <glyph glyph-name="afii62806" unicode="&#x63a;" arabic-form="medial" 
d="M1229 0h-177q-217 0 -321 263q-70 -37 -146 -106q-103 -92 -161.5 -124.5t-162.5 -32.5h-261v123h272q88 0 144.5 27.5t182.5 126.5q49 39 89 63q-92 106 -200 114l60 146q118 38 212 38q243 0 243 -147q0 -114 -199 -192q65 -111 122.5 -143.5t153.5 -32.5h149v-123z
M587 520q123 -64 173 -141q131 46 131 100q0 75 -136 75q-55 0 -168 -34zM880 1015l-109 -110l-111 110l111 109z" />
    <glyph glyph-name="afii57441" unicode="&#x641;" arabic-form="isolated" 
d="M1129 351q-75 -53 -152 -53q-70 0 -119.5 24t-49.5 68q0 125 61 268t148 143t139.5 -134t52.5 -277t-32 -233t-110.5 -127t-326.5 -37h-270q-289 0 -374 56t-85 159q0 85 44.5 191.5t85.5 106.5q12 0 12 -18q0 -16 -31 -81q-31 -64 -31 -101q0 -93 86 -141.5t356 -48.5
h171q315 0 373.5 47.5t58.5 124.5q0 23 -7 63zM1096 467q-42 209 -109 209q-48 0 -80.5 -66.5t-32.5 -130.5q0 -55 91 -55q45 0 131 43zM1065 1091l-109 -110l-111 110l111 109z" />
    <glyph glyph-name="afii62810" unicode="&#x641;" arabic-form="final" 
d="M1229 0q-133 0 -200 56q-98 -71 -220 -97.5t-354 -26.5q-170 0 -264 17.5t-139.5 66.5t-45.5 130q0 76 45 187.5t77 111.5q11 0 11 -20q0 -7 -28 -71q-27 -64 -27 -109q0 -75 61.5 -129t335.5 -54q234 0 325 9t141 41q-134 129 -134 243q0 70 89.5 181.5t154.5 111.5
q46 0 79 -52t33 -107q0 -234 -73 -332q36 -34 133 -34v-123zM1081 425q0 39 -22.5 70t-55.5 31q-36 0 -72.5 -41.5t-36.5 -77.5q0 -41 38 -106.5t81 -108.5q68 81 68 233zM1108 944l-109 -110l-111 110l111 109z" />
    <glyph glyph-name="afii62808" unicode="&#x641;" arabic-form="initial" 
d="M0 0v123h856q110 0 168.5 11.5t85 50.5t26.5 103q0 23 -7 63q-91 -53 -152 -53q-60 0 -114.5 25.5t-54.5 66.5q0 125 61 268t148 143q90 0 140 -125.5t50 -305.5q0 -133 -31 -213t-76 -111.5t-92 -38.5t-226 -7h-782zM1096 467q-42 209 -109 209q-48 0 -80.5 -66.5
t-32.5 -130.5q0 -55 97 -55q39 0 125 43zM1081 1074l-109 -110l-111 110l111 109z" />
    <glyph glyph-name="afii62809" unicode="&#x641;" arabic-form="medial" 
d="M629 123q249 0 318 50q-134 129 -134 243q0 69 85 181t159 112q49 0 81.5 -59t32.5 -121q0 -228 -86 -336q52 -70 144 -70v-123q-116 0 -211 113q-115 -113 -427 -113h-591v123h629zM1080 486q0 40 -22 71t-55 31q-34 0 -72 -41.5t-38 -78.5q0 -41 38 -106.5t81 -108.5
q68 81 68 233zM1075 985l-109 -110l-111 110l111 109z" />
    <glyph glyph-name="afii57442" unicode="&#x642;" arabic-form="isolated" 
d="M940 946l-108 -109l-110 111l110 109l100 -100l109 108l110 -109l-110 -111zM1067 137q-112 0 -166.5 5.5t-91.5 29t-37 63.5q0 105 59 255.5t134 150.5q188 0 188 -576q0 -211 -143.5 -329.5t-385.5 -118.5q-257 0 -357.5 87t-100.5 270q0 57 41 195.5t76 138.5
q16 0 16 -22q0 -16 -31 -113q-30 -97 -30 -154q0 -134 85.5 -200.5t285.5 -66.5q216 0 341 83t125 242q0 27 -8 60zM1053 256l-12 122q-6 58 -29.5 89.5t-61.5 31.5t-65 -66t-27 -123q0 -54 195 -54z" />
    <glyph glyph-name="afii62813" unicode="&#x642;" arabic-form="final" 
d="M926 829l110 109l110 -109l-110 -110l-99 100l-107 -106l-110 111l107 106l100 -101h-1zM1229 0h-82q0 -175 -139 -266t-375 -91q-419 0 -419 333q0 94 39.5 202t64.5 108q13 0 13 -16q0 -8 -8 -30q-50 -110 -50 -196q0 -127 95 -197t251 -70q363 0 465 125q5 18 5 38
q0 29 -12 60h-42q-261 0 -261 105q0 112 63 286.5t139 174.5q77 0 123.5 -149t47.5 -294h82v-123zM1056 123q-2 112 -29 207t-72 95q-40 0 -68.5 -88.5t-28.5 -157.5q0 -56 175 -56h23z" />
    <glyph glyph-name="afii62811" unicode="&#x642;" arabic-form="initial" 
d="M0 0v123h856q110 0 168.5 11.5t85 50.5t26.5 103q0 23 -7 63q-91 -53 -152 -53q-60 0 -114.5 25.5t-54.5 66.5q0 125 61 268t148 143q90 0 140 -125.5t50 -305.5q0 -133 -31 -213t-76 -111.5t-92 -38.5t-226 -7h-782zM1096 467q-42 209 -109 209q-48 0 -80.5 -66.5
t-32.5 -130.5q0 -55 97 -55q39 0 125 43zM957 1075l-108 -109l-110 111l110 109l100 -100l109 108l110 -109l-110 -111z" />
    <glyph glyph-name="afii62812" unicode="&#x642;" arabic-form="medial" 
d="M629 123q249 0 318 50q-134 129 -134 243q0 69 85 181t159 112q49 0 81.5 -59t32.5 -121q0 -228 -86 -336q52 -70 144 -70v-123q-116 0 -211 113q-115 -113 -427 -113h-591v123h629zM1080 486q0 40 -22 71t-55 31q-34 0 -72 -41.5t-38 -78.5q0 -41 38 -106.5t81 -108.5
q68 81 68 233zM975 987l-108 -109l-110 111l110 109l100 -100l109 108l110 -109l-110 -111z" />
    <glyph glyph-name="afii57443" unicode="&#x643;" arabic-form="isolated" 
d="M1040 1057l66 121q21 -27 103 -88q-33 -61 -33 -170q0 -47 16 -266t16 -328q0 -118 -35.5 -194t-120.5 -113t-372 -37q-306 0 -403 58t-97 166q0 51 13.5 104t32.5 53q14 0 14 -18q0 -6 -3 -18t-3 -22q0 -97 102 -144t333 -47h69q400 0 400 141q0 139 -28 420l-32 315
q-3 34 -38 67zM466 481q11 15 113 40q96 23 96 44q0 20 -74 28q-73 8 -73 52q0 54 43.5 130.5t80.5 76.5q35 0 35 -26q0 -40 -21 -67q-16 15 -40 15q-20 0 -36.5 -18.5t-16.5 -38.5q0 -29 79 -40q80 -11 80 -67q0 -41 -23.5 -80t-43.5 -54t-66 -15q-132 0 -133 20z" />
    <glyph glyph-name="afii62816" unicode="&#x643;" arabic-form="final" 
d="M1039 1069q-33 -60 -33 -170q0 -47 15 -252q15 -206 15 -315q1 -84 45 -146.5t115 -62.5h33v-123q-76 0 -117.5 23.5t-91.5 141.5q-21 -81 -86.5 -127t-157.5 -58t-266 -12q-286 0 -370 58.5t-84 166.5q0 50 13.5 103.5t32.5 53.5q13 0 13 -19l-3 -47q0 -88 82.5 -136
t373.5 -48q113 0 194 10.5t131 30.5t61.5 41.5t11.5 65.5q0 146 -27 420l-30 301q-3 27 -39 67q25 41 66 120q26 -30 103 -87zM296 460q11 16 114 40q95 23 95 44q0 20 -73 28q-74 8 -74 52q0 54 43.5 130.5t80.5 76.5q36 0 36 -25q0 -40 -22 -68q-15 15 -40 15
q-19 0 -36 -19t-17 -39q0 -29 80 -39q80 -11 80 -67q0 -41 -23 -79.5t-43.5 -54.5t-67.5 -16q-132 0 -133 21z" />
    <glyph glyph-name="afii57410" unicode="&#x643;" arabic-form="initial" 
d="M1229 1160l-49 -118l-276 -135q-207 -101 -207 -141q0 -36 157 -177q160 -143 193.5 -197.5t33.5 -163.5q0 -152 -47.5 -189.5t-180.5 -38.5h-853v123h415h270q130 0 219 6.5t102 17.5t13 41q0 107 -243 323l-29 26q-132 118 -141.5 133.5t-9.5 47.5q0 45 27.5 97.5
t64.5 84t174 102.5t367 158z" />
    <glyph glyph-name="afii62815" unicode="&#x643;" arabic-form="medial" 
d="M650 123q24 0 57.5 26.5t33.5 67.5q0 91 -227 292l-48 43q-109 98 -120.5 114t-11.5 51q0 44 27.5 97t64.5 84.5t174.5 102.5t366.5 158l-49 -118l-276 -135q-207 -101 -207 -141q0 -32 87 -115q200 -191 253 -273q12 -18 84.5 -112.5t119 -118t92.5 -23.5h158v-123h-29
q-118 0 -190.5 17.5t-129 62.5t-97.5 119q-46 -199 -240 -199h-543v123h650z" />
    <glyph glyph-name="afii57444" unicode="&#x644;" arabic-form="isolated" 
d="M944 1024q26 55 72 137q36 -39 112 -104q-42 -62 -50.5 -86t-8.5 -60q0 -79 30 -378q31 -299 31 -353q0 -168 -57 -235t-206.5 -106.5t-291.5 -39.5q-144 0 -227.5 61.5t-83.5 170.5q0 85 41.5 195t63.5 110q16 0 16 -14q0 -10 -30 -78q-29 -68 -29 -113
q0 -68 29.5 -104.5t83 -64.5t114.5 -28q180 0 312 30t163 61t31 92q0 66 -19 250l-53 512q-13 127 -43 145z" />
    <glyph glyph-name="afii62819" unicode="&#x644;" arabic-form="final" 
d="M972 181q6 -63 6 -139q0 -171 -70 -234.5t-222 -96t-262 -32.5q-144 -1 -227.5 60.5t-83.5 171.5q0 84 42 194t63 110q16 0 16 -13q0 -10 -29 -78q-30 -69 -30 -114q0 -67 29.5 -103.5t83.5 -65t114 -27.5q181 0 313 29.5t162.5 61t30.5 92.5q0 52 -19 249l-61 634
q-12 127 -43 145q29 64 72 137q38 -45 112 -104q-59 -72 -59 -146q0 -116 48 -571q10 -94 72.5 -156t138.5 -62h60v-123h-46q-64 0 -125 52t-86 129z" />
    <glyph glyph-name="afii62817" unicode="&#x644;" arabic-form="initial" 
d="M0 0v123h969q104 0 104 62q0 244 -29.5 504t-79.5 354q33 63 84 129q41 -87 88 -131l-58 -101q71 -545 71 -763q0 -78 -41.5 -127.5t-216.5 -49.5h-891z" />
    <glyph glyph-name="afii62818" unicode="&#x644;" arabic-form="medial" 
d="M1229 0h-86q-116 0 -186.5 14.5t-117.5 65.5t-78 132q-72 -212 -251 -212h-510v123h529q58 0 95.5 27t53.5 81t16 198q0 548 -70 620q57 61 96 113q46 -80 46 -355v-115q0 -348 60.5 -458.5t187.5 -110.5h215v-123z" />
    <glyph glyph-name="afii57445" unicode="&#x645;" arabic-form="isolated" 
d="M1229 133v-133q-149 37 -389 37q-216 0 -252 -31t-36 -93q0 -24 24 -99t39 -140t15 -120q0 -33 -25 -74t-40 -41l-18 78q-29 119 -60 206q-53 136 -53 199q0 135 125 189q-72 105 -72 232q0 249 275 249q101 0 227.5 -128t239.5 -331zM1133 123q-98 158 -199 256t-174 98
q-164 0 -164 -188q0 -75 29 -150q99 23 230 23q192 0 278 -39z" />
    <glyph glyph-name="afii62822" unicode="&#x645;" arabic-form="final" 
d="M1229 133v-133q-149 37 -389 37q-216 0 -252 -31t-36 -93q0 -24 24 -99t39 -140t15 -120q0 -33 -25 -74t-40 -41l-18 78q-29 119 -60 206q-53 136 -53 199q0 135 125 189q-72 105 -72 232q0 249 275 249q101 0 227.5 -128t239.5 -331zM1133 123q-98 158 -199 256t-174 98
q-164 0 -164 -188q0 -75 29 -150q99 23 230 23q192 0 278 -39z" />
    <glyph glyph-name="afii62820" unicode="&#x645;" arabic-form="initial" 
d="M966 -6q-72 71 -166 134q-142 -128 -284 -128h-516v123h254q315 0 404.5 25t108.5 65l75 209q37 106 80.5 163t88.5 57q168 0 168 -271q0 -126 -38 -226q-20 -52 -75 -94q-81 -60 -100 -57zM1040 99q54 83 54 212q0 77 -24.5 132t-70.5 55q-26 0 -75 -91t-75 -164
q92 -53 191 -144z" />
    <glyph glyph-name="afii62821" unicode="&#x645;" arabic-form="medial" 
d="M1229 123v-123h-35q-80 0 -138 37t-114 170q-41 -79 -100.5 -146.5t-92.5 -66.5q-72 71 -166 133q-142 -127 -284 -127h-299v123h57q255 0 359 17.5t134 71.5l75 210q37 105 80.5 162t88.5 57q164 0 167.5 -259t224.5 -259h43zM807 115q70 77 70 195q0 78 -25 133t-70 54
q-26 1 -77 -94.5t-73 -160.5q102 -59 175 -127z" />
    <glyph glyph-name="afii57446" unicode="&#x646;" arabic-form="isolated" 
d="M849 865l-110 -109l-110 110l110 109zM982 351l69 219q33 -62 64 -215t31 -240q0 -234 -138 -367t-379 -133q-162 0 -268.5 89t-106.5 235q0 188 74.5 351.5t118.5 163.5q18 0 18 -17q0 -24 -38 -94q-83 -151 -83 -316q0 -109 92 -191t205 -82q160 0 290.5 67t130.5 183
q0 166 -80 347z" />
    <glyph glyph-name="afii62825" unicode="&#x646;" arabic-form="final" 
d="M764 853l-110 -110l-110 110l110 109zM1033 111q0 -121 -20.5 -201t-81 -159t-164.5 -126t-250 -47q-112 0 -197 42.5t-131.5 113.5t-46.5 168q1 188 75 351.5t118 163.5q18 0 18 -17q0 -24 -38 -94q-83 -151 -83 -316q0 -109 92.5 -191t204.5 -82q155 0 288 65t133 185
q0 166 -80 347l69 219q42 -79 69 -231q15 -78 77.5 -128.5t143.5 -50.5v-123q-144 0 -196 111z" />
    <glyph glyph-name="afii62823" unicode="&#x646;" arabic-form="initial" 
d="M0 0v123h885q71 0 146.5 32t75.5 65q0 178 -104 292l68 170q116 -174 116 -366q0 -102 -65 -209t-158 -107h-964zM1105 985l-109 -110l-111 110l111 109z" />
    <glyph glyph-name="afii62824" unicode="&#x646;" arabic-form="medial" 
d="M1229 0h-76q-108 0 -180.5 12t-122 65.5t-86.5 135.5q-21 -72 -90 -142.5t-133 -70.5h-541v123h526q64 0 121 39.5t57 107.5q0 107 -64 259l83 144q63 -172 63 -268q0 -127 69 -204.5t192 -77.5h182v-123zM780 944l-109 -110l-111 110l111 109z" />
    <glyph glyph-name="afii57447" unicode="&#x647;" arabic-form="isolated" 
d="M612 547q-17 9 -63 9q35 89 50 108t46 19q91 0 188 -100.5t97 -224.5q0 -121 -31.5 -204.5t-78.5 -123t-146 -38.5q-81 0 -127.5 54.5t-47.5 147.5q1 83 20.5 154.5t92.5 198.5zM676 517q-105 -167 -105 -223q0 -176 133 -176q143 0 143 144q0 109 -44 160.5t-127 94.5z
" />
    <glyph glyph-name="afii62828" unicode="&#x647;" arabic-form="final" 
d="M1229 0h-255q-56 0 -90 16t-50 44.5t-19.5 54t-12.5 163.5l-89 -75q-200 8 -262.5 22t-62.5 29q0 81 50.5 158t346.5 160q-11 122 -31 166l86 115q20 -342 53 -701q20 -29 58 -29h278v-123zM798 348l-9 149q-102 -23 -197 -64.5t-95 -76.5q0 -11 18 -16.5t86 -13.5
t104 -8q26 0 93 30z" />
    <glyph glyph-name="afii57470" unicode="&#x647;" arabic-form="initial" 
d="M792 -1q-133 75 -230 94q-113 -93 -311 -93h-251v123h110q179 0 230 4t84 26q-39 26 -39 81q0 71 57 160.5t119 123.5q-30 17 -115 17q22 95 43 112t51 17q59 0 123 -37t147.5 -134.5t83.5 -266.5q0 -88 -102 -227zM500 255l66 -15q97 104 97 187q0 50 -59 50
q-28 0 -84 -69.5t-56 -104.5q0 -34 36 -48zM808 150q7 42 7 62q0 119 -98 206q-22 -116 -81 -204q84 -25 172 -64z" />
    <glyph glyph-name="afii62827" unicode="&#x647;" arabic-form="medial" 
d="M1229 0q-314 0 -459 -23q78 -74 78 -131q0 -98 -61.5 -184t-131.5 -86q-76 0 -123 83t-47 194q0 25 13 77q-50 -23 -111 -39q7 57 41 138q-80 -29 -215 -29h-213v123h272q178 0 236 31q109 215 216 354t163 139q78 0 78 -119q0 -167 -45 -253.5t-234 -192.5
q119 41 260 41h283v-123zM586 166q128 28 226.5 130.5t98.5 152.5q0 75 -43 75q-64 0 -108.5 -56t-173.5 -302zM565 -18q-19 -76 -19 -132q0 -149 126 -149q100 0 100 78q0 57 -71.5 127.5t-135.5 75.5z" />
    <glyph glyph-name="afii57448" unicode="&#x648;" arabic-form="isolated" 
d="M869 9q-59 -11 -108 -11q-139 0 -171 37t-32 91q0 106 65 272t139 166q83 0 126.5 -147t43.5 -349q0 -184 -112.5 -331t-260.5 -147q-76 0 -219.5 30t-143.5 65q0 16 16 16q33 0 85 -12t91 -12q103 0 241 60t192.5 125.5t47.5 146.5zM847 135q0 81 -27.5 184.5
t-68.5 103.5q-40 0 -71.5 -85t-31.5 -144q0 -34 18.5 -53.5t98.5 -19.5q54 0 82 14z" />
    <glyph glyph-name="afii62829" unicode="&#x648;" arabic-form="final" 
d="M1229 123v-123h-307q-13 -158 -123.5 -284t-243.5 -126q-76 0 -219.5 30t-143.5 65q0 16 15 16q22 0 87 -12q57 -12 90 -12q88 0 219.5 52t175 92t64.5 71.5t21 110.5q-14 0 -43 -2q-30 -3 -64 -3q-109 0 -156 24.5t-47 103.5q0 106 65 272t139 166q151 0 168 -441h303z
M843 126q0 82 -27.5 189.5t-68.5 107.5q-40 0 -71.5 -85t-31.5 -144q0 -34 18.5 -53.5t98.5 -19.5q15 0 41 2q25 3 41 3z" />
    <glyph glyph-name="afii57449" unicode="&#x649;" arabic-form="isolated" 
d="M1043 516q-35 26 -86 26q-57 0 -154.5 -61.5t-97.5 -120.5q0 -35 94 -52q108 -19 157.5 -33.5t81 -49.5t31.5 -88q0 -51 -58 -172t-195 -165t-261 -44q-385 0 -385 284q0 100 48 224t85 124q10 0 10 -15q0 -12 -35 -101q-35 -90 -35 -149q0 -117 71.5 -175.5t264.5 -58.5
q134 0 277 51.5t143 124.5q0 39 -33.5 64.5t-136 42t-137.5 39.5t-35 60q0 134 108 264t234 130q72 0 72 -57q0 -50 -28 -92z" />
    <glyph glyph-name="afii62830" unicode="&#x649;" arabic-form="final" 
d="M1229 0q-44 0 -107 4q-64 4 -140 4q-225 0 -225 -69q0 -16 70 -31q138 -29 169 -54.5t31 -54.5q0 -158 -161.5 -259t-374.5 -101q-199 0 -289 84.5t-90 254.5q0 91 47 207t84 116q18 0 18 -20q0 -16 -22 -54q-51 -91 -51 -177q0 -266 340 -266q125 0 264 34t139 83
q0 50 -126 79q-125 29 -125 70q0 132 81.5 202.5t229.5 70.5h238v-123z" />
    <glyph glyph-name="afii57450" unicode="&#x64a;" arabic-form="isolated" 
d="M1043 516q-35 26 -86 26q-57 0 -154.5 -61.5t-97.5 -120.5q0 -35 94 -52q108 -19 157.5 -33.5t81 -49.5t31.5 -88q0 -51 -58 -172t-195 -165t-261 -44q-385 0 -385 284q0 100 48 224t85 124q10 0 10 -15q0 -12 -35 -101q-35 -90 -35 -149q0 -117 71.5 -175.5t264.5 -58.5
q134 0 277 51.5t143 124.5q0 39 -33.5 64.5t-136 42t-137.5 39.5t-35 60q0 134 108 264t234 130q72 0 72 -57q0 -50 -28 -92zM561 -452l-108 -109l-110 111l110 109l100 -100l109 108l110 -109l-110 -111z" />
    <glyph glyph-name="afii62833" unicode="&#x64a;" arabic-form="final" 
d="M1229 2q-41 0 -123 4t-123 4q-165 0 -165 -16q0 -14 36 -21l73 -18q65 -19 65 -75q0 -123 -179 -214q-160 -51 -322 -51q-373 0 -373 237q0 59 29 146q34 105 77 105q18 0 18 -21q0 6 -27 -82q-19 -59 -19 -106q0 -78 80 -112q79 -42 252 -42q90 0 238 31q131 36 131 71
q0 24 -36 30l-67 17q-71 24 -71 68q0 64 66 117q72 51 203 51h237v-123zM507 -483l-77 -78l-78 79l78 78l72 -71l77 77l79 -78l-79 -79z" />
    <glyph glyph-name="afii62831" unicode="&#x6cc;" arabic-form="initial" 
d="M0 0v123h885q71 0 146.5 32t75.5 65q0 178 -104 292l68 170q116 -174 116 -366q0 -102 -65 -209t-158 -107h-964zM951 -348l-108 -109l-110 111l110 109l100 -100l109 108l110 -109l-110 -111z" />
    <glyph glyph-name="afii62832" unicode="&#x6cc;" arabic-form="medial" 
d="M1229 0h-76q-108 0 -180.5 12t-122 65.5t-86.5 135.5q-21 -72 -90 -142.5t-133 -70.5h-541v123h526q64 0 121 39.5t57 107.5q0 107 -64 259l83 144q63 -172 63 -268q0 -127 69 -204.5t192 -77.5h182v-123zM789 -347l-108 -109l-110 111l110 109l100 -100l109 108
l110 -109l-110 -111z" />
    <glyph glyph-name=".notdef" 
d="M103 0v1280h1024v-1280h-1024zM135 32h960v1216h-960v-1216z" />
    <glyph glyph-name=".null" horiz-adv-x="0" 
 />
    <glyph glyph-name="nonmarkingreturn" 
 />
    <glyph glyph-name="space" unicode=" " 
 />
    <glyph glyph-name="space" unicode="&#xa0;" 
 />
    <glyph glyph-name="exclam" unicode="!" 
d="M695 1170l-38 -678q-2 -32 -13.5 -45t-28.5 -13q-18 0 -29.5 13t-13.5 45l-37 678q-2 24 -2 35q0 34 23.5 57t58.5 23t58 -23t23 -58q0 -10 -1 -34zM595 178h39q43 0 73.5 -30.5t30.5 -73.5q0 -44 -31 -74t-73 -30h-39q-43 0 -73.5 30.5t-30.5 72.5q0 45 31 75t73 30z
" />
    <glyph glyph-name="quotedbl" unicode="&#x22;" 
d="M266 1234h266l-70 -486q-6 -38 -22 -53.5t-41 -15.5t-41 15.5t-22 53.5zM695 1234h266l-70 -486q-6 -38 -22 -53.5t-40 -15.5q-26 0 -42 15.5t-21 53.5z" />
    <glyph glyph-name="numbersign" unicode="#" 
d="M800 740l-18 -264h161q30 0 43 -11.5t13 -30.5t-13 -30.5t-43 -11.5h-167l-33 -468q-2 -30 -13.5 -42t-28.5 -12l-17 4q-25 15 -25 41v15l33 462h-190l-32 -468q-2 -30 -14 -42t-28 -12l-18 4q-25 15 -25 41l1 15l32 462h-175q-30 0 -43 11.5t-13 30.5t13 30.5t43 11.5
h181l18 264h-156q-31 0 -44 11.5t-13 30.5t13 30.5t44 11.5h162l33 468q2 29 14 41.5t28 12.5l18 -4q25 -16 25 -40l-1 -16l-32 -462h189l33 468q2 29 13.5 41.5t28.5 12.5l17 -4q26 -16 26 -40l-1 -16l-33 -462h179q30 0 43 -11.5t13 -30.5t-13 -30.5t-43 -11.5h-185z
M716 740h-189l-19 -264h190z" />
    <glyph glyph-name="dollar" unicode="$" 
d="M571 1198v106q0 31 11.5 44t30.5 13t30.5 -13t11.5 -44v-106q68 -6 112 -21.5t104 -55.5q1 25 13 37t29 12q19 0 31 -13t12 -43v-125q0 -30 -12 -43t-31 -13q-16 0 -27 10.5t-15 35.5q-6 47 -62 85q-82 54 -193 54q-113 0 -186.5 -66t-73.5 -149t65 -127
q49 -34 206.5 -63.5t213.5 -55.5q80 -35 119.5 -95t39.5 -145q0 -114 -89 -200.5t-256 -103.5v-247q0 -31 -11.5 -44t-30.5 -13t-30.5 13t-11.5 44v247q-154 10 -259 100q0 -44 -3.5 -53.5t-14.5 -17t-24 -7.5q-18 0 -30 13t-12 43v164q0 30 11.5 43.5t30.5 13.5
q18 0 31 -13q9 -9 11 -40q6 -53 85.5 -108.5t215.5 -55.5q141 0 222 67t81 156q0 59 -30 101t-94 69q-42 17 -176 42q-194 38 -269 98q-76 60 -76 176q0 108 82 193t218 101z" />
    <glyph glyph-name="percent" unicode="%" 
d="M742 1016q0 -108 -75.5 -184t-180.5 -76q-106 0 -181 76t-75 184t75 183.5t181 75.5t181 -75.5t75 -183.5zM682 1016q0 83 -57.5 141t-138.5 58t-138.5 -58t-57.5 -141t57.5 -141t138.5 -58t138.5 58t57.5 141zM1014 725l-778 -253q-14 -4 -21 -4q-11 0 -19.5 9t-8.5 21
q0 10 7 20q5 6 23 12l778 253q14 4 22 4q10 0 18.5 -9t8.5 -21q0 -10 -7 -20q-5 -6 -23 -12zM1001 235q0 -108 -75.5 -183.5t-181.5 -75.5q-105 0 -180.5 76t-75.5 183q0 108 75 184t181 76t181.5 -76t75.5 -184zM940 235q0 84 -57.5 141.5t-138.5 57.5t-138.5 -58
t-57.5 -141q0 -82 57.5 -140.5t138.5 -58.5t138.5 58t57.5 141z" />
    <glyph glyph-name="ampersand" unicode="&#x26;" 
d="M852 0l-64 99q-90 -132 -232 -132q-120 0 -211 95t-91 232q0 106 61.5 188t169.5 114q-74 119 -88.5 156.5t-14.5 77.5q0 99 75 173.5t180 74.5q34 0 68 -10t68 -31q43 22 53 22q17 0 29.5 -12.5t12.5 -30.5q0 -12 -7 -22t-28 -21l-65 -35q-31 28 -63.5 41.5t-66.5 13.5
q-69 0 -120.5 -51t-51.5 -114q0 -65 90 -208l232 -369q61 115 96 266h82q30 0 43 -12t13 -30q0 -13 -7.5 -24t-17.5 -15t-49 -4q-48 -169 -110 -262l57 -86h71q30 0 43 -11.5t13 -30.5q0 -18 -13 -30t-43 -12h-114zM521 522q-84 -20 -133.5 -81.5t-49.5 -146.5
q0 -101 66.5 -172t149.5 -71q112 0 185 126z" />
    <glyph glyph-name="quotesingle" unicode="'" 
d="M481 1255h266l-70 -525q-6 -42 -22.5 -58.5t-40.5 -16.5q-25 0 -41 16.5t-22 58.5z" />
    <glyph glyph-name="parenleft" unicode="(" 
d="M605 498q0 115 30 244t115 298t124 204q12 11 26 11q18 0 30.5 -12t12.5 -29q0 -10 -7 -22q-110 -202 -157 -366t-47 -328q0 -165 47 -329t157 -365q7 -12 7 -22q0 -17 -12.5 -29.5t-30.5 -12.5q-14 0 -26 11q-37 34 -121 199t-116 292t-32 256z" />
    <glyph glyph-name="parenright" unicode=")" 
d="M639 497q0 -115 -30 -243.5t-115 -298t-124 -203.5q-12 -12 -26 -12q-18 0 -30.5 12.5t-12.5 29.5q0 10 7 22q110 201 157 365t47 328q0 165 -47 329t-157 366q-7 12 -7 22q0 17 12.5 29t30.5 12q14 0 26 -11q37 -34 121 -199t116 -292t32 -256z" />
    <glyph glyph-name="asterisk" unicode="*" 
d="M568 911v287q0 31 12 44t31 13q18 0 30 -13t12 -44v-287l273 89q19 6 29 6q16 0 28 -12.5t12 -29.5q0 -15 -8.5 -26t-34.5 -19l-273 -89l169 -232q16 -23 16 -36q0 -18 -12.5 -30.5t-29.5 -12.5q-22 0 -43 29l-169 233l-169 -233q-21 -29 -42 -29q-18 0 -30.5 12.5
t-12.5 30.5q0 13 17 36l169 232l-274 90q-25 8 -33.5 18.5t-8.5 25.5q0 17 12 29.5t27 12.5q11 0 30 -6z" />
    <glyph glyph-name="plus" unicode="+" 
d="M657 543v-420q0 -30 -12 -43t-31 -13q-18 0 -30 13t-12 43v420h-372q-30 0 -43 11.5t-13 30.5t13 30.5t43 11.5h372v418q0 30 12 43t31 13q18 0 30 -13t12 -43v-418h372q30 0 43 -11.5t13 -30.5t-13 -30.5t-43 -11.5h-372z" />
    <glyph glyph-name="comma" unicode="," 
d="M448 302h273l-297 -552q-27 -50 -65 -50q-25 0 -42.5 17.5t-17.5 42.5q0 10 3 22z" />
    <glyph glyph-name="hyphen" unicode="-" 
d="M1043 639v-120h-857v120h857z" />
    <glyph glyph-name="hyphen" unicode="&#xad;" 
d="M1043 639v-120h-857v120h857z" />
    <glyph glyph-name="period" unicode="." 
d="M597 241h36q56 0 96 -39.5t40 -95.5q0 -58 -40.5 -97t-95.5 -39h-36q-56 0 -96 39.5t-40 95.5q0 58 40.5 97t95.5 39z" />
    <glyph glyph-name="slash" unicode="/" 
d="M992 1316l-676 -1448q-17 -37 -44 -37q-17 0 -29.5 12.5t-12.5 27.5q0 12 10 33l675 1448q11 23 21 30t24 7q17 0 29.5 -12.5t12.5 -27.5q0 -11 -10 -33z" />
    <glyph glyph-name="zero" unicode="0" 
d="M1000 731v-208q0 -271 -129 -429q-101 -124 -255 -124q-74 0 -139.5 29.5t-111.5 82.5q-29 33 -63.5 106t-49.5 134q-23 86 -23 201v208q0 272 129 430q101 124 255 124q75 0 140 -29.5t111 -82.5q30 -34 64 -107t50 -133q22 -86 22 -202zM916 720q0 119 -33.5 221.5
t-75.5 163.5q-25 35 -65 60q-57 35 -128 35q-141 0 -221 -144t-80 -336v-185q0 -119 33.5 -222t76.5 -164q24 -34 64 -59q57 -36 129 -36q140 0 220 144.5t80 336.5v185z" />
    <glyph glyph-name="one" unicode="1" 
d="M656 1272v-1188h288q30 0 43 -11.5t13 -30.5q0 -18 -13 -30t-43 -12h-660q-30 0 -43 12t-13 30q0 19 13 30.5t43 11.5h288v1072l-274 -86q-20 -6 -29 -6q-15 0 -27.5 12.5t-12.5 29.5q0 15 10 28q8 8 33 17z" />
    <glyph glyph-name="two" unicode="2" 
d="M253 84h645v33q0 30 12 43t31 13q18 0 30 -13t12 -43v-117h-812v124q256 230 498 468q113 111 155 163t57.5 91.5t15.5 79.5q0 108 -87 191t-210 83q-110 0 -195 -63t-110 -156q-6 -24 -15 -31q-12 -10 -28 -10q-17 0 -28.5 11.5t-11.5 27.5q0 48 52.5 130t145 129
t189.5 47q157 0 270 -109t113 -247q0 -58 -19 -106.5t-64.5 -106t-163.5 -173.5q-296 -292 -482 -453v-6z" />
    <glyph glyph-name="three" unicode="3" 
d="M787 683q116 -52 177 -142.5t61 -188.5q0 -151 -122.5 -266.5t-306.5 -115.5q-108 0 -224 46t-162 94q-15 16 -15 34q0 16 11.5 28t27.5 12t36 -15q155 -115 328 -115q146 0 244.5 91.5t98.5 203.5q0 75 -48.5 147t-139.5 113.5t-184 41.5q-30 0 -43 11.5t-13 30.5
q0 18 12.5 30t37.5 12l72 -1q113 0 186.5 69t73.5 160q0 94 -77 166t-201 72q-87 0 -160 -30t-117 -82q-16 -20 -24.5 -24.5t-19.5 -4.5q-17 0 -29 11.5t-12 27.5q0 40 87 101q121 85 275 85q159 0 261 -95.5t102 -227.5q0 -84 -49 -159t-144 -120z" />
    <glyph glyph-name="four" unicode="4" 
d="M771 351h-557v97l467 807h175v-820h70q31 0 44 -11.5t13 -30.5q0 -18 -13 -30t-44 -12h-70v-267h70q31 0 44 -11.5t13 -30.5q0 -18 -13 -30t-44 -12h-312q-31 0 -44 12t-13 30q0 19 13 30.5t44 11.5h157v267zM771 435v735h-44l-425 -735h469z" />
    <glyph glyph-name="five" unicode="5" 
d="M383 1170v-411q74 31 142 46.5t129 15.5q158 0 264.5 -111t106.5 -292q0 -200 -120 -324t-300 -124q-119 0 -229 53q-78 37 -142 92q-38 33 -38 55q0 18 12 30.5t28 12.5q17 0 36 -18q151 -141 329 -141q147 0 243 100.5t96 267.5q0 142 -83 228.5t-211 86.5
q-131 0 -262 -69q-32 -16 -45 -16q-18 0 -29 12t-11 34v557h586q30 0 43 -12t13 -31q0 -18 -13 -30t-43 -12h-502z" />
    <glyph glyph-name="six" unicode="6" 
d="M364 531q78 115 160.5 170t183.5 55q134 0 238 -111.5t104 -275.5q0 -150 -95 -274.5t-262 -124.5q-109 0 -203.5 67t-148.5 206q-67 173 -67 383q0 158 63 294q48 105 128 184.5t186.5 130t230.5 50.5q84 0 140 -34q24 -15 24 -40q0 -18 -11 -29.5t-28 -11.5
q-13 0 -31 10q-41 20 -102 20q-195 0 -355.5 -167.5t-160.5 -398.5q0 -33 6 -103zM383 392q38 -182 119.5 -260t192.5 -78q112 0 191.5 87.5t79.5 227.5q0 131 -80 217t-181 86q-97 0 -187 -83q-60 -55 -135 -197z" />
    <glyph glyph-name="seven" unicode="7" 
d="M897 1132v38h-602v-74q0 -30 -11.5 -43t-30.5 -13q-18 0 -30 13t-12 43v159h771v-134l-338 -1080q-8 -26 -19 -34.5t-25 -8.5q-18 0 -30 12t-12 28q0 10 6 28z" />
    <glyph glyph-name="eight" unicode="8" 
d="M787 651q105 -51 158.5 -134.5t53.5 -179.5q0 -149 -112 -258t-272 -109t-272 109t-112 258q0 95 53.5 178.5t159.5 135.5q-92 53 -134 110q-58 81 -58 179q0 138 106.5 241.5t256.5 103.5q151 0 257 -103.5t106 -241.5q0 -98 -58 -178q-41 -58 -133 -111zM892 937
q0 108 -80.5 185.5t-197.5 77.5q-116 0 -196.5 -78t-80.5 -184q0 -98 79.5 -171.5t197.5 -73.5q119 0 198.5 73.5t79.5 170.5zM915 335q0 111 -86 193t-214 82t-214 -82t-86 -192q0 -114 86.5 -198t213.5 -84t213.5 84t86.5 197z" />
    <glyph glyph-name="nine" unicode="9" 
d="M959 710q-65 -115 -154.5 -173t-183.5 -58q-87 0 -168.5 50t-129.5 146.5t-48 202.5q0 154 95.5 280.5t255.5 126.5q114 0 208 -71t146 -206q67 -173 67 -402q0 -178 -57 -296q-38 -80 -111.5 -155t-165.5 -122q-126 -63 -262 -63q-90 0 -147 34q-26 16 -26 40
q0 17 12 28.5t29 11.5q12 0 35 -11q39 -19 90 -19q213 0 366 153.5t153 384.5q0 42 -4 118zM943 850q-53 203 -131.5 276.5t-183.5 73.5q-107 0 -188 -90t-81 -231q0 -137 81 -226.5t183 -89.5q59 0 116.5 32t108.5 96q33 43 95 159z" />
    <glyph glyph-name="colon" unicode=":" 
d="M597 866h36q56 0 96 -40t40 -95q0 -59 -40.5 -98t-95.5 -39h-36q-56 0 -96 40t-40 95q0 59 40.5 98t95.5 39zM597 241h36q56 0 96 -39.5t40 -95.5q0 -58 -40.5 -97t-95.5 -39h-36q-56 0 -96 39.5t-40 95.5q0 58 40.5 97t95.5 39z" />
    <glyph glyph-name="semicolon" unicode=";" 
d="M596 866h37q56 0 95.5 -40t39.5 -95q0 -59 -40 -98t-95 -39h-37q-56 0 -95.5 40t-39.5 95q0 59 40.5 98t94.5 39zM450 302h264l-283 -464q-21 -34 -33.5 -43t-29.5 -9q-24 0 -40 15t-16 36q0 12 6 31z" />
    <glyph glyph-name="semicolon" unicode="&#x37e;" 
d="M596 866h37q56 0 95.5 -40t39.5 -95q0 -59 -40 -98t-95 -39h-37q-56 0 -95.5 40t-39.5 95q0 59 40.5 98t94.5 39zM450 302h264l-283 -464q-21 -34 -33.5 -43t-29.5 -9q-24 0 -40 15t-16 36q0 12 6 31z" />
    <glyph glyph-name="less" unicode="&#x3c;" 
d="M98 583l908 506q22 12 33 12q17 0 29.5 -12.5t12.5 -29.5q0 -25 -34 -44l-778 -432l777 -432q34 -19 34 -44q0 -17 -12.5 -29.5t-29.5 -12.5q-11 0 -33 12z" />
    <glyph glyph-name="equal" unicode="=" 
d="M1073 695h-916q-30 0 -43 12t-13 31q0 18 13 30t43 12h916q30 0 43 -12t13 -31q0 -18 -13 -30t-43 -12zM1073 394h-916q-30 0 -43 11.5t-13 30.5t13 30.5t43 11.5h916q30 0 43 -11.5t13 -30.5t-13 -30.5t-43 -11.5z" />
    <glyph glyph-name="greater" unicode="&#x3e;" 
d="M1131 583l-908 -506q-22 -12 -33 -12q-17 0 -29.5 12.5t-12.5 29.5q0 25 34 44l778 432l-777 432q-34 19 -34 44q0 17 12.5 29.5t29.5 12.5q11 0 33 -12z" />
    <glyph glyph-name="question" unicode="?" 
d="M660 514v-85q0 -30 -12 -43t-30 -13q-19 0 -31 13t-12 43v141q219 81 299 162q45 45 45 113q0 112 -81.5 191.5t-211.5 79.5q-66 0 -124.5 -15t-142.5 -56v-86q0 -30 -11.5 -43t-30.5 -13q-18 0 -30 13t-12 43v141q156 69 202 81q78 19 156 19q167 0 268.5 -100
t101.5 -253q0 -94 -60.5 -166.5t-282.5 -166.5zM574 178h84q44 0 74.5 -30.5t30.5 -73.5q0 -44 -31.5 -74t-73.5 -30h-84q-43 0 -73.5 30.5t-30.5 72.5q0 45 31 75t73 30z" />
    <glyph glyph-name="at" unicode="@" 
d="M859 302v11q-25 -4 -46 -6t-39 -2q-123 0 -201.5 76t-78.5 184q0 123 97.5 211.5t267.5 88.5v97q0 110 -68 180t-170 70q-71 0 -134 -36q-43 -25 -71 -61q-48 -63 -82.5 -151.5t-34.5 -219.5v-331q0 -194 89.5 -326.5t241.5 -132.5q150 0 225 71q17 16 33 16q17 0 29 -12
t12 -28q0 -32 -60 -70q-96 -61 -251 -61q-80 0 -146.5 29.5t-111.5 81.5q-28 31 -67 106t-55 133q-23 81 -23 193v336q0 256 136 418q108 130 266 130q82 0 151 -34.5t122 -115t53 -185.5v-576q20 -2 30 -13t10 -28q0 -13 -6.5 -23.5t-16 -15t-33.5 -4.5h-68zM859 782
q-132 -1 -206.5 -66t-74.5 -149q0 -76 54.5 -127t152.5 -51q17 0 35.5 2.5t38.5 6.5v384z" />
    <glyph glyph-name="A" unicode="A" 
d="M891 391h-552l-113 -307h161q30 0 43 -11.5t13 -30.5q0 -18 -13 -30t-43 -12h-314q-30 0 -43 12t-13 30q0 19 13 30.5t43 11.5h65l371 1002h-248q-30 0 -43 11.5t-13 30.5t13 30.5t43 11.5h423l410 -1086h65q30 0 43 -11.5t13 -30.5q0 -18 -13 -30t-43 -12h-313
q-31 0 -44 12t-13 30q0 19 13 30.5t44 11.5h160zM859 475l-232 611h-31l-225 -611h488z" />
    <glyph glyph-name="B" unicode="B" 
d="M256 84v1002h-113q-30 0 -43 11.5t-13 30.5t13 30.5t43 11.5h528q157 0 255.5 -90.5t98.5 -212.5q0 -154 -165 -249q131 -47 192 -125t61 -172q0 -84 -40 -153.5t-122.5 -118.5t-179.5 -49h-628q-30 0 -43 12t-13 30q0 19 13 30.5t43 11.5h113zM340 650h297q95 0 174 35
q61 28 95 81t34 108q0 79 -74 145.5t-193 66.5h-333v-436zM340 84h425q81 0 141 36t91 89t31 110q0 64 -44.5 124t-123.5 91t-218 31h-302v-481z" />
    <glyph glyph-name="C" unicode="C" 
d="M984 1055v59q0 30 11.5 43t30.5 13t30.5 -13t11.5 -43v-233q0 -31 -11.5 -44t-30.5 -13q-17 0 -28.5 12t-13.5 39q-5 84 -91 149q-116 89 -264 89q-97 0 -183 -43q-64 -31 -102 -76q-66 -78 -105 -173q-28 -70 -28 -158v-147q0 -188 136 -326.5t316 -138.5
q108 0 193.5 47t165.5 142q17 21 38 21q18 0 29 -11t11 -28q0 -23 -43 -70q-82 -92 -184.5 -138.5t-207.5 -46.5q-91 0 -185 35q-72 27 -119 63t-115.5 121.5t-93.5 158t-25 159.5v171q0 124 66.5 253.5t182 199t250.5 69.5q208 0 358 -142z" />
    <glyph glyph-name="D" unicode="D" 
d="M285 84v1002h-71q-30 0 -43 11.5t-13 30.5t13 30.5t43 11.5h452q106 0 193.5 -44t133.5 -100q79 -95 120 -201q29 -77 29 -182v-116q0 -129 -57 -250t-190 -211q-99 -66 -229 -66h-452q-30 0 -43 12t-13 30q0 19 13 30.5t43 11.5h71zM369 84h305q106 0 198.5 69
t139 165.5t46.5 190.5v152q0 78 -25 139q-36 89 -102 169q-36 44 -106 80.5t-151 36.5h-305v-1002z" />
    <glyph glyph-name="E" unicode="E" 
d="M341 565v-481h646v248q0 30 11.5 43t30.5 13t30.5 -13t11.5 -43v-332h-927q-30 0 -43 12t-13 30q0 19 13 30.5t43 11.5h113v1002h-113q-30 0 -43 11.5t-13 30.5t13 30.5t43 11.5h883v-289q0 -30 -11.5 -43t-30.5 -13t-30.5 13t-11.5 43v205h-602v-437h301v95q0 30 12 43
t31 13q18 0 30 -13t12 -43v-274q0 -30 -12 -43t-30 -13q-19 0 -31 13t-12 43v95h-301z" />
    <glyph glyph-name="F" unicode="F" 
d="M412 565v-481h288q30 0 43 -11.5t13 -30.5q0 -18 -13 -30t-43 -12h-485q-30 0 -43 12t-13 30q0 19 13 30.5t43 11.5h113v1002h-113q-30 0 -43 11.5t-13 30.5t15 32q11 10 41 10h925v-289q0 -30 -12 -43t-30 -13q-19 0 -31 13t-12 43v205h-643v-437h301v95q0 30 12 43
t31 13q18 0 30 -13t12 -43v-274q0 -30 -12 -43t-30 -13q-19 0 -31 13t-12 43v95h-301z" />
    <glyph glyph-name="G" unicode="G" 
d="M1071 434v-360q-96 -53 -191.5 -80t-190.5 -27q-135 0 -237.5 40t-173.5 112t-110.5 161t-39.5 226v154q0 138 68.5 268.5t187.5 199.5t259 69q203 0 343 -111q0 49 3.5 59t14.5 17.5t25 7.5q18 0 30 -13t12 -43v-190q0 -31 -12 -43.5t-30 -12.5q-17 0 -28.5 11.5
t-12.5 40.5q-6 85 -110.5 139t-227.5 54q-116 0 -209.5 -50.5t-174.5 -192.5q-54 -93 -54 -211v-153q0 -209 128 -332t353 -123q76 0 141 16t152 56v311h-289q-30 0 -43 11.5t-13 30.5t13 31t43 12l404 -1q30 0 43 -11.5t13 -30.5q0 -13 -8 -24t-18 -14.5t-60 -3.5z" />
    <glyph glyph-name="H" unicode="H" 
d="M899 566h-557v-482h113q30 0 43 -11.5t13 -30.5q0 -18 -13 -30t-43 -12h-292q-30 0 -43 12t-13 30q0 19 13 30.5t43 11.5h95v1002h-52q-31 0 -44 11.5t-13 30.5t13 30.5t44 11.5h249q30 0 43 -11.5t13 -30.5t-13 -30.5t-43 -11.5h-113v-436h557v436h-112q-30 0 -43 11.5
t-13 30.5t12.5 30.5t43.5 11.5h249q31 0 44 -11.5t13 -30.5t-13 -30.5t-44 -11.5h-52v-1002h95q30 0 43 -11.5t13 -30.5q0 -18 -13 -30t-43 -12h-292q-30 0 -43 12t-13 30q0 19 12.5 30.5t43.5 11.5h112v482z" />
    <glyph glyph-name="I" unicode="I" 
d="M657 1086v-1002h288q30 0 43 -11.5t13 -30.5q0 -18 -13 -30t-43 -12h-660q-30 0 -43 12t-13 30q0 19 13 30.5t43 11.5h288v1002h-288q-30 0 -43 11.5t-13 30.5t13 30.5t43 11.5h660q30 0 43 -11.5t13 -30.5t-13 -30.5t-43 -11.5h-288z" />
    <glyph glyph-name="J" unicode="J" 
d="M943 1086v-742q0 -153 -114 -265t-272 -112q-95 0 -186.5 43.5t-199.5 142.5v310q0 30 12 43t30 13q19 0 31 -13t12 -43l-1 -270q77 -71 152.5 -106.5t149.5 -35.5q82 0 155 40q55 30 100.5 101t45.5 152v742h-329q-31 0 -44 11.5t-13 30.5t13 30.5t44 11.5h614
q30 0 43 -11.5t13 -30.5t-13 -30.5t-43 -11.5h-200z" />
    <glyph glyph-name="K" unicode="K" 
d="M342 458v-374h155q31 0 44 -11.5t13 -30.5q0 -18 -13 -30t-44 -12h-352q-30 0 -43 12t-13 30q0 19 13 30.5t43 11.5h113v1002h-113q-30 0 -43 11.5t-13 30.5t13 30.5t43 11.5h352q31 0 44 -11.5t13 -30.5t-13 -30.5t-44 -11.5h-155v-517l580 517h-92q-31 0 -44 11.5
t-13 30.5t13 30.5t44 11.5h247q30 0 43 -11.5t13 -30.5t-13 -30.5t-43 -11.5h-34l-462 -413q103 -42 171 -105t131 -179q36 -65 132 -305h105q31 0 44 -11.5t13 -30.5q0 -18 -13 -30t-44 -12h-162q-132 361 -222 464.5t-225 145.5z" />
    <glyph glyph-name="L" unicode="L" 
d="M469 1086v-1002h558v334q0 30 12 43t31 13q18 0 30 -12.5t12 -43.5v-418h-928q-30 0 -43 12t-13 30q0 19 13 30.5t43 11.5h200v1002h-200q-30 0 -43 11.5t-13 30.5t13 30.5t43 11.5h485q30 0 43 -11.5t13 -30.5t-13 -30.5t-43 -11.5h-200z" />
    <glyph glyph-name="M" unicode="M" 
d="M670 351h-96l-323 735h-16v-1002h155q30 0 43 -11.5t13 -30.5q0 -18 -13 -30t-43 -12h-310q-30 0 -43 12t-13 30q0 19 13 30.5t43 11.5h71v1002h-53q-30 0 -43 11.5t-13 30.5t13 30.5t43 11.5h206l318 -724l313 724h206q31 0 44 -11.5t13 -30.5t-13 -30.5t-44 -11.5h-52
v-1002h70q31 0 44 -11.5t13 -30.5q0 -18 -13 -30t-44 -12h-309q-30 0 -43.5 12t-13.5 30q0 19 13 30.5t44 11.5h155v1002h-18z" />
    <glyph glyph-name="N" unicode="N" 
d="M1026 0h-108l-619 1047v-963h155q31 0 44 -11.5t13 -30.5q0 -18 -13 -30t-44 -12h-309q-31 0 -44 12t-13 30q0 19 13 30.5t44 11.5h70v1002h-113q-30 0 -43 11.5t-13 30.5t13 30.5t43 11.5h220l620 -1049v965h-155q-30 0 -43 11.5t-13 30.5t12.5 30.5t43.5 11.5h310
q30 0 43 -11.5t13 -30.5t-13 -30.5t-43 -11.5h-71v-1086z" />
    <glyph glyph-name="O" unicode="O" 
d="M1128 582q0 -168 -68 -311.5t-187.5 -223.5t-256.5 -80q-203 0 -357.5 172.5t-154.5 442.5q0 271 154.5 443t357.5 172q137 0 256 -80t187.5 -223t68.5 -312zM1043 582q0 205 -119 368t-308 163q-177 0 -302.5 -155.5t-125.5 -375.5q0 -234 131.5 -382.5t296.5 -148.5
q189 0 308 162.5t119 368.5z" />
    <glyph glyph-name="P" unicode="P" 
d="M432 480v-396h288q30 0 43 -11.5t13 -30.5q0 -18 -13 -30t-43 -12h-485q-30 0 -43 12t-13 30q0 19 13 30.5t43 11.5h113v1002h-113q-30 0 -43 11.5t-13 30.5t13 30.5t43 11.5h488q173 0 282.5 -102t109.5 -239q0 -81 -35.5 -146t-85.5 -102q-75 -56 -155 -82
q-58 -19 -144 -19h-263zM432 564h268q93 0 174.5 41.5t119 101.5t37.5 122q0 99 -85 178t-215 79h-299v-522z" />
    <glyph glyph-name="Q" unicode="Q" 
d="M626 -33l-112 -84q83 17 137 17q88 0 173 -32q60 -23 93 -23q58 0 129 47q28 18 40 18q18 0 29.5 -11.5t11.5 -30.5q0 -15 -10 -26q-21 -24 -95 -56q-56 -25 -110 -25q-42 0 -116 27t-143 27q-49 0 -121 -12q-101 -17 -162 -34q-20 -5 -29 -5q-17 0 -29 12t-12 32t23 36
l187 135q-167 41 -286.5 206t-119.5 397q0 271 154.5 443t357.5 172t357.5 -172t154.5 -443q0 -267 -152 -439.5t-350 -175.5zM1043 582q0 205 -119 368t-308 163q-177 0 -302.5 -155.5t-125.5 -375.5q0 -234 131.5 -382.5t296.5 -148.5q189 0 308 162.5t119 368.5z" />
    <glyph glyph-name="R" unicode="R" 
d="M341 522v-438h155q31 0 44 -11.5t13 -30.5q0 -18 -13 -30t-44 -12h-352q-30 0 -43 12t-13 30q0 19 13 30.5t43 11.5h113v1002h-113q-30 0 -43 11.5t-13 30.5t13 30.5t43 11.5h508q157 0 264.5 -99.5t107.5 -224.5q0 -90 -66.5 -169.5t-222.5 -132.5q90 -62 154 -140
t205 -320h64q30 0 43 -11.5t13 -30.5q0 -18 -13 -30t-43 -12h-112q-156 279 -241.5 374t-196.5 148h-267zM341 606h229q110 0 199.5 40t130 94t40.5 110q0 84 -84.5 160t-205.5 76h-309v-480z" />
    <glyph glyph-name="S" unicode="S" 
d="M915 1086v28q0 30 11.5 43t30.5 13t30.5 -13t11.5 -43v-214q0 -30 -11.5 -43t-30.5 -13q-18 0 -29.5 12t-12.5 39q-5 84 -86.5 151t-213.5 67q-139 0 -221 -71.5t-82 -168.5q0 -50 23 -91t61 -66.5t86 -41t150 -32.5q171 -28 236 -57q87 -39 131.5 -108t44.5 -163
q0 -144 -115 -245.5t-310 -101.5q-219 0 -350 137v-48q0 -30 -11.5 -43t-30.5 -13q-18 0 -30 13t-12 43v232q0 31 11.5 44t30.5 13q18 0 29.5 -12t12.5 -39q5 -92 98.5 -167.5t251.5 -75.5t249.5 79t91.5 187q0 66 -35 117.5t-104 81.5q-48 21 -200 47q-209 35 -301 107
t-92 205q0 132 105.5 227t278.5 95q176 0 303 -111z" />
    <glyph glyph-name="T" unicode="T" 
d="M656 1086v-1002h218q30 0 43 -11.5t13 -30.5q0 -18 -13 -30t-43 -12h-521q-30 0 -43 12t-13 30q0 19 13 30.5t43 11.5h218v1002h-344v-291q0 -31 -11.5 -44t-30.5 -13q-18 0 -30 13t-12 44v375h941v-375q0 -31 -11.5 -44t-30.5 -13t-30.5 13t-11.5 44v291h-344z" />
    <glyph glyph-name="U" unicode="U" 
d="M1021 1086v-702q0 -177 -118 -297t-285 -120q-112 0 -199 49t-148 148.5t-61 219.5v702h-71q-30 0 -43 11.5t-13 30.5t14 32q12 10 42 10h310q30 0 43 -11.5t13 -30.5t-13 -30.5t-43 -11.5h-155v-702q0 -139 95 -236t225 -97q83 0 151.5 38t120 117t51.5 178v702h-155
q-30 0 -43 11.5t-13 30.5t13 30.5t43 11.5h310q30 0 43 -11.5t13 -30.5t-13 -30.5t-43 -11.5h-71z" />
    <glyph glyph-name="V" unicode="V" 
d="M677 0h-117l-423 1086h-65q-23 0 -33 4.5t-16.5 15t-6.5 22.5t6.5 22.5t16.5 15t33 4.5h313q24 0 33.5 -4.5t16 -15t6.5 -22.5t-7 -22.5t-16.5 -15t-32.5 -4.5h-161l390 -1002h6l385 1002h-160q-24 0 -34 4.5t-16.5 15t-6.5 22.5t7 22.5t16.5 15t33.5 4.5h312
q24 0 34 -4.5t16.5 -15t6.5 -22.5t-7 -22.5t-16.5 -15t-33.5 -4.5h-64z" />
    <glyph glyph-name="W" unicode="W" 
d="M983 0h-132l-238 831l-233 -831h-132l-124 1086h-31q-30 0 -43 11.5t-13 30.5t13 30.5t43 11.5h312q31 0 44 -11.5t13 -30.5t-13 -30.5t-44 -11.5h-196l111 -990l227 815h129l233 -815l109 990h-197q-30 0 -43 11.5t-13 30.5t13 30.5t43 11.5h310q31 0 44 -11.5t13 -30.5
t-13 -30.5t-44 -11.5h-31z" />
    <glyph glyph-name="X" unicode="X" 
d="M665 599l399 -515h32q30 0 43 -11.5t13 -30.5q0 -18 -13 -30t-43 -12h-270q-30 0 -43 12t-13 30q0 19 13 30.5t43 11.5h134l-347 446l-343 -446h134q30 0 43 -11.5t13 -30.5q0 -18 -13 -30t-43 -12h-268q-30 0 -43 12t-13 30q0 14 8 25t18 14t61 3l394 515l-376 487h-31
q-30 0 -43 11.5t-13 30.5t13 30.5t43 11.5h229q31 0 44 -11.5t13 -30.5t-13 -30.5t-44 -11.5h-94l324 -419l322 419h-94q-31 0 -44 11.5t-13 30.5t13 30.5t44 11.5h230q30 0 43 -11.5t13 -30.5t-13 -30.5t-43 -11.5h-32z" />
    <glyph glyph-name="Y" unicode="Y" 
d="M659 528v-444h218q30 0 43 -11.5t13 -30.5q0 -18 -13 -30t-43 -12h-521q-30 0 -43 12t-13 30q0 19 12.5 30.5t43.5 11.5h218v444l-369 558h-50q-30 0 -43 11.5t-13 30.5t13 30.5t43 11.5h231q30 0 43 -11.5t13 -30.5t-13 -30.5t-43 -11.5h-83l314 -473l307 473h-82
q-31 0 -44 11.5t-13 30.5t13 30.5t44 11.5h230q30 0 43 -11.5t13 -30.5t-13 -30.5t-43 -11.5h-50z" />
    <glyph glyph-name="Z" unicode="Z" 
d="M1022 0h-809v122l682 957v7h-559v-247q0 -31 -12 -44t-31 -13q-18 0 -30 13t-12 44v331h725v-119l-682 -958v-9h644v293q0 31 11.5 44t30.5 13t30.5 -13t11.5 -44v-377z" />
    <glyph glyph-name="bracketleft" unicode="[" 
d="M657 1170v-1345h204q30 0 43 -11.5t13 -30.5t-13 -30.5t-43 -11.5h-288v1514h288q30 0 43 -12t13 -31q0 -18 -13 -30t-43 -12h-204z" />
    <glyph glyph-name="backslash" unicode="\" 
d="M314 1346l675 -1448q10 -22 10 -32q0 -16 -12.5 -28.5t-29.5 -12.5q-28 0 -45 37l-675 1449q-10 21 -10 32q0 16 12.5 28t29.5 12q27 0 45 -37z" />
    <glyph glyph-name="bracketright" unicode="]" 
d="M575 -175v1345h-203q-30 0 -43 12t-13 30q0 19 13 31t43 12h288v-1514h-288q-30 0 -43 11.5t-13 30.5q0 18 13 30t43 12h203z" />
    <glyph glyph-name="asciicircum" unicode="^" 
d="M614 1279l369 -463q18 -23 18 -37q0 -18 -12.5 -30t-30.5 -12q-20 0 -42 26l-302 384l-302 -384q-21 -27 -41 -27q-18 0 -30.5 12.5t-12.5 30.5q0 14 18 37z" />
    <glyph glyph-name="underscore" unicode="_" 
d="M1173 -561h-1117q-30 0 -43 11.5t-13 30.5t13 30.5t43 11.5h1117q31 0 43.5 -11.5t12.5 -30.5t-12.5 -30.5t-43.5 -11.5z" />
    <glyph glyph-name="grave" unicode="`" 
d="M525 1309l236 -204l22 -25q3 -5 3 -16q0 -18 -12.5 -30.5t-30.5 -12.5q-15 0 -38 20l-236 204q-25 22 -25 41q0 18 12.5 30.5t30.5 12.5q15 0 38 -20z" />
    <glyph glyph-name="a" unicode="a" 
d="M856 0v121q-183 -154 -391 -154q-151 0 -236 76.5t-85 187.5q0 122 112 213t327 91q58 0 126 -7.5t147 -23.5v136q0 69 -64 120t-192 51q-98 0 -275 -57q-32 -10 -41 -10q-16 0 -27.5 12t-11.5 30q0 17 10 27q14 15 113 41q156 42 236 42q159 0 248 -78.5t89 -177.5v-556
h112q31 0 44 -11.5t13 -30.5q0 -18 -13 -30t-44 -12h-197zM856 418q-59 17 -125 25t-139 8q-183 0 -286 -79q-78 -59 -78 -141q0 -76 59.5 -128t173.5 -52q109 0 202.5 43.5t192.5 138.5v185z" />
    <glyph glyph-name="b" unicode="b" 
d="M298 1255v-557q152 198 367 198q184 0 315 -133.5t131 -327.5q0 -196 -132.5 -332t-313.5 -136q-220 0 -367 198v-165h-197q-30 0 -43 12t-13 30q0 19 13 30.5t43 11.5h113v1086h-113q-30 0 -43 12t-13 31q0 18 13 30t43 12h197zM1027 431q0 159 -109 269.5t-255 110.5
t-255 -110.5t-109 -269.5t109 -269.5t255 -110.5t255 110.5t109 269.5z" />
    <glyph glyph-name="c" unicode="c" 
d="M965 781v28q0 31 12 44t30 13q19 0 31 -13t12 -44v-190q-1 -31 -12.5 -44t-30.5 -13q-17 0 -28.5 11.5t-13.5 38.5q-6 71 -93.5 135t-235.5 64q-187 0 -284 -117t-97 -268q0 -163 107 -269t277 -106q98 0 199.5 36t183.5 116q21 20 37 20q17 0 28.5 -11.5t11.5 -28.5
q0 -43 -101 -109q-163 -107 -363 -107q-203 0 -333.5 129.5t-130.5 328.5q0 203 133.5 337t336.5 134q193 0 324 -115z" />
    <glyph glyph-name="d" unicode="d" 
d="M1026 1255v-1171h112q31 0 44 -11.5t13 -30.5q0 -18 -13 -30t-44 -12h-197v167q-146 -200 -371 -200q-114 0 -218.5 60.5t-165 172.5t-60.5 231q0 120 60.5 231.5t165 172.5t219.5 61q220 0 370 -200v474h-112q-31 0 -44 12t-13 31q0 18 13 30t44 12h197zM941 431
q0 160 -108 270t-257 110q-150 0 -258 -110t-108 -270q0 -159 108 -269.5t258 -110.5q149 0 257 110.5t108 269.5z" />
    <glyph glyph-name="e" unicode="e" 
d="M1069 413h-856q22 -163 136.5 -262.5t283.5 -99.5q94 0 197 31t168 82q19 15 33 15q16 0 28 -12.5t12 -29.5t-16 -33q-48 -50 -170.5 -93.5t-251.5 -43.5q-216 0 -360.5 141.5t-144.5 342.5q0 183 135.5 314t335.5 131q206 0 339 -134.5t131 -348.5zM984 498
q-25 139 -131.5 226t-253.5 87t-253 -86t-132 -227h770z" />
    <glyph glyph-name="f" unicode="f" 
d="M559 781v-697h369q30 0 43 -11.5t13 -30.5q0 -18 -13 -30t-43 -12h-657q-30 0 -43 12t-13 30q0 19 13 30.5t43 11.5h203v697h-182q-30 0 -43 12t-13 31q0 18 13 30t43 12h182v127q0 106 86 184t228 78q119 0 254 -22q51 -8 61.5 -19t10.5 -29t-12 -29.5t-32 -11.5
q-8 0 -27 3q-151 23 -255 23q-110 0 -169.5 -54t-59.5 -123v-127h393q30 0 43 -12t13 -31q0 -18 -13 -30t-43 -12h-393z" />
    <glyph glyph-name="g" unicode="g" 
d="M897 712v154h197q30 0 43 -12t13 -31q0 -18 -13 -30t-43 -12h-113v-839q0 -84 -36 -150q-24 -44 -80 -91t-102 -67t-123 -20h-238q-30 0 -43 11.5t-13 30.5t13 31t43 12l241 -1q74 0 133.5 38t98.5 111q22 42 22 107v252q-135 -185 -348 -185q-173 0 -298.5 128.5
t-125.5 309.5t125.5 309t298.5 128q213 0 348 -184zM897 459q0 148 -101.5 250t-242.5 102t-242 -102.5t-101 -249.5q0 -148 101 -250.5t242 -102.5t242.5 102.5t101.5 250.5z" />
    <glyph glyph-name="h" unicode="h" 
d="M338 1255v-517q80 87 153.5 122.5t164.5 35.5q98 0 166.5 -34.5t114.5 -106t46 -150.5v-521h94q31 0 43.5 -11.5t12.5 -30.5q0 -18 -12.5 -30t-43.5 -12h-273q-31 0 -44 12t-13 30q0 19 13 30.5t44 11.5h94v515q0 91 -65.5 152t-182.5 61q-92 0 -157 -45
q-47 -32 -155 -151v-532h95q30 0 43 -11.5t13 -30.5q0 -18 -13 -30t-43 -12h-274q-30 0 -43 12t-13 30q0 19 13 30.5t43 11.5h95v1086h-113q-30 0 -43 12t-13 31q0 18 13 30t43 12h197z" />
    <glyph glyph-name="i" unicode="i" 
d="M656 1297v-217h-124v217h124zM659 866v-782h330q31 0 44 -11.5t13 -30.5q0 -18 -13 -30t-44 -12h-744q-30 0 -43 12t-13 30q0 19 13 30.5t43 11.5h330v697h-245q-30 0 -43.5 12t-13.5 30q0 19 13 31t44 12h329z" />
    <glyph glyph-name="j" unicode="j" 
d="M735 1297v-217h-124v217h124zM740 781h-499q-30 0 -43 12t-13 31q0 18 12.5 30t43.5 12h583v-925q0 -107 -44 -179t-132 -117q-61 -31 -145 -31h-267q-30 0 -43 11.5t-13 30.5t13 31t43 12l265 -1q107 0 173 70t66 173v840z" />
    <glyph glyph-name="k" unicode="k" 
d="M444 374v-374h-197q-30 0 -43 12t-13 30q0 19 13 30.5t43 11.5h113v1086h-113q-30 0 -43 12t-13 31q0 18 13 30t43 12h197v-774l357 300h-43q-30 0 -43 12t-13 30q0 19 13 31t43 12h269q31 0 44 -12t13 -31q0 -18 -13 -30t-44 -12h-97l-328 -274l415 -423h97
q31 0 44 -11.5t13 -30.5q0 -18 -13 -30t-44 -12h-272q-30 0 -43 12t-13 30q0 19 13 30.5t43 11.5h59l-361 371z" />
    <glyph glyph-name="l" unicode="l" 
d="M657 1255v-1171h330q31 0 44 -11.5t13 -30.5q0 -18 -13 -30t-44 -12h-744q-30 0 -43 12t-13 30q0 19 13 30.5t43 11.5h330v1086h-242q-30 0 -43.5 12t-13.5 31q0 18 13 30t44 12h326z" />
    <glyph glyph-name="m" unicode="m" 
d="M232 866v-85q107 115 215 115q65 0 114 -34.5t82 -104.5q56 70 113.5 104.5t115.5 34.5q91 0 145 -59q71 -76 71 -166v-587h71q30 0 43 -11.5t13 -30.5q0 -18 -13 -30t-43 -12h-155v663q0 64 -39 106t-90 42q-46 0 -97 -34.5t-116 -135.5v-557h70q30 0 43 -11.5t13 -30.5
q0 -18 -13 -30t-43 -12h-155v657q0 67 -39.5 110.5t-88.5 43.5q-45 0 -89 -29q-61 -41 -128 -141v-557h71q30 0 43 -11.5t13 -30.5q0 -18 -13 -30t-43 -12h-226q-30 0 -43 12t-13 30q0 19 13 30.5t43 11.5h71v697h-71q-30 0 -43 12t-13 31q0 18 13 30t43 12h155z" />
    <glyph glyph-name="n" unicode="n" 
d="M343 866v-127q88 89 159 123t160 34q96 0 175 -41q56 -30 101.5 -99.5t45.5 -142.5v-529h71q30 0 43 -11.5t13 -30.5q0 -18 -13 -30t-43 -12h-225q-31 0 -44 12t-13 30q0 19 13 30.5t44 11.5h70v515q0 89 -65 150.5t-174 61.5q-83 0 -144 -33.5t-174 -166.5v-527h95
q30 0 43 -11.5t13 -30.5q0 -18 -13 -30t-43 -12h-274q-30 0 -43 12t-13 30q0 19 13 30.5t43 11.5h95v697h-71q-30 0 -43 12t-13 31q0 18 13 30t43 12h155z" />
    <glyph glyph-name="o" unicode="o" 
d="M1084 431q0 -192 -137.5 -328t-331.5 -136q-196 0 -333 136.5t-137 327.5q0 192 137 328.5t333 136.5q194 0 331.5 -136t137.5 -329zM999 431q0 158 -112.5 269t-272.5 111t-272.5 -111.5t-112.5 -268.5q0 -156 112.5 -268t272.5 -112t272.5 111.5t112.5 268.5z" />
    <glyph glyph-name="p" unicode="p" 
d="M298 866v-153q75 91 161 137t203 46q124 0 229 -58t162.5 -161.5t57.5 -217.5q0 -181 -129.5 -309.5t-318.5 -128.5q-225 0 -365 183v-506h204q30 0 43 -11.5t13 -30.5q0 -18 -13 -30t-43 -12h-401q-30 0 -43 11.5t-13 30.5t13 30.5t43 11.5h113v1083h-113q-30 0 -43 12
t-13 31q0 18 13 30t43 12h197zM1026 459q0 145 -105.5 248.5t-257.5 103.5q-153 0 -259 -104t-106 -248q0 -145 106 -249t259 -104q151 0 257 103.5t106 249.5z" />
    <glyph glyph-name="q" unicode="q" 
d="M940 713v153h197q31 0 44 -12t13 -31q0 -18 -13 -30t-44 -12h-112v-1083h112q31 0 44 -11.5t13 -30.5q0 -18 -13 -30t-44 -12h-400q-30 0 -43 11.5t-13 30.5t13 30.5t43 11.5h203v506q-139 -183 -365 -183q-188 0 -317.5 128.5t-129.5 309.5q0 182 129.5 309.5
t319.5 127.5q224 0 363 -183zM940 459q0 145 -106 248.5t-258 103.5t-258 -103.5t-106 -248.5t106 -249t258 -104t258 104t106 249z" />
    <glyph glyph-name="r" unicode="r" 
d="M514 866v-212q164 148 245.5 190.5t150.5 42.5q75 0 139.5 -50.5t64.5 -76.5q0 -19 -12.5 -31.5t-31.5 -12.5q-10 0 -17 3.5t-26 22.5q-35 35 -61 48t-51 13q-55 0 -132.5 -44t-268.5 -215v-460h372q31 0 44 -11.5t13 -30.5q0 -18 -13 -30t-44 -12h-659q-30 0 -43 11.5
t-13 29.5q0 17 12.5 28.5t43.5 11.5h203v700h-155q-30 0 -43 12t-13 31q0 18 12.5 30t43.5 12h239z" />
    <glyph glyph-name="s" unicode="s" 
d="M892 811q0 29 12 42t30 13q19 0 31 -13t12 -44v-144q0 -30 -12 -43t-31 -13q-17 0 -28.5 11t-13.5 36q-6 60 -62 99q-82 56 -217 56q-141 0 -219 -57q-59 -43 -59 -96q0 -60 70 -100q48 -28 182 -43q175 -19 243 -43q97 -35 144.5 -97t47.5 -134q0 -107 -103 -190.5
t-302 -83.5t-326 101q0 -34 -4 -44t-14.5 -17t-23.5 -7q-18 0 -30 13t-12 43v173q0 30 11.5 43t30.5 13q18 0 30.5 -12.5t12.5 -33.5q0 -46 23 -77q35 -48 111.5 -79.5t187.5 -31.5q164 0 244 61t80 129q0 78 -81 125q-82 47 -238.5 63t-224.5 42t-106 78t-38 112
q0 108 106 171.5t253 63.5q174 0 283 -85z" />
    <glyph glyph-name="t" unicode="t" 
d="M442 866h456q30 0 43 -12t13 -31q0 -18 -13 -30t-43 -12h-456v-559q0 -73 58.5 -122t171.5 -49q85 0 184 25.5t154 57.5q20 13 33 13q16 0 28 -12.5t12 -29.5q0 -15 -13 -28q-32 -33 -155.5 -71.5t-236.5 -38.5q-147 0 -234 69t-87 186v559h-155q-30 0 -43 12t-13 31
q0 18 13 30t43 12h155v248q0 30 12 43t30 13q19 0 31 -13t12 -43v-248z" />
    <glyph glyph-name="u" unicode="u" 
d="M902 0v123q-172 -156 -372 -156q-123 0 -187 67q-83 88 -83 205v542h-113q-30 0 -43 12t-13 31q0 18 13 30t43 12h197v-627q0 -82 52 -135t130 -53q205 0 376 188v542h-155q-30 0 -43 12t-13 31q0 18 13 30t43 12h239v-782h71q30 0 43 -11.5t13 -30.5q0 -18 -13 -30
t-43 -12h-155z" />
    <glyph glyph-name="v" unicode="v" 
d="M688 0h-142l-345 781h-86q-30 0 -43 12t-13 31q0 18 13 30t43 12h315q30 0 43 -12t13 -31q0 -18 -13 -30t-43 -12h-139l308 -697h37l302 697h-140q-30 0 -43 12t-13 31q0 18 13 30t43 12h316q31 0 43.5 -12t12.5 -31q0 -18 -12.5 -30t-43.5 -12h-85z" />
    <glyph glyph-name="w" unicode="w" 
d="M904 0l-104 -1l-185 540l-184 -540l-104 1l-174 781h-41q-30 0 -43 12t-13 31q0 18 13 30t43 12h231q30 0 43 -12t13 -31q0 -18 -13 -30t-43 -12h-107l149 -666l179 532h100l184 -532l143 666h-106q-30 0 -43.5 12t-13.5 31q0 18 13 30t44 12h230q31 0 44 -12t13 -31
q0 -18 -13 -30t-44 -12h-40z" />
    <glyph glyph-name="x" unicode="x" 
d="M672 453l385 -369q38 0 48 -3.5t17.5 -14.5t7.5 -24q0 -18 -13 -30t-44 -12h-270q-31 0 -44 12t-13 30q0 19 13 30.5t44 11.5h139l-327 313l-325 -313h140q30 0 43 -11.5t13 -30.5q0 -18 -13 -30t-43 -12h-273q-30 0 -43 12t-13 30q0 13 7.5 24t17 14.5t47.5 3.5l385 369
l-342 328q-36 0 -45.5 4t-17 15t-7.5 24q0 18 13 30t44 12h229q31 0 43.5 -12t12.5 -31q0 -18 -12.5 -30t-43.5 -12h-100l283 -273l285 273h-100q-30 0 -43.5 12t-13.5 31q0 18 13 30t44 12h229q30 0 43 -12t13 -31q0 -12 -7.5 -23t-17 -15t-45.5 -4z" />
    <glyph glyph-name="y" unicode="y" 
d="M620 0l-390 781h-25q-30 0 -43 12t-13 30q0 13 6.5 23.5t17 15t32.5 4.5h230q30 0 43 -12t13 -31q0 -18 -13 -30t-43 -12h-113l343 -689l338 689h-113q-30 0 -43 12t-13 31q0 18 13 30t43 12h229q31 0 44 -12t13 -31q0 -13 -8 -24t-18 -14.5t-56 -3.5l-532 -1083h131
q30 0 43 -11.5t13 -30.5q0 -18 -13 -30t-43 -12h-484q-30 0 -43 11.5t-13 30.5t13 30.5t43 11.5h263z" />
    <glyph glyph-name="z" unicode="z" 
d="M982 866v-75l-629 -707h568v116q0 30 11.5 43t30.5 13t31 -13t12 -43l-1 -200h-768v75l626 706h-522v-114q0 -30 -12 -43t-30 -13q-19 0 -31 13t-12 43v199h726z" />
    <glyph glyph-name="braceleft" unicode="{" 
d="M566 498q50 -38 68 -72q23 -45 23 -107v-359q0 -57 33 -93.5t82 -41.5q31 -3 41 -12q13 -12 13 -30q0 -19 -13 -30.5t-38 -11.5q-79 0 -132 50q-71 69 -71 168v360q0 55 -33 92.5t-84 41.5q-28 3 -39 14t-11 31q0 19 11 30t39 14q52 4 84.5 41.5t32.5 92.5v360
q0 94 60 156.5t144 62.5q24 0 37 -12t13 -30t-13 -30q-9 -10 -41 -13q-50 -5 -82.5 -42t-32.5 -92v-360q0 -63 -20 -101.5t-71 -76.5z" />
    <glyph glyph-name="bar" unicode="|" 
d="M657 1198l-1 -1401q0 -30 -11.5 -43t-30.5 -13q-18 0 -30 13t-12 43v1401q0 31 12 44t30 13q19 0 31 -13t12 -44z" />
    <glyph glyph-name="braceright" unicode="}" 
d="M664 498q-51 38 -68 72q-23 44 -23 106v360q0 56 -33 93t-82 41q-32 3 -41 12q-13 13 -13 31t12.5 30t37.5 12q80 0 132 -51q71 -68 71 -168v-360q0 -55 33.5 -92.5t84.5 -41.5q27 -3 38.5 -14t11.5 -30q0 -20 -11.5 -31t-38.5 -14q-52 -4 -85 -41.5t-33 -92.5v-360
q0 -94 -60 -156.5t-143 -62.5q-25 0 -37.5 12t-12.5 31q0 18 12 30q10 9 42 12q50 5 82.5 42.5t32.5 92.5v359q0 63 20 102t71 77z" />
    <glyph glyph-name="asciitilde" unicode="~" 
d="M1003 668q16 0 28 -12t12 -28q0 -35 -87 -115.5t-160 -80.5q-45 0 -91 25.5t-131 105.5q-57 54 -86.5 71t-53.5 17q-29 0 -55 -16q-35 -20 -96 -91q-29 -33 -37.5 -38t-18.5 -5q-17 0 -28.5 11.5t-11.5 28.5q0 16 26 49q66 82 118 113.5t101 31.5q41 0 81 -19.5
t103 -76.5q101 -93 125.5 -107.5t48.5 -14.5q71 0 151 102q29 37 39 43t23 6z" />
    <glyph glyph-name="Adieresis" unicode="&#xc4;" 
d="M891 391h-552l-113 -307h161q30 0 43 -11.5t13 -30.5q0 -18 -13 -30t-43 -12h-314q-30 0 -43 12t-13 30q0 19 13 30.5t43 11.5h65l371 1002h-248q-30 0 -43 11.5t-13 30.5t13 30.5t43 11.5h423l410 -1086h65q30 0 43 -11.5t13 -30.5q0 -18 -13 -30t-43 -12h-313
q-31 0 -44 12t-13 30q0 19 13 30.5t44 11.5h160zM859 475l-232 611h-31l-225 -611h488zM392 1414q0 -34 -24 -57.5t-58 -23.5q-33 0 -57 24t-24 57q0 34 24 58t57 24q34 0 58 -24t24 -58zM821 1414q0 -34 -24 -57.5t-58 -23.5t-57.5 24t-23.5 57q0 34 23.5 58t57.5 24
t58 -24t24 -58z" />
    <glyph glyph-name="Aring" unicode="&#xc5;" 
d="M891 391h-552l-113 -307h161q30 0 43 -11.5t13 -30.5q0 -18 -13 -30t-43 -12h-314q-30 0 -43 12t-13 30q0 19 13 30.5t43 11.5h65l371 1002h-248q-30 0 -43 11.5t-13 30.5t13 30.5t43 11.5h423l410 -1086h65q30 0 43 -11.5t13 -30.5q0 -18 -13 -30t-43 -12h-313
q-31 0 -44 12t-13 30q0 19 13 30.5t44 11.5h160zM859 475l-232 611h-31l-225 -611h488zM744 1425q0 -73 -53 -125.5t-128 -52.5t-128 52.5t-53 125.5t53 125.5t128 52.5t128 -52.5t53 -125.5zM684 1425q0 49 -35.5 83.5t-85.5 34.5q-51 0 -86 -35t-35 -83t35.5 -83t85.5 -35
t85.5 34.5t35.5 83.5z" />
    <glyph glyph-name="Ccedilla" unicode="&#xc7;" 
d="M984 1055v59q0 30 11.5 43t30.5 13t30.5 -13t11.5 -43v-233q0 -31 -11.5 -44t-30.5 -13q-17 0 -28.5 12t-13.5 39q-5 84 -91 149q-116 89 -264 89q-97 0 -183 -43q-64 -31 -102 -76q-66 -78 -105 -173q-28 -70 -28 -158v-147q0 -188 136 -326.5t316 -138.5
q108 0 193.5 47t165.5 142q17 21 38 21q18 0 29 -11t11 -28q0 -23 -43 -70q-82 -92 -184.5 -138.5t-207.5 -46.5q-91 0 -185 35q-72 27 -119 63t-115.5 121.5t-93.5 158t-25 159.5v171q0 124 66.5 253.5t182 199t250.5 69.5q208 0 358 -142zM592 -163v153q0 22 8.5 31
t21.5 9q14 0 22 -9.5t8 -30.5v-96q56 -8 87 -38.5t31 -71.5q0 -49 -37.5 -83t-106.5 -34q-47 0 -101 18.5t-67 33.5q-10 11 -10 23q0 13 8.5 21.5t21.5 8.5q10 0 23 -7q68 -38 125 -38q39 0 61 18.5t22 40.5q0 19 -17 33q-23 18 -59 18h-41z" />
    <glyph glyph-name="Eacute" unicode="&#xc9;" 
d="M341 565v-481h646v248q0 30 11.5 43t30.5 13t30.5 -13t11.5 -43v-332h-927q-30 0 -43 12t-13 30q0 19 13 30.5t43 11.5h113v1002h-113q-30 0 -43 11.5t-13 30.5t13 30.5t43 11.5h883v-289q0 -30 -11.5 -43t-30.5 -13t-30.5 13t-11.5 43v205h-602v-437h301v95q0 30 12 43
t31 13q18 0 30 -13t12 -43v-274q0 -30 -12 -43t-30 -13q-19 0 -31 13t-12 43v95h-301zM763 1512l-237 -204q-22 -20 -38 -20q-17 0 -29.5 12.5t-12.5 30.5q0 10 4.5 18t20.5 23l236 204q23 20 39 20q17 0 29.5 -12.5t12.5 -30.5q0 -10 -4.5 -18.5t-20.5 -22.5z" />
    <glyph glyph-name="Ntilde" unicode="&#xd1;" 
d="M1026 0h-108l-619 1047v-963h155q31 0 44 -11.5t13 -30.5q0 -18 -13 -30t-44 -12h-309q-31 0 -44 12t-13 30q0 19 13 30.5t44 11.5h70v1002h-113q-30 0 -43 11.5t-13 30.5t13 30.5t43 11.5h220l620 -1049v965h-155q-30 0 -43 11.5t-13 30.5t12.5 30.5t43.5 11.5h310
q30 0 43 -11.5t13 -30.5t-13 -30.5t-43 -11.5h-71v-1086zM890 1435q17 0 29.5 -12t12.5 -27q0 -17 -13 -32q-40 -45 -95 -74q-38 -21 -79 -21q-64 0 -173 79q-58 43 -90 43q-40 0 -101 -56q-27 -25 -46 -25q-18 0 -29.5 12t-11.5 28q0 26 51 66q78 59 136 59q30 0 61 -12.5
t101 -60.5t102 -48q38 0 115 68q16 13 30 13z" />
    <glyph glyph-name="Odieresis" unicode="&#xd6;" 
d="M1128 582q0 -168 -68 -311.5t-187.5 -223.5t-256.5 -80q-203 0 -357.5 172.5t-154.5 442.5q0 271 154.5 443t357.5 172q137 0 256 -80t187.5 -223t68.5 -312zM1043 582q0 205 -119 368t-308 163q-177 0 -302.5 -155.5t-125.5 -375.5q0 -234 131.5 -382.5t296.5 -148.5
q189 0 308 162.5t119 368.5zM392 1414q0 -34 -24 -57.5t-58 -23.5q-33 0 -57 24t-24 57q0 34 24 58t57 24q34 0 58 -24t24 -58zM821 1414q0 -34 -24 -57.5t-58 -23.5t-57.5 24t-23.5 57q0 34 23.5 58t57.5 24t58 -24t24 -58z" />
    <glyph glyph-name="Udieresis" unicode="&#xdc;" 
d="M1021 1086v-702q0 -177 -118 -297t-285 -120q-112 0 -199 49t-148 148.5t-61 219.5v702h-71q-30 0 -43 11.5t-13 30.5t14 32q12 10 42 10h310q30 0 43 -11.5t13 -30.5t-13 -30.5t-43 -11.5h-155v-702q0 -139 95 -236t225 -97q83 0 151.5 38t120 117t51.5 178v702h-155
q-30 0 -43 11.5t-13 30.5t13 30.5t43 11.5h310q30 0 43 -11.5t13 -30.5t-13 -30.5t-43 -11.5h-71zM483 1414q0 -34 -24 -57.5t-58 -23.5q-33 0 -57 24t-24 57q0 34 24 58t57 24q34 0 58 -24t24 -58zM912 1414q0 -34 -24 -57.5t-58 -23.5t-57.5 24t-23.5 57q0 34 23.5 58
t57.5 24t58 -24t24 -58z" />
    <glyph glyph-name="aacute" unicode="&#xe1;" 
d="M856 0v121q-183 -154 -391 -154q-151 0 -236 76.5t-85 187.5q0 122 112 213t327 91q58 0 126 -7.5t147 -23.5v136q0 69 -64 120t-192 51q-98 0 -275 -57q-32 -10 -41 -10q-16 0 -27.5 12t-11.5 30q0 17 10 27q14 15 113 41q156 42 236 42q159 0 248 -78.5t89 -177.5v-556
h112q31 0 44 -11.5t13 -30.5q0 -18 -13 -30t-44 -12h-197zM856 418q-59 17 -125 25t-139 8q-183 0 -286 -79q-78 -59 -78 -141q0 -76 59.5 -128t173.5 -52q109 0 202.5 43.5t192.5 138.5v185zM760 1244l-237 -204q-22 -20 -38 -20q-17 0 -29.5 12.5t-12.5 30.5q0 10 4.5 18
t20.5 23l236 204q23 20 39 20q17 0 29.5 -12.5t12.5 -30.5q0 -10 -4.5 -18.5t-20.5 -22.5z" />
    <glyph glyph-name="agrave" unicode="&#xe0;" 
d="M856 0v121q-183 -154 -391 -154q-151 0 -236 76.5t-85 187.5q0 122 112 213t327 91q58 0 126 -7.5t147 -23.5v136q0 69 -64 120t-192 51q-98 0 -275 -57q-32 -10 -41 -10q-16 0 -27.5 12t-11.5 30q0 17 10 27q14 15 113 41q156 42 236 42q159 0 248 -78.5t89 -177.5v-556
h112q31 0 44 -11.5t13 -30.5q0 -18 -13 -30t-44 -12h-197zM856 418q-59 17 -125 25t-139 8q-183 0 -286 -79q-78 -59 -78 -141q0 -76 59.5 -128t173.5 -52q109 0 202.5 43.5t192.5 138.5v185zM525 1308l236 -204l22 -25q3 -5 3 -16q0 -18 -12.5 -30.5t-30.5 -12.5
q-15 0 -38 20l-236 204q-25 22 -25 41q0 18 12.5 30.5t30.5 12.5q15 0 38 -20z" />
    <glyph glyph-name="acircumflex" unicode="&#xe2;" 
d="M856 0v121q-183 -154 -391 -154q-151 0 -236 76.5t-85 187.5q0 122 112 213t327 91q58 0 126 -7.5t147 -23.5v136q0 69 -64 120t-192 51q-98 0 -275 -57q-32 -10 -41 -10q-16 0 -27.5 12t-11.5 30q0 17 10 27q14 15 113 41q156 42 236 42q159 0 248 -78.5t89 -177.5v-556
h112q31 0 44 -11.5t13 -30.5q0 -18 -13 -30t-44 -12h-197zM856 418q-59 17 -125 25t-139 8q-183 0 -286 -79q-78 -59 -78 -141q0 -76 59.5 -128t173.5 -52q109 0 202.5 43.5t192.5 138.5v185zM614 1310l271 -206q18 -14 23 -22.5t5 -19.5q0 -18 -12.5 -30t-30.5 -12
q-13 0 -35 17l-221 169l-220 -169q-22 -17 -36 -17q-17 0 -29.5 12.5t-12.5 29.5q0 21 28 42z" />
    <glyph glyph-name="adieresis" unicode="&#xe4;" 
d="M856 0v121q-183 -154 -391 -154q-151 0 -236 76.5t-85 187.5q0 122 112 213t327 91q58 0 126 -7.5t147 -23.5v136q0 69 -64 120t-192 51q-98 0 -275 -57q-32 -10 -41 -10q-16 0 -27.5 12t-11.5 30q0 17 10 27q14 15 113 41q156 42 236 42q159 0 248 -78.5t89 -177.5v-556
h112q31 0 44 -11.5t13 -30.5q0 -18 -13 -30t-44 -12h-197zM856 418q-59 17 -125 25t-139 8q-183 0 -286 -79q-78 -59 -78 -141q0 -76 59.5 -128t173.5 -52q109 0 202.5 43.5t192.5 138.5v185zM435 1146q0 -34 -24 -57.5t-58 -23.5q-33 0 -57 24t-24 57q0 34 24 58t57 24
q34 0 58 -24t24 -58zM864 1146q0 -34 -24 -57.5t-58 -23.5t-57.5 24t-23.5 57q0 34 23.5 58t57.5 24t58 -24t24 -58z" />
    <glyph glyph-name="atilde" unicode="&#xe3;" 
d="M856 0v121q-183 -154 -391 -154q-151 0 -236 76.5t-85 187.5q0 122 112 213t327 91q58 0 126 -7.5t147 -23.5v136q0 69 -64 120t-192 51q-98 0 -275 -57q-32 -10 -41 -10q-16 0 -27.5 12t-11.5 30q0 17 10 27q14 15 113 41q156 42 236 42q159 0 248 -78.5t89 -177.5v-556
h112q31 0 44 -11.5t13 -30.5q0 -18 -13 -30t-44 -12h-197zM856 418q-59 17 -125 25t-139 8q-183 0 -286 -79q-78 -59 -78 -141q0 -76 59.5 -128t173.5 -52q109 0 202.5 43.5t192.5 138.5v185zM892 1167q17 0 29.5 -12t12.5 -27q0 -17 -13 -32q-40 -45 -95 -74
q-38 -21 -79 -21q-64 0 -173 79q-58 43 -90 43q-40 0 -101 -56q-27 -25 -46 -25q-18 0 -29.5 12t-11.5 28q0 26 51 66q78 59 136 59q30 0 61 -12.5t101 -60.5t102 -48q38 0 115 68q16 13 30 13z" />
    <glyph glyph-name="aring" unicode="&#xe5;" 
d="M856 0v121q-183 -154 -391 -154q-151 0 -236 76.5t-85 187.5q0 122 112 213t327 91q58 0 126 -7.5t147 -23.5v136q0 69 -64 120t-192 51q-98 0 -275 -57q-32 -10 -41 -10q-16 0 -27.5 12t-11.5 30q0 17 10 27q14 15 113 41q156 42 236 42q159 0 248 -78.5t89 -177.5v-556
h112q31 0 44 -11.5t13 -30.5q0 -18 -13 -30t-44 -12h-197zM856 418q-59 17 -125 25t-139 8q-183 0 -286 -79q-78 -59 -78 -141q0 -76 59.5 -128t173.5 -52q109 0 202.5 43.5t192.5 138.5v185zM795 1186q0 -73 -53 -125.5t-128 -52.5t-128 52.5t-53 125.5t53 125.5t128 52.5
t128 -52.5t53 -125.5zM735 1186q0 49 -35.5 83.5t-85.5 34.5q-51 0 -86 -35t-35 -83t35.5 -83t85.5 -35t85.5 34.5t35.5 83.5z" />
    <glyph glyph-name="ccedilla" unicode="&#xe7;" 
d="M965 781v28q0 31 12 44t30 13q19 0 31 -13t12 -44v-190q-1 -31 -12.5 -44t-30.5 -13q-17 0 -28.5 11.5t-13.5 38.5q-6 71 -93.5 135t-235.5 64q-187 0 -284 -117t-97 -268q0 -163 107 -269t277 -106q98 0 199.5 36t183.5 116q21 20 37 20q17 0 28.5 -11.5t11.5 -28.5
q0 -43 -101 -109q-163 -107 -363 -107q-203 0 -333.5 129.5t-130.5 328.5q0 203 133.5 337t336.5 134q193 0 324 -115zM586 -163v153q0 22 8.5 31t21.5 9q14 0 22 -9.5t8 -30.5v-96q56 -8 87 -38.5t31 -71.5q0 -49 -37.5 -83t-106.5 -34q-47 0 -101 18.5t-67 33.5
q-10 11 -10 23q0 13 8.5 21.5t21.5 8.5q10 0 23 -7q68 -38 125 -38q39 0 61 18.5t22 40.5q0 19 -17 33q-23 18 -59 18h-41z" />
    <glyph glyph-name="eacute" unicode="&#xe9;" 
d="M1069 413h-856q22 -163 136.5 -262.5t283.5 -99.5q94 0 197 31t168 82q19 15 33 15q16 0 28 -12.5t12 -29.5t-16 -33q-48 -50 -170.5 -93.5t-251.5 -43.5q-216 0 -360.5 141.5t-144.5 342.5q0 183 135.5 314t335.5 131q206 0 339 -134.5t131 -348.5zM984 498
q-25 139 -131.5 226t-253.5 87t-253 -86t-132 -227h770zM761 1245l-237 -204q-22 -20 -38 -20q-17 0 -29.5 12.5t-12.5 30.5q0 10 4.5 18t20.5 23l236 204q23 20 39 20q17 0 29.5 -12.5t12.5 -30.5q0 -10 -4.5 -18.5t-20.5 -22.5z" />
    <glyph glyph-name="egrave" unicode="&#xe8;" 
d="M1069 413h-856q22 -163 136.5 -262.5t283.5 -99.5q94 0 197 31t168 82q19 15 33 15q16 0 28 -12.5t12 -29.5t-16 -33q-48 -50 -170.5 -93.5t-251.5 -43.5q-216 0 -360.5 141.5t-144.5 342.5q0 183 135.5 314t335.5 131q206 0 339 -134.5t131 -348.5zM984 498
q-25 139 -131.5 226t-253.5 87t-253 -86t-132 -227h770zM525 1309l236 -204l22 -25q3 -5 3 -16q0 -18 -12.5 -30.5t-30.5 -12.5q-15 0 -38 20l-236 204q-25 22 -25 41q0 18 12.5 30.5t30.5 12.5q15 0 38 -20z" />
    <glyph glyph-name="ecircumflex" unicode="&#xea;" 
d="M1069 413h-856q22 -163 136.5 -262.5t283.5 -99.5q94 0 197 31t168 82q19 15 33 15q16 0 28 -12.5t12 -29.5t-16 -33q-48 -50 -170.5 -93.5t-251.5 -43.5q-216 0 -360.5 141.5t-144.5 342.5q0 183 135.5 314t335.5 131q206 0 339 -134.5t131 -348.5zM984 498
q-25 139 -131.5 226t-253.5 87t-253 -86t-132 -227h770zM614 1310l271 -206q18 -14 23 -22.5t5 -19.5q0 -18 -12.5 -30t-30.5 -12q-13 0 -35 17l-221 169l-220 -169q-22 -17 -36 -17q-17 0 -29.5 12.5t-12.5 29.5q0 21 28 42z" />
    <glyph glyph-name="edieresis" unicode="&#xeb;" 
d="M1069 413h-856q22 -163 136.5 -262.5t283.5 -99.5q94 0 197 31t168 82q19 15 33 15q16 0 28 -12.5t12 -29.5t-16 -33q-48 -50 -170.5 -93.5t-251.5 -43.5q-216 0 -360.5 141.5t-144.5 342.5q0 183 135.5 314t335.5 131q206 0 339 -134.5t131 -348.5zM984 498
q-25 139 -131.5 226t-253.5 87t-253 -86t-132 -227h770zM486 1146q0 -34 -24 -57.5t-58 -23.5q-33 0 -57 24t-24 57q0 34 24 58t57 24q34 0 58 -24t24 -58zM915 1146q0 -34 -24 -57.5t-58 -23.5t-57.5 24t-23.5 57q0 34 23.5 58t57.5 24t58 -24t24 -58z" />
    <glyph glyph-name="iacute" unicode="&#xed;" 
d="M660 866v-782h330q31 0 44 -11.5t13 -30.5q0 -18 -13 -30t-44 -12h-744q-30 0 -43 12t-17 32q4 17 17 28.5t43 11.5h330v697h-245q-30 0 -43.5 12t-13.5 30q0 19 13 31t44 12h329zM675 1244l-237 -204q-22 -20 -38 -20q-17 0 -29.5 12.5t-12.5 30.5q0 10 4.5 18t20.5 23
l236 204q23 20 39 20q17 0 29.5 -12.5t12.5 -30.5q0 -10 -4.5 -18.5t-20.5 -22.5z" />
    <glyph glyph-name="igrave" unicode="&#xec;" 
d="M660 866v-782h330q31 0 44 -11.5t13 -30.5q0 -18 -13 -30t-44 -12h-744q-30 0 -43 12t-17 32q4 17 17 28.5t43 11.5h330v697h-245q-30 0 -43.5 12t-13.5 30q0 19 13 31t44 12h329zM449 1300l236 -204l22 -25q3 -5 3 -16q0 -18 -12.5 -30.5t-30.5 -12.5q-15 0 -38 20
l-236 204q-25 22 -25 41q0 18 12.5 30.5t30.5 12.5q15 0 38 -20z" />
    <glyph glyph-name="icircumflex" unicode="&#xee;" 
d="M660 866v-782h330q31 0 44 -11.5t13 -30.5q0 -18 -13 -30t-44 -12h-744q-30 0 -43 12t-17 32q4 17 17 28.5t43 11.5h330v697h-245q-30 0 -43.5 12t-13.5 30q0 19 13 31t44 12h329zM530 1310l271 -206q18 -14 23 -22.5t5 -19.5q0 -18 -12.5 -30t-30.5 -12q-13 0 -35 17
l-221 169l-220 -169q-22 -17 -36 -17q-17 0 -29.5 12.5t-12.5 29.5q0 21 28 42z" />
    <glyph glyph-name="idieresis" unicode="&#xef;" 
d="M660 866v-782h330q31 0 44 -11.5t13 -30.5q0 -18 -13 -30t-44 -12h-744q-30 0 -43 12t-17 32q4 17 17 28.5t43 11.5h330v697h-245q-30 0 -43.5 12t-13.5 30q0 19 13 31t44 12h329zM398 1146q0 -34 -24 -57.5t-58 -23.5q-33 0 -57 24t-24 57q0 34 24 58t57 24q34 0 58 -24
t24 -58zM827 1146q0 -34 -24 -57.5t-58 -23.5t-57.5 24t-23.5 57q0 34 23.5 58t57.5 24t58 -24t24 -58z" />
    <glyph glyph-name="ntilde" unicode="&#xf1;" 
d="M343 866v-127q88 89 159 123t160 34q96 0 175 -41q56 -30 101.5 -99.5t45.5 -142.5v-529h71q30 0 43 -11.5t13 -30.5q0 -18 -13 -30t-43 -12h-225q-31 0 -44 12t-13 30q0 19 13 30.5t44 11.5h70v515q0 89 -65 150.5t-174 61.5q-83 0 -144 -33.5t-174 -166.5v-527h95
q30 0 43 -11.5t13 -30.5q0 -18 -13 -30t-43 -12h-274q-30 0 -43 12t-13 30q0 19 13 30.5t43 11.5h95v697h-71q-30 0 -43 12t-13 31q0 18 13 30t43 12h155zM892 1167q17 0 29.5 -12t12.5 -27q0 -17 -13 -32q-40 -45 -95 -74q-38 -21 -79 -21q-64 0 -173 79q-58 43 -90 43
q-40 0 -101 -56q-27 -25 -46 -25q-18 0 -29.5 12t-11.5 28q0 26 51 66q78 59 136 59q30 0 61 -12.5t101 -60.5t102 -48q38 0 115 68q16 13 30 13z" />
    <glyph glyph-name="oacute" unicode="&#xf3;" 
d="M1084 431q0 -192 -137.5 -328t-331.5 -136q-196 0 -333 136.5t-137 327.5q0 192 137 328.5t333 136.5q194 0 331.5 -136t137.5 -329zM999 431q0 158 -112.5 269t-272.5 111t-272.5 -111.5t-112.5 -268.5q0 -156 112.5 -268t272.5 -112t272.5 111.5t112.5 268.5zM760 1245
l-237 -204q-22 -20 -38 -20q-17 0 -29.5 12.5t-12.5 30.5q0 10 4.5 18t20.5 23l236 204q23 20 39 20q17 0 29.5 -12.5t12.5 -30.5q0 -10 -4.5 -18.5t-20.5 -22.5z" />
    <glyph glyph-name="ograve" unicode="&#xf2;" 
d="M1084 431q0 -192 -137.5 -328t-331.5 -136q-196 0 -333 136.5t-137 327.5q0 192 137 328.5t333 136.5q194 0 331.5 -136t137.5 -329zM999 431q0 158 -112.5 269t-272.5 111t-272.5 -111.5t-112.5 -268.5q0 -156 112.5 -268t272.5 -112t272.5 111.5t112.5 268.5zM524 1309
l236 -204l22 -25q3 -5 3 -16q0 -18 -12.5 -30.5t-30.5 -12.5q-15 0 -38 20l-236 204q-25 22 -25 41q0 18 12.5 30.5t30.5 12.5q15 0 38 -20z" />
    <glyph glyph-name="ocircumflex" unicode="&#xf4;" 
d="M1084 431q0 -192 -137.5 -328t-331.5 -136q-196 0 -333 136.5t-137 327.5q0 192 137 328.5t333 136.5q194 0 331.5 -136t137.5 -329zM999 431q0 158 -112.5 269t-272.5 111t-272.5 -111.5t-112.5 -268.5q0 -156 112.5 -268t272.5 -112t272.5 111.5t112.5 268.5zM614 1310
l271 -206q18 -14 23 -22.5t5 -19.5q0 -18 -12.5 -30t-30.5 -12q-13 0 -35 17l-221 169l-220 -169q-22 -17 -36 -17q-17 0 -29.5 12.5t-12.5 29.5q0 21 28 42z" />
    <glyph glyph-name="odieresis" unicode="&#xf6;" 
d="M1084 431q0 -192 -137.5 -328t-331.5 -136q-196 0 -333 136.5t-137 327.5q0 192 137 328.5t333 136.5q194 0 331.5 -136t137.5 -329zM999 431q0 158 -112.5 269t-272.5 111t-272.5 -111.5t-112.5 -268.5q0 -156 112.5 -268t272.5 -112t272.5 111.5t112.5 268.5zM482 1146
q0 -34 -24 -57.5t-58 -23.5q-33 0 -57 24t-24 57q0 34 24 58t57 24q34 0 58 -24t24 -58zM911 1146q0 -34 -24 -57.5t-58 -23.5t-57.5 24t-23.5 57q0 34 23.5 58t57.5 24t58 -24t24 -58z" />
    <glyph glyph-name="otilde" unicode="&#xf5;" 
d="M1084 431q0 -192 -137.5 -328t-331.5 -136q-196 0 -333 136.5t-137 327.5q0 192 137 328.5t333 136.5q194 0 331.5 -136t137.5 -329zM999 431q0 158 -112.5 269t-272.5 111t-272.5 -111.5t-112.5 -268.5q0 -156 112.5 -268t272.5 -112t272.5 111.5t112.5 268.5zM891 1167
q17 0 29.5 -12t12.5 -27q0 -17 -13 -32q-40 -45 -95 -74q-38 -21 -79 -21q-64 0 -173 79q-58 43 -90 43q-40 0 -101 -56q-27 -25 -46 -25q-18 0 -29.5 12t-11.5 28q0 26 51 66q78 59 136 59q30 0 61 -12.5t101 -60.5t102 -48q38 0 115 68q16 13 30 13z" />
    <glyph glyph-name="uacute" unicode="&#xfa;" 
d="M902 0v123q-172 -156 -372 -156q-123 0 -187 67q-83 88 -83 205v542h-113q-30 0 -43 12t-13 31q0 18 13 30t43 12h197v-627q0 -82 52 -135t130 -53q205 0 376 188v542h-155q-30 0 -43 12t-13 31q0 18 13 30t43 12h239v-782h71q30 0 43 -11.5t13 -30.5q0 -18 -13 -30
t-43 -12h-155zM761 1245l-237 -204q-22 -20 -38 -20q-17 0 -29.5 12.5t-12.5 30.5q0 10 4.5 18t20.5 23l236 204q23 20 39 20q17 0 29.5 -12.5t12.5 -30.5q0 -10 -4.5 -18.5t-20.5 -22.5z" />
    <glyph glyph-name="ugrave" unicode="&#xf9;" 
d="M902 0v123q-172 -156 -372 -156q-123 0 -187 67q-83 88 -83 205v542h-113q-30 0 -43 12t-13 31q0 18 13 30t43 12h197v-627q0 -82 52 -135t130 -53q205 0 376 188v542h-155q-30 0 -43 12t-13 31q0 18 13 30t43 12h239v-782h71q30 0 43 -11.5t13 -30.5q0 -18 -13 -30
t-43 -12h-155zM525 1309l236 -204l22 -25q3 -5 3 -16q0 -18 -12.5 -30.5t-30.5 -12.5q-15 0 -38 20l-236 204q-25 22 -25 41q0 18 12.5 30.5t30.5 12.5q15 0 38 -20z" />
    <glyph glyph-name="ucircumflex" unicode="&#xfb;" 
d="M902 0v123q-172 -156 -372 -156q-123 0 -187 67q-83 88 -83 205v542h-113q-30 0 -43 12t-13 31q0 18 13 30t43 12h197v-627q0 -82 52 -135t130 -53q205 0 376 188v542h-155q-30 0 -43 12t-13 31q0 18 13 30t43 12h239v-782h71q30 0 43 -11.5t13 -30.5q0 -18 -13 -30
t-43 -12h-155zM615 1310l271 -206q18 -14 23 -22.5t5 -19.5q0 -18 -12.5 -30t-30.5 -12q-13 0 -35 17l-221 169l-220 -169q-22 -17 -36 -17q-17 0 -29.5 12.5t-12.5 29.5q0 21 28 42z" />
    <glyph glyph-name="udieresis" unicode="&#xfc;" 
d="M902 0v123q-172 -156 -372 -156q-123 0 -187 67q-83 88 -83 205v542h-113q-30 0 -43 12t-13 31q0 18 13 30t43 12h197v-627q0 -82 52 -135t130 -53q205 0 376 188v542h-155q-30 0 -43 12t-13 31q0 18 13 30t43 12h239v-782h71q30 0 43 -11.5t13 -30.5q0 -18 -13 -30
t-43 -12h-155zM446 1146q0 -34 -24 -57.5t-58 -23.5q-33 0 -57 24t-24 57q0 34 24 58t57 24q34 0 58 -24t24 -58zM875 1146q0 -34 -24 -57.5t-58 -23.5t-57.5 24t-23.5 57q0 34 23.5 58t57.5 24t58 -24t24 -58z" />
    <glyph glyph-name="dagger" unicode="&#x2020;" 
d="M657 783v-856q0 -31 -11.5 -44t-30.5 -13t-30.5 13t-11.5 44v856h-265q-30 0 -43 12t-13 30q0 19 13 31t43 12l265 -1v331q0 31 11.5 44t30.5 13t30.5 -13t11.5 -44v-331h264q31 0 44 -11.5t13 -30.5q0 -18 -13 -30t-44 -12h-264z" />
    <glyph glyph-name="degree" unicode="&#xb0;" 
d="M337 1214q0 115 81.5 196t195.5 81q116 0 197 -81t81 -196t-81.5 -196.5t-196.5 -81.5q-114 0 -195.5 81t-81.5 197zM446 1214q0 -70 49.5 -119.5t119.5 -49.5q69 0 118.5 49.5t49.5 119.5t-49.5 119.5t-118.5 49.5q-70 0 -119.5 -49.5t-49.5 -119.5z" />
    <glyph glyph-name="cent" unicode="&#xa2;" 
d="M571 1030v250q0 30 11.5 43t30.5 13t30.5 -13t11.5 -43v-247q128 -4 218 -75q5 17 16 25.5t25 8.5q19 0 31 -13t12 -38v-127q0 -31 -11.5 -44t-30.5 -13q-17 0 -28 11t-14 37q-8 60 -68.5 103.5t-169.5 43.5q-144 0 -233.5 -87t-89.5 -218q0 -129 89 -216.5t225 -87.5
q67 0 139 23t122 64q21 17 37 17q18 0 29 -11.5t11 -29.5q0 -29 -51 -61q-117 -74 -258 -82v-207q0 -30 -11.5 -43t-30.5 -13t-30.5 13t-11.5 43v207q-149 18 -246 127t-97 256q0 160 110 270q81 81 233 114z" />
    <glyph glyph-name="sterling" unicode="&#xa3;" 
d="M372 84h519q38 0 64.5 27.5t30.5 80.5q2 24 13.5 35.5t28.5 11.5q18 0 30.5 -12.5t12.5 -32.5q0 -83 -53 -138.5t-122 -55.5h-669q-30 0 -43 12t-13 30q0 17 12 29t35 12q43 2 79 40q53 54 82 150t29 178q0 67 -12 116h-216q-30 0 -43 11.5t-13 30.5t13 30.5t43 11.5h195
q-57 177 -57 253q0 122 87 210t207 88q105 0 187 -67t82 -107q0 -14 -13 -26.5t-29 -12.5q-18 0 -38 25q-79 103 -186 103q-87 0 -149.5 -63t-62.5 -150q0 -35 9 -78q2 -7 49 -175h205q30 0 43 -11.5t13 -30.5t-13 -30.5t-43 -11.5h-186q10 -62 10 -121q0 -96 -29.5 -191.5
t-88.5 -170.5z" />
    <glyph glyph-name="section" unicode="&#xa7;" 
d="M997 1255v-217q0 -21 -8 -30.5t-21 -9.5q-14 0 -22.5 9.5t-8.5 30.5v156h-350q-78 0 -135 -56t-57 -124q0 -49 37 -93q54 -65 268 -187l113 -64q164 -94 218 -156q54 -63 54 -130q0 -65 -57.5 -114t-166.5 -50q34 -53 34 -107q0 -59 -29.5 -115.5t-88.5 -92t-139 -35.5
h-406v219q0 21 8.5 30.5t21.5 9.5q14 0 22.5 -9.5t8.5 -30.5v-158h344q100 0 149 60t49 116q0 48 -38 96q-51 64 -233 169l-130 75q-174 101 -232 168q-59 67 -59 128q0 62 56 110t170 54q-34 51 -34 99q0 65 30 119t88.5 92t128.5 38h415zM417 849q-14 -3 -34 -3
q-93 0 -136.5 -33t-43.5 -74q0 -45 58 -99q57 -55 215 -146l125 -73q155 -90 213 -146q10 6 31 7q100 2 140 32.5t40 67.5q0 38 -36 83q-49 62 -200 148l-130 73q-109 62 -152.5 92t-89.5 71z" />
    <glyph glyph-name="bullet" unicode="&#x2022;" 
d="M862 637q0 -103 -73 -175.5t-175 -72.5t-174.5 72.5t-72.5 175.5q0 102 72.5 174.5t174.5 72.5q103 0 175.5 -72.5t72.5 -174.5z" />
    <glyph glyph-name="paragraph" unicode="&#xb6;" 
d="M895 1194v-1263h131q22 0 31 -8.5t9 -21.5q0 -14 -9.5 -22.5t-30.5 -8.5h-195q-22 0 -31.5 8.5t-9.5 22.5q0 8 5.5 16t13 11t25.5 3v1263h-176v-1263q19 0 26.5 -3t12.5 -11t5 -16q0 -14 -9.5 -22.5t-30.5 -8.5h-280q-21 0 -30.5 8.5t-9.5 21.5q0 14 9.5 22.5t30.5 8.5
h215v633q-118 8 -213 45q-56 21 -110.5 66.5t-78.5 84.5t-24 97v97q0 65 35 124q25 42 60 68q51 38 141 73.5t207 35.5h409q22 0 31.5 -8.5t9.5 -21.5q0 -14 -9.5 -22.5t-31.5 -8.5h-128zM597 1194q-145 -13 -225 -87.5t-80 -157.5v-77q0 -55 27 -95q49 -70 105 -101
q74 -40 173 -49v567z" />
    <glyph glyph-name="germandbls" unicode="&#xdf;" 
d="M258 84v906q0 106 84.5 185.5t210.5 79.5q127 0 215 -88.5t88 -214.5q0 -125 -120 -207q93 -39 146 -84q72 -61 110.5 -143t38.5 -185q0 -170 -83 -268t-191 -98q-92 0 -155 68.5t-63 174.5q0 22 12 34.5t30 12.5t29.5 -12t12.5 -37q5 -78 42 -117q36 -40 93 -40
q87 0 137.5 88.5t50.5 192.5q0 83 -32.5 152t-76.5 106.5t-133 78.5q-56 25 -132 25q-31 0 -43 9q-16 13 -16 34q0 17 12.5 29.5t33.5 12.5q61 0 111.5 26t76 64.5t25.5 85.5q0 87 -64 151t-155 64q-94 0 -152.5 -55.5t-58.5 -124.5v-906h32q30 0 43 -11.5t13 -30.5
q0 -18 -13 -30t-43 -12h-229q-30 0 -43 12t-13 30q0 19 13 30.5t43 11.5h113z" />
    <glyph glyph-name="registered" unicode="&#xae;" 
d="M1223 584q0 -253 -179 -432t-433 -179q-253 0 -432 179t-179 432q0 254 179 433t432 179q254 0 433 -179t179 -433zM1155 584q0 226 -159 385t-385 159q-225 0 -384.5 -159t-159.5 -385q0 -225 159.5 -384t384.5 -159q226 0 385 159t159 384zM461 549v-248h88
q13 0 18.5 -3t9.5 -8.5t4 -12.5t-4 -13t-9.5 -8.5t-18.5 -2.5h-200q-13 0 -18.5 2.5t-9.5 8.5t-4 13q0 6 4 12.5t9.5 9t18.5 2.5h64v567h-64q-13 0 -18.5 3t-9.5 9t-4 12q0 7 4 13t9.5 8.5t18.5 2.5h288q89 0 150 -56.5t61 -127.5q0 -51 -38 -96t-126 -75q51 -34 87.5 -78.5
t115.5 -181.5h37q13 0 18.5 -3t9.5 -9t4 -12q0 -7 -4 -13t-9.5 -8.5t-18.5 -2.5h-64q-87 157 -135.5 211t-112.5 85h-151zM461 596h129q99 0 154.5 44.5t55.5 94.5q0 48 -47.5 90.5t-116.5 42.5h-175v-272z" />
    <glyph glyph-name="copyright" unicode="&#xa9;" 
d="M1223 584q0 -253 -179 -432t-433 -179q-253 0 -432 179t-179 432q0 254 179 433t432 179q254 0 433 -179t179 -433zM1155 584q0 226 -159 385t-385 159q-225 0 -384.5 -159t-159.5 -385q0 -225 159.5 -384t384.5 -159q226 0 385 159t159 384zM810 862v34q0 17 7 24.5
t18 7.5q10 0 16.5 -7.5t6.5 -24.5v-132q0 -14 -2.5 -19.5t-8.5 -9t-13 -3.5q-9 0 -15.5 6.5t-8.5 21.5q-3 49 -51 85q-66 50 -150 50q-100 0 -158 -63q-78 -86 -78 -192v-83q0 -107 77 -185.5t178 -78.5q116 0 204 107q10 12 21 12t17 -6t6 -16q0 -28 -75 -86t-171 -58
q-85 0 -153 42.5t-122 135.5q-30 53 -30 126v97q0 106 76 201t206 95q119 0 203 -81z" />
    <glyph glyph-name="trademark" unicode="&#x2122;" 
d="M297 1105v-432h93q41 0 41 -33q0 -32 -41 -32h-252q-41 0 -41 32q0 33 41 33h94v432h-163v-143q0 -41 -32 -41q-33 0 -33 41v208h520v-208q0 -41 -32 -41q-33 0 -33 41v143h-162zM914 776h-68l-166 325v-428h58q42 0 42 -33q0 -32 -42 -32h-161q-42 0 -42 32q0 33 42 33
h36v497h107l160 -312l160 312h107v-497h36q42 0 42 -33q0 -32 -42 -32h-161q-42 0 -42 32q0 33 42 33h58v430z" />
    <glyph glyph-name="acute" unicode="&#xb4;" 
d="M760 1245l-237 -204q-22 -20 -38 -20q-17 0 -29.5 12.5t-12.5 30.5q0 10 4.5 18t20.5 23l236 204q23 20 39 20q17 0 29.5 -12.5t12.5 -30.5q0 -10 -4.5 -18.5t-20.5 -22.5z" />
    <glyph glyph-name="dieresis" unicode="&#xa8;" 
d="M482 1147q0 -34 -24 -57.5t-58 -23.5q-33 0 -57 24t-24 57q0 34 24 58t57 24q34 0 58 -24t24 -58zM911 1147q0 -34 -24 -57.5t-58 -23.5t-57.5 24t-23.5 57q0 34 23.5 58t57.5 24t58 -24t24 -58z" />
    <glyph glyph-name="notequal" unicode="&#x2260;" 
d="M712 695l-100 -217h461q30 0 43 -11.5t13 -30.5t-13 -30.5t-43 -11.5h-500l-197 -429q-17 -37 -45 -37q-17 0 -29.5 12t-12.5 28q0 11 10 32l181 394h-323q-30 0 -43 11.5t-13 30.5t13 30.5t43 11.5h362l100 217h-462q-30 0 -43 12t-13 31q0 18 13 30t43 12h500l197 427
q17 37 44 37q18 0 30 -12.5t12 -27.5q0 -11 -9 -33l-181 -391h323q30 0 43 -12t13 -31q0 -18 -13 -30t-43 -12h-361z" />
    <glyph glyph-name="AE" unicode="&#xc6;" 
d="M614 394h-293l-85 -310h54q30 0 43 -11.5t13 -30.5q0 -18 -13 -30t-43 -12h-216q-30 0 -43 12t-13 30q0 19 13 30.5t43 11.5h77l276 1002h-131q-30 0 -43 11.5t-13 30.5t12.5 30.5t43.5 11.5h874v-316q0 -30 -12 -43t-30 -13q-19 0 -31 13t-12 43v232h-387v-436h163v58
q0 31 11.5 44t30.5 13t31 -13t11 -44v-198q0 -31 -11.5 -44t-30.5 -13t-30.5 13t-11.5 44v57h-163v-483h430v194q0 23 5 34q3 6 14.5 14t18.5 8l20 -3q16 -9 21 -18.5t5 -34.5v-278h-706q-30 0 -43 12t-13 30q0 19 13 30.5t43 11.5h108v310zM614 475v611h-104l-166 -611h270
z" />
    <glyph glyph-name="Oslash" unicode="&#xd8;" 
d="M291 104l-127 -161q-14 -18 -22.5 -22.5t-18.5 -4.5q-18 0 -30.5 12.5t-12.5 30.5q0 14 18 36l137 174q-131 181 -131 412q0 272 154.5 444t357.5 172q183 0 322 -134l127 162q14 17 22.5 22t19.5 5q18 0 30 -12.5t12 -30.5q0 -14 -17 -36l-137 -174q133 -177 133 -417
q0 -270 -155 -442.5t-357 -172.5q-184 0 -325 137zM884 995q-121 118 -268 118q-177 0 -302.5 -156t-125.5 -375q0 -191 102 -343zM344 172q121 -121 272 -121q175 0 301 155t126 376q0 196 -103 347z" />
    <glyph glyph-name="infinity" unicode="&#x221e;" 
d="M615 678q126 168 281 168q100 0 162 -61t62 -161q0 -101 -60.5 -163.5t-156.5 -62.5q-148 0 -288 170q-84 -100 -150 -134.5t-138 -34.5q-94 0 -156 61.5t-62 159.5t64 161.5t160 63.5q149 0 282 -167zM665 622q88 -94 137.5 -119.5t100.5 -25.5q66 0 104.5 39.5
t38.5 106.5q0 64 -41.5 105.5t-105.5 41.5q-55 0 -118 -36.5t-116 -111.5zM567 624q-87 92 -138 118.5t-103 26.5q-63 0 -103.5 -40t-40.5 -106q0 -68 39.5 -107.5t101.5 -39.5q63 0 128.5 42t115.5 106z" />
    <glyph glyph-name="plusminus" unicode="&#xb1;" 
d="M657 676v-420q0 -30 -12 -43t-31 -13q-18 0 -30 13t-12 43v420h-372q-30 0 -43 11.5t-13 30.5t13 30.5t43 11.5h372v418q0 30 12 43t31 13q18 0 30 -13t12 -43v-418h372q30 0 43 -11.5t13 -30.5t-13 -30.5t-43 -11.5h-372zM968 0h-707q-79 0 -87 2q-13 3 -21.5 14.5
t-8.5 25.5t8.5 25.5t21.5 14.5q8 3 87 3l707 -1q79 0 87 -2q13 -3 21.5 -14.5t8.5 -25.5t-8.5 -25.5t-21.5 -14.5q-8 -2 -87 -2z" />
    <glyph glyph-name="lessequal" unicode="&#x2264;" 
d="M98 884l908 506q22 13 33 13q17 0 29.5 -12.5t12.5 -29.5q0 -26 -34 -44l-778 -432l777 -432q34 -19 34 -44q0 -17 -12.5 -29.5t-29.5 -12.5q-11 0 -33 12zM961 181h-744q-78 0 -86 2q-13 3 -21.5 14.5t-8.5 25.5t8.5 25.5t20.5 14.5q9 2 87 2h744q79 0 87 -2
q13 -3 21.5 -14.5t8.5 -25.5t-8.5 -25.5t-21.5 -14.5q-8 -2 -87 -2z" />
    <glyph glyph-name="greaterequal" unicode="&#x2265;" 
d="M1131 885l-908 -506q-22 -12 -33 -12q-17 0 -29.5 12t-12.5 30q0 25 34 44l778 432l-777 431q-34 19 -34 45q0 17 12.5 29.5t29.5 12.5q11 0 33 -13zM1012 181h-744q-79 0 -87 2q-13 3 -21.5 14.5t-8.5 25.5t8.5 25.5t21.5 14.5q8 2 87 2h744q79 0 87 -2
q12 -3 20.5 -14.5t8.5 -25.5t-8.5 -25.5t-20.5 -14.5q-9 -2 -87 -2z" />
    <glyph glyph-name="yen" unicode="&#xa5;" 
d="M657 511v-158h271q22 0 31.5 -8t9.5 -22q0 -13 -9.5 -21.5t-31.5 -8.5h-271v-209h179q30 0 43 -11.5t13 -30.5q0 -18 -13 -30t-43 -12h-443q-30 0 -43 12t-13 30q0 19 13 30.5t43 11.5h179v209h-271q-21 0 -30.5 8.5t-9.5 21.5q0 14 9.5 22t30.5 8h271v158h-271
q-21 0 -30.5 8.5t-9.5 21.5t9.5 21.5t30.5 8.5h242l-339 515h-50q-30 0 -43 11.5t-13 30.5t13 30.5t43 11.5h230q30 0 43 -11.5t13 -30.5t-13 -30.5t-43 -11.5h-81l311 -472l311 472h-82q-30 0 -43 11.5t-13 30.5t13 30.5t43 11.5h228q31 0 44 -11.5t13 -30.5t-13 -30.5
t-44 -11.5h-48l-340 -515h245q22 0 31.5 -8.5t9.5 -21.5q0 -14 -9.5 -22t-31.5 -8h-271z" />
    <glyph glyph-name="mu1" unicode="&#xb5;" 
d="M343 34v-364q0 -30 -11.5 -43t-30.5 -13t-30.5 13t-11.5 43v1111h-113q-30 0 -43 12t-13 31q0 18 13 30t43 12h197v-627q0 -82 52 -135t130 -53q205 0 376 188v542h-155q-30 0 -43 12t-13 31q0 18 13 30t43 12h239v-782h71q30 0 43 -11.5t13 -30.5q0 -18 -13 -30t-43 -12
h-155v123q-172 -156 -374 -156q-109 0 -184 67z" />
    <glyph glyph-name="partialdiff" unicode="&#x2202;" 
d="M916 766q-3 188 -30.5 262.5t-71.5 107.5t-100 33q-64 0 -122.5 -39.5t-113.5 -139.5q-14 -27 -23 -33.5t-21 -6.5q-20 0 -32.5 12t-12.5 28q0 28 50.5 103.5t126 118.5t147.5 43q106 0 179 -78q107 -112 107 -391q0 -251 -77.5 -441t-210.5 -282.5t-263 -92.5
q-123 0 -197.5 76.5t-74.5 209.5q0 114 51.5 210.5t138 159.5t218.5 99.5t332 40.5zM914 680q-155 -4 -237 -19q-133 -24 -224.5 -77t-142.5 -143t-51 -187q0 -89 55.5 -144t138.5 -55q80 0 163.5 45.5t145.5 123.5t105 212q30 94 47 244z" />
    <glyph glyph-name="summation" unicode="&#x2211;" 
d="M1016 -302v265q0 30 12 43t31 13q18 0 30 -13t12 -43v-349h-1058v90l523 744l-506 728v79h1035v-319q0 -30 -11.5 -43t-30.5 -13t-30.5 13t-11.5 43v234h-855l507 -714l-523 -758h876z" />
    <glyph glyph-name="product" unicode="&#x220f;" 
d="M970 -302v1472h-711v-1472h65q30 0 43 -11.5t13 -30.5q0 -18 -13 -30t-43 -12h-214q-30 0 -43 11.5t-13 30.5t13 30.5t43 11.5h65v1472h-65q-30 0 -43 12t-13 31q0 12 6.5 22.5t16 15t33.5 4.5h1009q30 0 43 -12t13 -31q0 -18 -13 -30t-43 -12h-64v-1472h64
q30 0 43 -11.5t13 -30.5q0 -18 -13 -30t-43 -12h-213q-31 0 -44 11.5t-13 30.5t13 30.5t44 11.5h64z" />
    <glyph glyph-name="pi1" 
d="M826 782h-423v-698h50q44 0 50 -2q12 -4 19 -14.5t7 -23.5q0 -14 -7.5 -25t-20.5 -16q-6 -3 -48 -3h-214q-40 0 -47 3q-11 4 -18 14.5t-7 22.5q0 13 8 24t20 15.5t52 4.5h72v698h-55q-51 0 -62 4q-17 6 -25.5 17t-8.5 22t8 21.5t22 15.5q11 4 58 4h714q55 0 65.5 -3.5
t16.5 -11.5q8 -13 8 -27t-7 -23.5t-20 -14t-63 -4.5h-60v-698h74q40 0 51.5 -4t18.5 -14t7 -22q0 -15 -11.5 -28.5t-24.5 -15.5h-248q-41 0 -53 4.5t-18 14.5q-9 14 -9 27t13 24q19 15 40 15l27 -1h49v698z" />
    <glyph glyph-name="integral" unicode="&#x222b;" 
d="M640 509l4 -123q2 -45 2 -90q0 -252 -33.5 -356.5t-100 -153t-138.5 -48.5q-60 0 -104.5 42.5t-44.5 93.5q0 29 13 43.5t34 14.5t36.5 -16t24.5 -63q7 -32 20 -43q18 -15 44 -15q58 0 110 53q38 39 61 134.5t23 314.5q0 52 -2 105l-4 122q-2 46 -2 91q0 252 33 356
t99.5 153t138.5 49q61 0 105.5 -42.5t44.5 -94.5q0 -27 -13.5 -42t-33.5 -15q-21 0 -37 16t-24 62q-6 33 -20 44q-18 15 -44 15q-58 0 -110 -53q-39 -40 -61.5 -136t-22.5 -312q0 -53 2 -106z" />
    <glyph glyph-name="ordfeminine" unicode="&#xaa;" 
d="M759 747v60q-115 -80 -240 -80q-107 0 -165 51t-58 122q0 76 74.5 135.5t222.5 59.5q35 0 76.5 -4t89.5 -12v66q0 34 -32 58q-42 31 -122 31q-61 0 -175 -34q-22 -6 -30 -6q-16 0 -27.5 11t-11.5 28q0 14 10 24.5t69 25.5q111 28 168 28q111 0 171.5 -51.5t60.5 -114.5
v-321h60q26 0 38 -11t12 -27t-12 -27.5t-38 -11.5h-141zM759 906l-1 95q-34 9 -73 13t-84 4q-116 0 -179 -45q-45 -32 -45 -73q0 -39 34 -67.5t105 -28.5q127 0 243 102z" />
    <glyph glyph-name="ordmasculine" unicode="&#xba;" 
d="M930 1019q0 -118 -91.5 -205t-226.5 -87t-226.5 87.5t-91.5 204.5q0 118 91.5 205t226.5 87t226.5 -87t91.5 -205zM849 1019q0 87 -68 151t-169 64t-169 -64.5t-68 -150.5t68 -150.5t169 -64.5t169 64.5t68 150.5z" />
    <glyph glyph-name="Ohm" unicode="&#x2126;" 
d="M146 84h281v95q-177 41 -271.5 162t-94.5 301q0 248 169 398t386 150q148 0 278 -71t202 -201.5t72 -277.5q0 -172 -92.5 -291t-277.5 -170v-95h281v50q0 47 11 60t32 13q13 0 23 -7t13.5 -16.5t2.5 -49.5v-134h-445v245q181 29 275.5 137t94.5 271q0 217 -146.5 338.5
t-318.5 121.5q-165 0 -301 -104q-175 -134 -175 -362q0 -173 95.5 -277t268.5 -125v-245h-443v134q0 40 3 49q4 11 14.5 18t22.5 7t20 -6q12 -8 16 -18.5t4 -49.5v-50z" />
    <glyph glyph-name="ae" unicode="&#xe6;" 
d="M1192 412h-534q15 -181 100 -286q61 -75 129 -75q89 0 231 116q18 15 33 15q18 0 29.5 -12t11.5 -30q0 -16 -13 -31q-48 -51 -152 -103q-79 -39 -139 -39q-61 0 -122 39.5t-108 119.5v-70q0 -30 -11.5 -43t-30.5 -13t-30.5 13t-11.5 43v45q-71 -76 -127 -105t-119 -29
q-80 0 -154 43t-116 125t-42 165q0 55 29.5 95.5t115.5 80.5q125 58 234 58q45 0 90 -6.5t89 -19.5v125q0 70 -53 124t-114 54q-33 0 -86 -14.5t-103 -40.5q-26 -13 -37 -13q-16 0 -28.5 12.5t-12.5 28.5t14 31t105 48t153 33q69 0 134 -47.5t96 -130.5q55 91 105 128
q65 50 136 50q109 0 208.5 -126.5t100.5 -357.5zM1107 496q-20 156 -102 249q-58 66 -125 66q-63 0 -121 -67q-80 -92 -101 -248h449zM574 420q-45 15 -88 22.5t-84 7.5q-141 0 -249 -72q-53 -34 -53 -85q0 -59 30.5 -119.5t84 -91.5t111.5 -31q53 0 100 30q64 40 148 148
v191z" />
    <glyph glyph-name="oslash" unicode="&#xf8;" 
d="M320 66l-126 -129q-22 -23 -40 -23t-30 12.5t-12 31.5q0 16 22 38l123 126q-123 133 -123 310q0 189 140.5 326.5t342.5 137.5q167 0 298 -99l125 128q22 22 40 22q17 0 29.5 -12t12.5 -31q0 -16 -22 -39l-122 -125q122 -132 122 -309q0 -190 -140.5 -327t-342.5 -137
q-162 0 -297 99zM855 736q-106 75 -238 75q-167 0 -282.5 -112.5t-115.5 -267.5q0 -137 97 -248zM379 127q106 -76 239 -76q167 0 282 112.5t115 267.5q0 141 -96 249z" />
    <glyph glyph-name="questiondown" unicode="&#xbf;" 
d="M659 679h-84q-43 0 -73.5 30.5t-30.5 72.5q0 45 31 75t73 30h84q43 0 73.5 -30.5t30.5 -73.5q0 -45 -31 -74.5t-73 -29.5zM573 294v85q0 31 12 44t31 13q18 0 30 -13t12 -44v-141q-219 -80 -299 -161q-45 -46 -45 -114q0 -111 81.5 -191t211.5 -80q66 0 124.5 15.5
t142.5 55.5v68q0 31 11.5 44t30.5 13t30.5 -13t11.5 -44v-122q-156 -70 -202 -81q-78 -20 -156 -20q-166 0 -268 100.5t-102 253.5q0 94 60.5 166t282.5 166z" />
    <glyph glyph-name="exclamdown" unicode="&#xa1;" 
d="M634 670h-39q-43 0 -73.5 30.5t-30.5 73.5q0 45 31 74.5t73 29.5h39q43 0 73.5 -30.5t30.5 -72.5q0 -45 -31 -75t-73 -30zM535 -274l37 645q2 32 13.5 45t28.5 13q18 0 29.5 -13t13.5 -45l38 -645q1 -23 1 -35q0 -34 -23 -57t-58 -23t-58.5 22.5t-23.5 59.5q0 10 2 33z
" />
    <glyph glyph-name="logicalnot" unicode="&#xac;" 
d="M80 543q-23 0 -33 4.5t-16.5 15t-6.5 22.5q0 19 13 30.5t43 11.5h1005v-504q0 -30 -12 -43t-30 -13q-19 0 -31 13t-12 43v420h-920z" />
    <glyph glyph-name="radical" unicode="&#x221a;" 
d="M1135 1603l-270 -1681l-496 1021l-198 -91l-34 64l301 151l405 -823l217 1359h75z" />
    <glyph glyph-name="florin" unicode="&#x192;" 
d="M658 780h200q30 0 43 -12t13 -31q0 -18 -13 -30t-43 -12h-200v-574q0 -131 -89 -222.5t-214 -91.5q-68 0 -134 25q-44 17 -44 47q0 18 11 29.5t27 11.5q10 0 31 -7q63 -22 114 -22q90 0 143 60q70 77 70 183v561h-200q-30 0 -43 12t-13 31q0 18 13 30t43 12h200v180
q0 139 91.5 233t219.5 94q74 0 138 -24q40 -15 40 -44q0 -18 -12 -29.5t-29 -11.5q-6 0 -39 10q-45 15 -90 15q-105 0 -160 -59q-74 -80 -74 -184v-180z" />
    <glyph glyph-name="approxequal" unicode="&#x2248;" 
d="M1003 837q16 0 28 -12t12 -28q0 -35 -87 -115.5t-160 -80.5q-45 0 -91 25.5t-131 105.5q-57 54 -86.5 71t-53.5 17q-29 0 -55 -16q-35 -20 -96 -91q-29 -33 -37.5 -38.5t-18.5 -5.5q-17 0 -28.5 12t-11.5 29q0 16 26 49q66 82 118 113.5t101 31.5q41 0 81 -19.5
t103 -76.5q101 -93 125.5 -107.5t48.5 -14.5q71 0 151 102q29 37 39 43t23 6zM1003 499q16 0 28 -12t12 -28q0 -35 -87 -115.5t-160 -80.5q-45 0 -91 25.5t-131 105.5q-57 54 -86.5 71t-53.5 17q-29 0 -55 -16q-35 -20 -96 -91q-29 -33 -37.5 -38t-18.5 -5q-17 0 -28.5 11.5
t-11.5 28.5q0 16 26 49q66 82 118 113.5t101 31.5q41 0 81 -19.5t103 -76.5q101 -93 125.5 -107.5t48.5 -14.5q71 0 151 102q29 37 39 43t23 6z" />
    <glyph glyph-name="Delta" unicode="&#x2206;" 
d="M83 0l444 1153h154l456 -1153h-1054zM187 71h844l-398 1026h-58z" />
    <glyph glyph-name="guillemotleft" unicode="&#xab;" 
d="M99 434l448 410q26 24 44 24t30 -12t12 -31q0 -16 -23 -41l-313 -350l313 -349q23 -25 23 -42q0 -18 -12 -30t-30 -12t-44 23zM568 434l448 410q26 24 44 24t30 -12t12 -31q0 -16 -22 -41l-313 -350l313 -349q22 -25 22 -42q0 -18 -12 -30t-30 -12t-44 23z" />
    <glyph glyph-name="guillemotright" unicode="&#xbb;" 
d="M661 434l-449 -410q-25 -23 -43 -23t-30 12t-12 30q0 17 22 42l313 349l-313 350q-22 25 -22 42q0 18 12 30t30 12t43 -24zM1130 434l-448 -410q-26 -23 -44 -23t-30 12t-12 30q0 17 22 42l313 349l-313 350q-22 25 -22 42q0 18 12 30t30 12t44 -24z" />
    <glyph glyph-name="ellipsis" unicode="&#x2026;" 
d="M306 73q0 -43 -30 -73t-72 -30q-43 0 -73 30t-30 73q0 42 30 72t73 30q42 0 72 -30t30 -72zM716 73q0 -43 -30 -73t-73 -30q-42 0 -72 30t-30 73q0 42 30 72t72 30q43 0 73 -30t30 -72zM1128 73q0 -43 -30 -73t-73 -30q-42 0 -72 30t-30 73q0 42 29.5 72t72.5 30t73 -30
t30 -72z" />
    <glyph glyph-name="Agrave" unicode="&#xc0;" 
d="M891 391h-552l-113 -307h161q30 0 43 -11.5t13 -30.5q0 -18 -13 -30t-43 -12h-314q-30 0 -43 12t-13 30q0 19 13 30.5t43 11.5h65l371 1002h-248q-30 0 -43 11.5t-13 30.5t13 30.5t43 11.5h423l410 -1086h65q30 0 43 -11.5t13 -30.5q0 -18 -13 -30t-43 -12h-313
q-31 0 -44 12t-13 30q0 19 13 30.5t44 11.5h160zM859 475l-232 611h-31l-225 -611h488zM452 1576l236 -204l22 -25q3 -5 3 -16q0 -18 -12.5 -30.5t-30.5 -12.5q-15 0 -38 20l-236 204q-25 22 -25 41q0 18 12.5 30.5t30.5 12.5q15 0 38 -20z" />
    <glyph glyph-name="Atilde" unicode="&#xc3;" 
d="M891 391h-552l-113 -307h161q30 0 43 -11.5t13 -30.5q0 -18 -13 -30t-43 -12h-314q-30 0 -43 12t-13 30q0 19 13 30.5t43 11.5h65l371 1002h-248q-30 0 -43 11.5t-13 30.5t13 30.5t43 11.5h423l410 -1086h65q30 0 43 -11.5t13 -30.5q0 -18 -13 -30t-43 -12h-313
q-31 0 -44 12t-13 30q0 19 13 30.5t44 11.5h160zM859 475l-232 611h-31l-225 -611h488zM800 1435q17 0 29.5 -12t12.5 -27q0 -17 -13 -32q-40 -45 -95 -74q-38 -21 -79 -21q-64 0 -173 79q-58 43 -90 43q-40 0 -101 -56q-27 -25 -46 -25q-18 0 -29.5 12t-11.5 28q0 26 51 66
q78 59 136 59q30 0 61 -12.5t101 -60.5t102 -48q38 0 115 68q16 13 30 13z" />
    <glyph glyph-name="Otilde" unicode="&#xd5;" 
d="M1128 582q0 -168 -68 -311.5t-187.5 -223.5t-256.5 -80q-203 0 -357.5 172.5t-154.5 442.5q0 271 154.5 443t357.5 172q137 0 256 -80t187.5 -223t68.5 -312zM1043 582q0 205 -119 368t-308 163q-177 0 -302.5 -155.5t-125.5 -375.5q0 -234 131.5 -382.5t296.5 -148.5
q189 0 308 162.5t119 368.5zM802 1435q17 0 29.5 -12t12.5 -27q0 -17 -13 -32q-40 -45 -95 -74q-38 -21 -79 -21q-64 0 -173 79q-58 43 -90 43q-40 0 -101 -56q-27 -25 -46 -25q-18 0 -29.5 12t-11.5 28q0 26 51 66q78 59 136 59q30 0 61 -12.5t101 -60.5t102 -48
q38 0 115 68q16 13 30 13z" />
    </font>
</defs>
</svg>
